<svg width="32" height="32" viewBox="0 0 32 32" fill="none" xmlns="http://www.w3.org/2000/svg">
<path fill-rule="evenodd" clip-rule="evenodd" d="M6.50482 7.83826C5.33325 9.00983 5.33325 10.8955 5.33325 14.6667V17.3334V22.6667V25.5858C5.33325 26.4767 6.4104 26.9229 7.04036 26.2929L10.5201 22.8131C10.5924 22.7409 10.6285 22.7047 10.6745 22.6857C10.7204 22.6667 10.7715 22.6667 10.8737 22.6667L18.6666 22.6667C22.4378 22.6667 24.3234 22.6667 25.495 21.4951C26.6666 20.3235 26.6666 18.4379 26.6666 14.6667C26.6666 10.8955 26.6666 9.00983 25.495 7.83826C24.3234 6.66669 22.4378 6.66669 18.6666 6.66669H13.3333C9.56202 6.66669 7.6764 6.66669 6.50482 7.83826Z" fill="white"/>
<path d="M11.3333 12.6667L20.6666 12.6667" stroke="#222222" stroke-linecap="round" stroke-linejoin="round"/>
<path d="M11.3333 16.6667H17.9999" stroke="#222222" stroke-linecap="round" stroke-linejoin="round"/>
</svg>
