<?xml version="1.0" standalone="no"?>
<!DOCTYPE svg PUBLIC "-//W3C//DTD SVG 20010904//EN"
 "http://www.w3.org/TR/2001/REC-SVG-20010904/DTD/svg10.dtd">
<svg version="1.0" xmlns="http://www.w3.org/2000/svg"
 width="41.000000pt" height="38.000000pt" viewBox="0 0 41.000000 38.000000"
 preserveAspectRatio="xMidYMid meet">

<g transform="translate(0.000000,38.000000) scale(0.100000,-0.100000)"
fill="#000000" stroke="none">
<path d="M157 369 c-57 -13 -112 -45 -132 -75 -32 -50 -17 -155 29 -193 10 -8
13 -23 9 -47 -6 -39 0 -42 42 -14 20 13 47 20 80 20 109 0 182 40 210 114 30
79 1 149 -72 179 -52 20 -121 27 -166 16z m61 -76 c-27 -4 -61 -33 -39 -33 6
0 11 -7 11 -15 0 -8 -6 -15 -14 -15 -7 0 -19 -6 -25 -14 -19 -22 22 -59 59
-54 16 2 27 1 24 -4 -7 -10 -114 -6 -121 5 -2 4 0 13 5 20 5 7 15 30 22 52 15
49 34 65 74 64 30 -2 30 -2 4 -6z m52 -33 c25 -25 26 -61 0 -91 l-20 -24 15
36 c15 38 12 51 -10 43 -18 -7 -29 14 -15 30 8 11 8 15 -2 19 -10 4 -10 6 0 6
6 1 21 -8 32 -19z"/>
</g>
</svg>
