<svg width="905" height="603" viewBox="0 0 905 603" fill="none" xmlns="http://www.w3.org/2000/svg">
<path d="M154.224 102.848L106.211 199.653L120.546 200.196L79.857 277.115H101.227L67.8989 345.459H254.232L213.206 277.115L232.862 276.27L193.549 199.376L208.077 198.532L154.224 102.848Z" fill="#33363F"/>
<path d="M162.164 199.231C162.393 199.231 162.079 249.389 161.44 311.257C160.8 373.124 160.1 543.81 159.859 543.81C159.618 543.81 159.943 373.136 160.583 311.244C161.222 249.353 161.922 199.231 162.164 199.231Z" fill="#E0E0E0"/>
<path d="M181.76 220.589C181.953 220.734 177.838 226.366 172.589 233.18C167.34 239.994 162.936 245.397 162.731 245.24C162.526 245.083 166.653 239.463 171.914 232.649C177.175 225.836 181.579 220.445 181.76 220.589Z" fill="#E0E0E0"/>
<path d="M161.778 243.491C161.633 243.672 157.566 240.754 152.703 236.967C147.841 233.18 144.015 229.96 144.16 229.731C144.305 229.502 148.371 232.469 153.234 236.255C158.097 240.042 161.922 243.298 161.778 243.491Z" fill="#E0E0E0"/>
<path d="M160.68 284.242C159.589 283.541 158.57 282.733 157.639 281.83C155.829 280.299 153.331 278.212 150.532 275.909C147.732 273.605 145.162 271.603 143.292 270.144C142.236 269.409 141.254 268.573 140.359 267.648C141.535 268.178 142.641 268.85 143.654 269.65C145.62 271 148.263 272.954 151.075 275.245C153.886 277.537 156.336 279.732 158.049 281.372C159.036 282.222 159.919 283.185 160.68 284.242Z" fill="#E0E0E0"/>
<path d="M181.784 259.049C181.965 259.194 177.464 265.079 171.733 272.23C166.001 279.382 161.199 285.038 161.005 284.893C160.812 284.749 165.325 278.863 171.069 271.7C176.813 264.536 181.603 258.904 181.784 259.049Z" fill="#E0E0E0"/>
<path d="M687.257 504.53C665.38 488.358 661.229 459.558 662.954 433.846C663.244 429.553 662.954 425.006 665.102 421.316C667.25 417.626 672.222 415.19 676.059 417.131C679.245 418.747 680.536 422.498 682.237 425.633C684.539 429.817 687.972 433.269 692.144 435.595C694.871 437.103 698.274 438.091 701.061 436.68C704.886 434.763 705.49 429.662 705.61 425.38L706.226 401.489C706.346 397.22 706.467 392.854 707.951 388.838C709.435 384.822 712.524 381.156 716.687 380.155C720.85 379.154 725.87 381.675 726.594 385.884C726.721 387.654 726.721 389.432 726.594 391.202C726.594 392.987 727.439 394.977 729.128 395.532C730.817 396.086 732.615 394.929 733.955 393.723C738.576 389.55 741.786 384.075 744.815 378.66C747.843 373.245 750.764 367.661 754.975 363.09C759.186 358.52 764.918 354.974 771.132 354.829C777.346 354.685 783.838 358.688 785.202 364.755C786.565 370.821 782.789 376.815 778.782 381.566C772.783 388.622 765.797 394.775 758.04 399.837C756.541 400.588 755.319 401.796 754.553 403.286C753.515 406.108 756.169 409.027 758.981 410.064C762.179 411.27 765.69 411.017 769.057 411.523C772.423 412.03 776.031 413.61 777.214 416.806C778.843 421.232 774.993 425.682 771.253 428.564C763.741 434.336 755.298 438.782 746.287 441.709C743.053 442.759 739.674 443.651 737.032 445.774C734.389 447.896 732.712 451.695 734.172 454.746C735.632 457.798 739.578 458.907 742.932 458.364C746.287 457.822 749.34 456.169 752.586 455.096C758.619 453.07 766.281 453.733 769.925 458.931C772.339 462.356 772.339 467.011 770.999 470.991C769.415 474.867 767.063 478.382 764.085 481.327C754.225 492.242 741.641 500.346 727.62 504.807C713.647 509.077 700.808 509.933 687.245 504.53" fill="#33363F"/>
<path d="M685.205 544.955C684.879 539.251 685.048 533.776 686.352 523.609C687.958 511.713 690.714 500 694.581 488.635C699.381 474.757 704.977 461.167 711.342 447.932L716.289 437.489C717.918 434.063 719.535 430.663 721.321 427.443C724.768 421.25 728.559 415.255 732.676 409.485C736.573 403.95 740.471 398.836 744.151 394.073C747.831 389.309 751.391 384.955 754.758 381.12C760.073 375.043 765.863 369.397 772.073 364.236C774.269 362.391 776.019 361.028 777.214 360.112L778.589 359.074C778.891 358.845 779.06 358.737 779.06 358.737C778.924 358.875 778.779 359.004 778.625 359.123L777.298 360.208C776.091 361.161 774.402 362.56 772.242 364.429C766.104 369.673 760.372 375.373 755.095 381.482C751.741 385.329 748.242 389.707 744.573 394.47C740.905 399.234 737.032 404.36 733.17 409.895C729.076 415.651 725.306 421.63 721.876 427.804C720.102 431.012 718.497 434.389 716.868 437.826C715.239 441.263 713.586 444.737 711.921 448.27C705.563 461.48 699.963 475.042 695.148 488.888C691.264 500.211 688.468 511.877 686.798 523.73C685.447 533.848 684.964 539.323 685.205 545.015" fill="#E0E0E0"/>
<path d="M721.49 427.382C721.316 426.78 721.203 426.162 721.152 425.537C720.971 424.331 720.766 422.619 720.537 420.484C720.066 416.215 719.632 410.281 719.161 403.745C718.691 397.208 718.148 391.311 717.592 387.054C717.315 384.919 717.086 383.206 716.893 382.013C716.768 381.401 716.7 380.779 716.688 380.155C716.896 380.747 717.05 381.356 717.146 381.976C717.399 383.182 717.713 384.859 718.039 386.993C718.715 391.238 719.33 397.16 719.801 403.696C720.271 410.233 720.682 416.046 721.007 420.448C721.176 422.498 721.321 424.198 721.418 425.513C721.496 426.133 721.52 426.758 721.49 427.382Z" fill="#E0E0E0"/>
<path d="M777.516 418.952C777.327 419.006 777.132 419.03 776.936 419.025L775.283 419.121C773.847 419.181 771.772 419.278 769.25 419.483C764.134 419.845 757.075 420.593 749.328 421.774C741.581 422.956 734.619 424.343 729.623 425.489C727.113 426.044 725.098 426.55 723.698 426.9L722.093 427.286C721.911 427.347 721.719 427.38 721.526 427.382C721.526 427.382 721.695 427.286 722.057 427.165L723.638 426.659C725.014 426.237 727.017 425.658 729.514 425.043C734.498 423.776 741.473 422.329 749.231 421.135C756.99 419.941 764.073 419.266 769.226 419.025C771.784 418.88 773.872 418.856 775.259 418.868H776.924C777.125 418.867 777.324 418.895 777.516 418.952Z" fill="#E0E0E0"/>
<path d="M695.245 487.622C695.098 487.409 694.98 487.178 694.895 486.935L694.014 484.921C693.266 483.16 692.228 480.579 690.997 477.383C688.584 471.003 685.398 462.079 682.056 452.19C678.713 442.301 675.648 433.352 673.32 426.924C672.113 423.776 671.196 421.196 670.508 419.326C670.194 418.482 669.941 417.795 669.736 417.264C669.63 417.026 669.556 416.774 669.519 416.516C669.649 416.74 669.762 416.974 669.856 417.216L670.737 419.23C671.485 420.99 672.523 423.571 673.754 426.755C676.167 433.147 679.365 442.071 682.695 451.961C686.026 461.85 689.103 470.798 691.468 477.214C692.674 480.362 693.592 482.943 694.291 484.812C694.605 485.656 694.847 486.344 695.052 486.874C695.135 487.118 695.199 487.368 695.245 487.622Z" fill="#E0E0E0"/>
<path d="M770.01 466.553C769.769 466.66 769.519 466.745 769.262 466.806L767.09 467.433L759.078 469.677C752.308 471.582 743.005 474.332 732.724 477.395C722.443 480.458 713.104 483.136 706.298 484.933C702.895 485.837 700.144 486.537 698.226 486.983L696.017 487.489C695.766 487.563 695.507 487.607 695.245 487.622C695.485 487.512 695.736 487.427 695.993 487.369L698.165 486.742L706.178 484.498C712.947 482.593 722.25 479.843 732.531 476.78C742.812 473.717 752.152 471.039 758.957 469.242C762.348 468.338 765.111 467.639 767.03 467.192L769.238 466.686C769.489 466.612 769.749 466.568 770.01 466.553Z" fill="#E0E0E0"/>
<path d="M627.466 127.534H790.366C790.366 127.534 776.007 101.304 734.063 105.139C694.002 108.757 691.963 92.2469 671.594 90.2088C651.226 88.1707 634.248 103.788 627.466 127.534Z" fill="#33363F"/>
<path d="M517.732 172.965H607.026C607.026 172.965 599.122 158.601 576.135 160.687C554.174 162.689 553.064 153.62 541.902 152.511C530.74 151.401 521.449 159.952 517.732 172.965Z" fill="#33363F"/>
<path d="M771.543 543.496C771.543 543.665 628.686 543.81 452.512 543.81C276.339 543.81 133.458 543.665 133.458 543.496C133.458 543.327 276.327 543.182 452.5 543.182C628.674 543.182 771.543 543.315 771.543 543.496Z" fill="#263238"/>
<path d="M661.567 430.928H250.902C249.344 430.928 247.849 430.309 246.747 429.208C245.645 428.106 245.026 426.612 245.026 425.055C245.026 423.497 245.645 422.003 246.747 420.902C247.849 419.8 249.344 419.181 250.902 419.181H661.567C663.126 419.181 664.62 419.8 665.723 420.902C666.825 422.003 667.444 423.497 667.444 425.055C667.444 426.612 666.825 428.106 665.723 429.208C664.62 430.309 663.126 430.928 661.567 430.928Z" fill="#455A64"/>
<path d="M303.682 430.928H292.062V543.532H303.682V430.928Z" fill="#455A64"/>
<path d="M590.506 430.928H578.886V543.532H590.506V430.928Z" fill="#455A64"/>
<path d="M518.468 221.699C516.089 220.056 513.284 219.136 510.394 219.05C507.503 218.964 504.649 219.714 502.175 221.212C499.701 222.709 497.713 224.89 496.451 227.49C495.188 230.091 494.705 233.001 495.059 235.869C495.433 238.848 496.688 241.839 495.928 244.746C494.492 250.173 486.83 252.295 485.816 257.819C485.418 260.002 486.19 262.196 486.781 264.331C487.373 266.466 487.735 268.878 486.624 270.795C485.816 272.218 484.332 273.111 483.173 274.269C479.433 277.995 479.553 284.532 482.63 288.741C485.707 292.949 491.294 295.036 496.567 294.867C501.86 294.48 506.964 292.736 511.385 289.802" fill="#263238"/>
<path d="M513.545 223.532C514.412 221.02 515.913 218.773 517.902 217.009C519.891 215.245 522.301 214.024 524.9 213.462C530.052 212.256 536.448 210.544 541.166 212.943C544.11 214.451 546.934 216.634 548.092 219.733C549.468 223.351 547.356 230.25 546.294 234.036C545.232 237.823 544.448 242.117 546.536 245.445C548.623 248.774 552.69 249.931 555.248 252.766C556.947 254.798 557.787 257.413 557.589 260.054C557.39 262.695 556.17 265.156 554.186 266.912C558.747 266.647 562.632 271.29 562.427 275.848C562.222 280.407 558.94 284.411 554.874 286.473C550.807 288.536 546.101 288.97 541.54 288.982C535.863 288.995 530.2 288.409 524.647 287.233C520.085 286.268 515.331 284.737 512.363 281.143C509.636 277.838 508.875 273.328 508.875 269.083C508.875 253.923 516.803 238.933 513.352 224.147" fill="#263238"/>
<path d="M540.768 335.967L546.62 354.275C547.732 358.008 549.854 361.362 552.752 363.966C555.65 366.571 559.211 368.325 563.043 369.036L602.127 376.272L612.757 375.934L602.127 362.813L572.756 352.803C571.347 352.498 570.049 351.812 569.003 350.822C567.956 349.831 567.201 348.573 566.819 347.183L555.067 321.749L540.261 330.83L540.768 335.967Z" fill="#B78876"/>
<path d="M483.149 318.058C483.692 320.893 491.958 341.515 491.958 341.515C491.958 341.515 524.128 330.661 523.706 329.009C523.356 327.718 517.177 307.072 509.769 295.639C508.375 293.431 506.484 291.58 504.246 290.233C502.008 288.886 499.486 288.082 496.881 287.884C495.433 287.788 492.296 289.295 491.439 289.778C484.67 293.601 478.914 296.17 483.149 318.058Z" fill="#455A64"/>
<g filter="url(#filter0_d_230_453)">
<path d="M528.52 278.104C543.073 279.732 545.413 289.609 552.219 299.341L562.029 317.431L543.929 328.49L544.557 356.228L553.148 382.76L485.273 376.381L491.536 353.659L482.498 317.986C481.81 313.162 479.94 304.081 481.207 299.305C485.153 284.363 500.706 280.009 511.373 277.211C513.582 276.644 524.224 276.68 526.071 277.127" fill="#33363F"/>
</g>
<path d="M483.741 317.769L483.886 318.155C483.97 318.432 484.103 318.818 484.26 319.301C484.585 320.326 485.056 321.797 485.647 323.678C486.854 327.489 488.531 332.928 490.595 339.525L490.365 339.417L520.532 328.273L521.28 327.96L521.159 328.213C519.329 321.419 516.96 314.781 514.076 308.362C511.844 303.081 508.817 298.172 505.099 293.806C503.645 292.163 501.928 290.773 500.019 289.693C498.585 288.869 496.977 288.393 495.325 288.306C495.007 288.289 494.689 288.289 494.371 288.306L493.527 288.391L492.815 288.475L492.236 288.632L491.439 288.837L491.162 288.897C491.243 288.848 491.333 288.816 491.427 288.801L492.212 288.548L492.791 288.379C493.03 288.327 493.271 288.291 493.515 288.27L494.359 288.162C494.685 288.138 495.011 288.138 495.337 288.162C497.03 288.221 498.685 288.685 500.163 289.512C502.107 290.584 503.857 291.975 505.34 293.625C509.12 297.987 512.197 302.91 514.462 308.217C517.375 314.651 519.76 321.309 521.594 328.128V328.309L521.425 328.382L520.665 328.695C509.346 332.928 498.848 336.691 490.414 339.766L490.245 339.839V339.658C488.254 333.037 486.625 327.598 485.418 323.763C484.851 321.869 484.416 320.386 484.115 319.349C483.97 318.866 483.861 318.48 483.777 318.143C483.756 318.019 483.744 317.894 483.741 317.769Z" fill="#263238"/>
<path d="M520.073 324.112C520.073 324.221 513.135 326.633 504.495 329.491C495.856 332.349 488.809 334.581 488.809 334.46C488.809 334.339 495.747 331.939 504.399 329.081C513.051 326.223 520.001 323.992 520.073 324.112Z" fill="#263238"/>
<g opacity="0.3">
<path d="M492.067 339.031C493.377 344.937 495.074 350.75 497.147 356.433C498.445 360.047 500.293 363.44 502.625 366.491C506.074 370.466 510.675 373.269 515.79 374.511C520.877 375.74 526.15 375.998 531.332 375.271L505.497 360.678L498.619 336.812L492.067 339.031Z" fill="black"/>
</g>
<path d="M495.035 337.68L501.406 358.52C502.507 362.272 504.623 365.648 507.521 368.276C510.419 370.904 513.986 372.682 517.829 373.414L556.913 380.831L567.544 380.493L556.913 367.167L527.531 357.036C526.115 356.719 524.814 356.02 523.769 355.014C522.724 354.008 521.976 352.734 521.606 351.332L516.164 330.36L495.035 337.68Z" fill="#B78876"/>
<path d="M544.617 355.505C544.513 354.854 544.452 354.198 544.436 353.539C544.376 352.152 544.279 350.343 544.171 348.148C543.978 343.601 543.76 337.294 543.543 330.384C543.326 323.473 543.181 317.118 543.097 312.607C543.097 310.412 543.097 308.603 543.036 307.216C543.008 306.557 543.028 305.896 543.097 305.239C543.217 305.887 543.277 306.545 543.278 307.204C543.35 308.591 543.435 310.4 543.543 312.595C543.736 317.142 543.966 323.449 544.171 330.36C544.376 337.27 544.545 343.626 544.617 348.136C544.617 350.331 544.617 352.152 544.69 353.527C544.727 354.187 544.703 354.849 544.617 355.505Z" fill="#263238"/>
<g opacity="0.3">
<path d="M540.309 337.68C541.021 338.138 539.187 342.227 535.386 346.122C531.585 350.017 527.555 351.947 527.084 351.235C526.614 350.524 529.594 347.617 533.118 343.927C536.641 340.237 539.561 337.21 540.309 337.68Z" fill="black"/>
</g>
<path d="M559.411 312.619C556.984 314.396 554.44 316.008 551.797 317.443C549.255 319.059 546.601 320.494 543.857 321.737C548.821 318.334 554.019 315.283 559.411 312.607V312.619Z" fill="#263238"/>
<path d="M516.14 313.849C516.14 313.91 515.657 313.777 514.824 313.849C513.637 313.96 512.498 314.375 511.518 315.055C510.055 316.066 508.728 317.262 507.572 318.613C506.134 320.368 504.219 321.67 502.058 322.364C499.645 322.906 497.352 322.062 495.433 321.52C493.785 320.889 492.009 320.67 490.257 320.88C489.094 321.083 488.044 321.7 487.3 322.617C487.06 322.981 486.85 323.364 486.673 323.763C486.673 323.763 486.673 323.63 486.673 323.401C486.761 323.072 486.899 322.759 487.083 322.472C487.804 321.431 488.896 320.706 490.136 320.446C491.964 320.156 493.835 320.33 495.578 320.953C497.509 321.483 499.693 322.255 501.889 321.761C503.935 321.084 505.752 319.853 507.138 318.203C508.347 316.844 509.736 315.655 511.265 314.67C512.322 313.999 513.548 313.64 514.8 313.632C515.135 313.631 515.468 313.675 515.79 313.765C516.031 313.789 516.152 313.825 516.14 313.849Z" fill="#FAFAFA"/>
<path d="M544.207 309.411C543.813 309.3 543.409 309.232 543 309.206C541.898 309.288 540.848 309.709 539.996 310.412C539.417 310.81 538.789 311.317 538.089 311.787C537.309 312.304 536.422 312.638 535.495 312.764C533.383 312.941 531.264 312.523 529.377 311.558C527.575 310.603 525.718 309.757 523.814 309.025C522.284 308.458 520.61 308.407 519.048 308.881C517.988 309.188 517.056 309.831 516.393 310.714C515.959 311.341 515.85 311.787 515.79 311.775C515.73 311.763 515.79 311.655 515.79 311.45C515.866 311.143 515.988 310.851 516.152 310.581C516.779 309.579 517.741 308.832 518.867 308.471C520.516 307.895 522.311 307.895 523.959 308.471C525.899 309.177 527.786 310.019 529.606 310.991C531.384 311.908 533.378 312.325 535.374 312.197C536.98 311.862 538.472 311.118 539.706 310.039C540.643 309.33 541.79 308.957 542.964 308.977C543.285 308.994 543.598 309.08 543.881 309.231C544.074 309.315 544.207 309.387 544.207 309.411Z" fill="#FAFAFA"/>
<path d="M542.638 315.441C543.403 315.247 544.143 314.968 544.846 314.609C546.422 313.513 547.777 312.13 548.84 310.533C549.971 308.862 551.558 307.552 553.414 306.758C553.796 306.599 554.206 306.517 554.62 306.517C555.035 306.517 555.445 306.599 555.827 306.758C555.042 306.783 554.265 306.926 553.522 307.18C551.819 308.058 550.363 309.347 549.287 310.931C548.184 312.593 546.725 313.99 545.015 315.019C544.301 315.446 543.456 315.596 542.638 315.441Z" fill="#FAFAFA"/>
<path d="M650.249 516.506L650.056 504.229L627.044 504.446L627.141 522.415L628.565 522.487C634.924 522.777 660.891 523.537 665.127 522.21C669.845 520.727 650.249 516.506 650.249 516.506Z" fill="#33363F"/>
<g opacity="0.4">
<path d="M659.829 518.918C659.829 518.918 666.695 520.823 665.863 521.957C665.03 523.09 638.749 523.32 627.153 522.415V521.897H657.802C657.802 521.897 658.49 518.978 659.829 518.918Z" fill="white"/>
</g>
<path d="M626.803 521.885H627.201L628.335 521.945L632.523 522.09C636.058 522.186 640.969 522.258 646.339 522.21C651.709 522.162 656.62 522.029 660.143 521.872L664.33 521.667L665.465 521.583C665.597 521.602 665.731 521.602 665.863 521.583H665.465H664.258L660.083 521.704C656.547 521.8 651.636 521.921 646.279 521.957C640.921 521.993 635.998 521.957 632.474 521.957H628.287H626.743L626.803 521.885Z" fill="#263238"/>
<path d="M657.814 522.198C657.993 521.505 658.248 520.833 658.574 520.196C658.981 519.608 659.455 519.07 659.986 518.592C659.276 518.857 658.691 519.377 658.345 520.051C657.911 520.678 657.722 521.442 657.814 522.198Z" fill="#263238"/>
<path d="M650.997 518.869C650.997 518.869 651.383 518.508 651.709 517.977C652.035 517.446 652.264 516.976 652.191 516.94C652.119 516.904 651.805 517.302 651.48 517.832C651.154 518.363 650.937 518.821 650.997 518.869Z" fill="#263238"/>
<path d="M649.187 517.893C649.187 517.953 649.597 517.712 649.995 517.35C650.393 516.988 650.659 516.65 650.611 516.59C650.562 516.53 650.2 516.783 649.802 517.145C649.404 517.507 649.078 517.844 649.187 517.893Z" fill="#263238"/>
<path d="M647.98 515.734C647.98 515.818 648.511 515.879 649.187 515.879C649.594 515.92 650.005 515.875 650.393 515.746C650.008 515.602 649.595 515.553 649.187 515.601C648.78 515.557 648.368 515.602 647.98 515.734Z" fill="#263238"/>
<path d="M647.509 514.214C647.927 514.43 648.385 514.557 648.854 514.588C649.323 514.619 649.794 514.554 650.236 514.395C649.327 514.343 648.418 514.283 647.509 514.214Z" fill="#263238"/>
<path d="M651.757 516.855C652.248 516.938 652.75 516.938 653.241 516.855C653.774 516.784 654.299 516.663 654.81 516.494C655.121 516.403 655.42 516.278 655.703 516.12C655.879 516.015 656.008 515.846 656.065 515.649C656.087 515.539 656.077 515.425 656.036 515.321C655.995 515.216 655.926 515.125 655.835 515.058C655.268 514.789 654.625 514.725 654.015 514.877C653.406 515.029 652.868 515.387 652.493 515.891C652.266 516.182 652.106 516.52 652.022 516.88C651.991 517.01 651.991 517.147 652.022 517.278C652.171 516.84 652.396 516.431 652.686 516.072C653.001 515.685 653.419 515.396 653.893 515.239C654.179 515.14 654.482 515.099 654.784 515.117C655.087 515.136 655.382 515.214 655.654 515.348C655.896 515.517 655.799 515.794 655.546 515.951C655.281 516.098 655.002 516.219 654.713 516.313C654.217 516.486 653.709 516.623 653.193 516.723C652.324 516.795 651.757 516.807 651.757 516.855Z" fill="#263238"/>
<path d="M652.143 516.928C652.325 516.614 652.381 516.244 652.3 515.891C652.255 515.504 652.114 515.135 651.89 514.817C651.766 514.603 651.591 514.423 651.38 514.293C651.17 514.162 650.93 514.086 650.683 514.07C650.534 514.104 650.403 514.195 650.318 514.322C650.232 514.45 650.199 514.606 650.225 514.757C650.266 514.994 650.357 515.22 650.49 515.42C650.686 515.745 650.921 516.045 651.19 516.313C651.423 516.576 651.717 516.779 652.047 516.904C652.047 516.904 651.745 516.638 651.335 516.168C651.095 515.898 650.884 515.603 650.707 515.288C650.502 514.974 650.357 514.419 650.707 514.347C651.057 514.275 651.455 514.673 651.685 514.974C651.893 515.257 652.037 515.582 652.107 515.927C652.151 516.259 652.163 516.594 652.143 516.928Z" fill="#263238"/>
<path d="M627.226 515.589C627.226 515.589 627.877 515.517 628.927 515.589C630.282 515.728 631.57 516.247 632.644 517.085C633.732 517.923 634.567 519.045 635.057 520.329C635.407 521.318 635.455 521.981 635.503 521.969C635.527 521.817 635.527 521.662 635.503 521.511C635.455 521.101 635.366 520.697 635.238 520.305C634.814 518.956 633.991 517.767 632.877 516.895C631.763 516.023 630.411 515.509 628.999 515.42C628.578 515.379 628.154 515.379 627.732 515.42C627.382 515.529 627.226 515.565 627.226 515.589Z" fill="#263238"/>
<path d="M629.53 506.001C629.374 507.568 629.318 509.143 629.361 510.717C629.318 512.294 629.358 513.872 629.482 515.444C629.638 513.874 629.695 512.295 629.651 510.717C629.695 509.144 629.654 507.57 629.53 506.001Z" fill="#263238"/>
<path d="M638.327 519.882C639.431 520.126 640.563 520.227 641.693 520.184C642.823 520.235 643.955 520.138 645.06 519.895C645.06 519.81 643.552 519.895 641.693 519.895C639.835 519.895 638.327 519.786 638.327 519.882Z" fill="#263238"/>
<path d="M633.85 519.919C633.85 519.979 633.971 520.232 634.128 520.582C634.285 520.932 634.369 521.221 634.453 521.221C634.538 521.221 634.562 520.859 634.381 520.461C634.2 520.063 633.898 519.858 633.85 519.919Z" fill="#263238"/>
<path d="M632.125 517.82C632.125 517.82 632.221 518.11 632.462 518.351C632.704 518.592 632.945 518.737 632.993 518.689C633.042 518.64 632.897 518.387 632.655 518.146C632.414 517.905 632.185 517.76 632.125 517.82Z" fill="#263238"/>
<path d="M629.687 516.867C629.687 516.952 630.013 516.94 630.351 517.06C630.689 517.181 630.93 517.35 630.99 517.302C631.051 517.253 630.858 516.928 630.435 516.795C630.013 516.662 629.663 516.807 629.687 516.867Z" fill="#263238"/>
<path d="M627.949 516.433C627.949 516.506 628.058 516.626 628.251 516.699C628.444 516.771 628.613 516.771 628.649 516.699C628.685 516.626 628.54 516.506 628.347 516.433C628.154 516.361 627.973 516.361 627.949 516.433Z" fill="#263238"/>
<g opacity="0.3">
<path d="M627.25 514.974L650.237 514.395L650.176 511.621L627.081 511.983L627.25 514.974Z" fill="black"/>
</g>
<path d="M556.913 383.797L624.149 385.003C629.359 385.103 634.357 387.082 638.222 390.575C642.087 394.068 644.559 398.839 645.181 404.01L658.514 512.309H622.001L610.839 418.771H557.818L556.913 383.797Z" fill="#263238"/>
<path d="M658.056 505.411C658.056 505.579 650.055 505.772 640.197 505.833C630.338 505.893 622.326 505.833 622.326 505.64C622.326 505.447 630.314 505.266 640.185 505.206C650.055 505.145 658.056 505.242 658.056 505.411Z" fill="#455A64"/>
<path d="M493.877 419.181C467.04 410.305 485.358 374.391 485.358 374.391L602.658 385.413C604.897 385.398 607.117 385.825 609.19 386.671C611.263 387.516 613.148 388.764 614.737 390.341C616.325 391.919 617.585 393.795 618.445 395.861C619.304 397.928 619.746 400.144 619.744 402.382C619.746 404.609 619.308 406.815 618.456 408.873C617.604 410.931 616.354 412.801 614.779 414.375C613.203 415.95 611.332 417.199 609.273 418.051C607.214 418.902 605.007 419.34 602.778 419.338L493.877 419.181Z" fill="#263238"/>
<path d="M529.654 381.12L529.992 378.588L560.014 377.406L574.747 340.273L630.882 344.084L611.937 385.305L529.654 381.12Z" fill="#455A64"/>
<path d="M596.842 364.357C596.531 364.85 596.082 365.24 595.55 365.477C595.018 365.715 594.427 365.789 593.853 365.691C593.278 365.593 592.746 365.326 592.323 364.926C591.9 364.525 591.606 364.008 591.477 363.44C591.349 362.872 591.392 362.278 591.601 361.734C591.81 361.191 592.176 360.721 592.652 360.386C593.128 360.05 593.693 359.863 594.276 359.849C594.858 359.834 595.432 359.993 595.925 360.305C596.583 360.721 597.049 361.382 597.221 362.141C597.393 362.901 597.256 363.697 596.842 364.357Z" fill="white"/>
<path d="M518.288 380.384C518.403 380.363 518.522 380.363 518.638 380.384H519.663L523.585 380.541L538.065 381.217L585.656 383.629C587.973 383.737 590.277 383.93 592.534 383.954C594.79 383.978 597.035 384.075 599.231 384.207C601.427 384.34 603.587 384.485 605.686 384.702C607.773 384.837 609.834 385.242 611.816 385.908C613.711 386.577 615.448 387.628 616.921 388.995C618.287 390.316 619.346 391.922 620.022 393.699C620.616 395.34 621.021 397.043 621.228 398.776C621.457 400.374 621.57 401.986 621.566 403.6C621.609 406.382 621.058 409.14 619.949 411.692C619.08 413.607 617.774 415.292 616.136 416.613C615.099 417.436 613.922 418.065 612.661 418.47C612.222 418.61 611.769 418.699 611.31 418.735C611.31 418.735 611.78 418.639 612.625 418.349C613.848 417.909 614.984 417.255 615.979 416.42C617.537 415.107 618.775 413.458 619.599 411.596C620.654 409.082 621.164 406.373 621.096 403.648C621.086 402.065 620.961 400.485 620.722 398.921C620.511 397.228 620.106 395.564 619.515 393.964C618.869 392.261 617.851 390.725 616.534 389.466C615.108 388.164 613.434 387.163 611.611 386.523C609.662 385.858 607.633 385.453 605.578 385.317C603.49 385.112 601.342 384.967 599.146 384.847C596.95 384.726 594.73 384.642 592.473 384.605C590.217 384.569 587.912 384.388 585.583 384.28L537.992 381.627L523.512 380.746L519.591 380.481L518.577 380.397L518.288 380.384Z" fill="#455A64"/>
<path d="M503.94 225.86L504.013 229.478L504.737 283.422C504.821 289.693 517.696 296.182 524.405 296.037C531.175 295.892 528.762 288.692 529.232 282.771C529.582 278.237 529.638 273.685 529.401 269.143C529.401 269.143 537.956 267.72 539.73 256.552C540.611 251.005 540.333 241.899 539.863 234.458C539.764 232.871 539.345 231.32 538.631 229.899C537.916 228.478 536.921 227.216 535.706 226.189C534.49 225.163 533.08 224.393 531.559 223.926C530.037 223.459 528.437 223.304 526.855 223.472L503.94 225.86Z" fill="#B78876"/>
<path d="M536.967 241.646C536.97 242.021 536.827 242.382 536.568 242.652C536.308 242.922 535.954 243.081 535.579 243.093C535.397 243.108 535.214 243.086 535.041 243.029C534.867 242.972 534.707 242.88 534.57 242.76C534.432 242.639 534.321 242.493 534.241 242.328C534.162 242.164 534.116 241.985 534.107 241.803C534.104 241.431 534.245 241.071 534.502 240.801C534.759 240.531 535.11 240.371 535.483 240.356C535.665 240.341 535.849 240.363 536.023 240.42C536.197 240.477 536.358 240.569 536.496 240.689C536.635 240.809 536.747 240.956 536.828 241.12C536.909 241.284 536.956 241.463 536.967 241.646Z" fill="#263238"/>
<path d="M537.944 239.162C537.763 239.343 536.677 238.547 535.133 238.547C533.588 238.547 532.466 239.319 532.297 239.138C532.128 238.957 532.394 238.716 532.888 238.354C533.554 237.892 534.346 237.648 535.157 237.654C535.96 237.648 536.743 237.902 537.389 238.378C537.872 238.788 538.029 239.077 537.944 239.162Z" fill="#263238"/>
<path d="M521.944 241.646C521.95 242.02 521.81 242.381 521.553 242.651C521.295 242.922 520.942 243.081 520.568 243.093C520.385 243.11 520.201 243.089 520.026 243.033C519.851 242.976 519.69 242.885 519.551 242.764C519.412 242.644 519.3 242.496 519.219 242.331C519.139 242.166 519.093 241.986 519.084 241.803C519.081 241.431 519.222 241.071 519.479 240.801C519.736 240.531 520.087 240.371 520.46 240.356C520.642 240.341 520.826 240.363 521 240.42C521.174 240.477 521.335 240.569 521.473 240.689C521.612 240.809 521.725 240.956 521.805 241.12C521.886 241.284 521.933 241.463 521.944 241.646Z" fill="#263238"/>
<path d="M522.788 239.451C522.607 239.632 521.521 238.836 519.977 238.836C518.432 238.836 517.31 239.608 517.141 239.427C516.972 239.246 517.238 239.005 517.732 238.643C518.402 238.18 519.199 237.935 520.013 237.944C520.815 237.941 521.597 238.195 522.245 238.667C522.716 239.029 522.873 239.367 522.788 239.451Z" fill="#263238"/>
<path d="M528.387 250.848C529.197 250.594 530.037 250.444 530.885 250.402C531.283 250.402 531.657 250.281 531.718 250.016C531.761 249.596 531.668 249.173 531.452 248.81C531.09 247.857 530.692 246.856 530.245 245.807C529.167 243.271 528.291 240.654 527.627 237.98C528.913 240.425 529.999 242.97 530.873 245.59L531.983 248.593C532.231 249.067 532.303 249.614 532.188 250.136C532.13 250.276 532.042 250.4 531.929 250.5C531.816 250.601 531.682 250.674 531.537 250.715C531.321 250.778 531.098 250.811 530.873 250.812C530.049 250.927 529.214 250.939 528.387 250.848Z" fill="#263238"/>
<path d="M529.449 269.107C524.188 269.186 519.008 267.804 514.486 265.115C514.486 265.115 518.106 272.785 529.292 271.736L529.449 269.107Z" fill="#AA6550"/>
<path d="M527.736 254.587C527.442 254.216 527.058 253.928 526.621 253.748C526.183 253.569 525.707 253.505 525.238 253.562C524.898 253.589 524.568 253.685 524.267 253.845C523.966 254.005 523.701 254.224 523.488 254.49C523.28 254.748 523.157 255.063 523.135 255.394C523.114 255.724 523.195 256.053 523.368 256.335C523.616 256.609 523.94 256.804 524.298 256.894C524.657 256.984 525.035 256.966 525.383 256.842C526.117 256.577 526.79 256.167 527.362 255.636C527.531 255.508 527.677 255.353 527.796 255.178C527.855 255.093 527.887 254.992 527.887 254.888C527.887 254.785 527.855 254.684 527.796 254.599" fill="#AA6550"/>
<path d="M523.85 251.933C524.092 251.933 524.104 253.598 525.528 254.78C526.951 255.961 528.749 255.793 528.761 255.986C528.774 256.179 528.363 256.311 527.555 256.335C526.576 256.345 525.624 256.012 524.864 255.395C524.13 254.793 523.662 253.926 523.561 252.983C523.549 252.343 523.693 251.933 523.85 251.933Z" fill="#263238"/>
<path d="M513.027 220.698C513.027 220.565 513.207 220.493 513.304 220.529C513.4 220.565 513.424 220.71 513.376 220.842C513.328 220.975 513.195 221.047 513.099 221.011C513.048 220.979 513.012 220.928 512.999 220.869C512.985 220.81 512.995 220.749 513.027 220.698Z" fill="#263238"/>
<path d="M503.361 278.682C505 278.059 506.485 277.09 507.715 275.841C508.946 274.592 509.893 273.094 510.492 271.446C511.663 268.13 511.747 264.527 510.734 261.159C510.287 259.604 509.66 257.903 510.347 256.444C510.979 255.457 511.799 254.605 512.761 253.935C514.68 252.084 515.815 249.567 515.934 246.904C516.03 244.255 515.544 241.616 514.51 239.174C513.98 237.823 513.304 236.352 513.823 234.977C514.27 234.031 514.936 233.204 515.765 232.565C517.358 231.08 518.673 229.324 519.651 227.379C520.063 226.727 520.325 225.992 520.416 225.226C520.508 224.46 520.428 223.684 520.182 222.953C519.373 221.277 517.262 220.746 515.355 220.614C510.939 220.276 506.052 221.253 503.288 224.678C500.766 227.741 500.477 232.022 500.296 235.99C499.741 248.496 499.186 261.123 501.346 273.46" fill="#263238"/>
<path d="M544.207 224.618C543.593 225.001 542.956 225.347 542.3 225.655C541.726 226.079 541.186 226.547 540.683 227.054C540.406 227.331 540.092 227.645 539.815 227.958C539.73 228.043 539.694 228.127 539.609 228.211L539.296 228.525L538.511 229.261C537.759 229.952 536.952 230.581 536.098 231.142C534.836 231.994 533.429 232.611 531.947 232.963C529.095 233.58 526.118 233.215 523.5 231.926C521.685 231.053 520.092 229.779 518.843 228.199C516.948 225.667 516.647 223.617 517.527 222.495C518.408 221.373 520.604 221.542 523.066 222.145C524.258 222.457 525.466 222.699 526.686 222.869C527.652 223.01 528.636 222.986 529.594 222.796C530.06 222.683 530.513 222.521 530.946 222.314C531.573 222.037 532.357 221.615 533.25 221.193C533.709 220.975 534.179 220.758 534.698 220.565L535.471 220.288C535.748 220.192 536.062 220.083 536.351 220.011C537.447 219.736 538.581 219.646 539.706 219.745C540.597 219.785 541.469 220.022 542.258 220.439C543.046 220.856 543.733 221.443 544.267 222.157C544.955 223.291 544.677 224.171 544.207 224.618Z" fill="#263238"/>
<path d="M523.187 233.409C523.03 233.831 521.497 233.626 519.687 233.843C517.877 234.061 516.417 234.555 516.176 234.181C516.067 234 516.321 233.614 516.912 233.204C517.694 232.693 518.588 232.379 519.518 232.288C520.444 232.183 521.382 232.295 522.257 232.613C522.921 232.879 523.247 233.216 523.187 233.409Z" fill="#263238"/>
<path d="M537.377 234.7C537.1 235.049 536.038 234.7 534.759 234.7C533.48 234.7 532.406 234.929 532.152 234.567C532.044 234.386 532.213 234.036 532.695 233.699C533.331 233.306 534.068 233.109 534.815 233.133C535.562 233.156 536.285 233.399 536.894 233.831C537.341 234.169 537.498 234.531 537.377 234.7Z" fill="#263238"/>
<path d="M207.462 397.679L219.384 394.688L225.116 416.962L207.728 421.521L207.281 420.158C205.363 414.128 197.93 389.212 198.111 384.786C198.328 379.89 207.462 397.679 207.462 397.679Z" fill="#33363F"/>
<g opacity="0.4">
<path d="M202.72 389.044C202.72 389.044 199.1 382.905 198.219 384.015C197.338 385.124 203.902 410.547 207.776 421.521L208.271 421.352L200.307 391.757C200.307 391.757 202.949 390.358 202.72 389.044Z" fill="white"/>
</g>
<path d="M208.319 421.702C208.26 421.583 208.216 421.457 208.186 421.328C208.078 421.003 207.957 420.641 207.836 420.243C207.498 419.157 207.088 417.831 206.63 416.239C205.628 412.85 204.301 408.159 202.949 402.973C201.598 397.787 200.536 392.999 199.715 389.55L198.834 385.462C198.762 385.04 198.69 384.678 198.617 384.34C198.545 384.002 198.557 383.954 198.557 383.954C198.613 384.073 198.653 384.199 198.678 384.328C198.75 384.666 198.846 385.028 198.943 385.438C199.208 386.547 199.522 387.85 199.908 389.502C200.717 392.939 201.875 397.691 203.215 402.9C204.554 408.11 205.869 412.826 206.835 416.227C207.281 417.807 207.667 419.157 207.969 420.243C208.078 420.653 208.186 421.015 208.271 421.352C208.297 421.467 208.314 421.584 208.319 421.702Z" fill="#263238"/>
<path d="M199.957 391.854C200.583 391.517 201.17 391.113 201.707 390.648C202.184 390.107 202.59 389.507 202.913 388.863C202.793 389.608 202.447 390.298 201.923 390.841C201.399 391.384 200.722 391.754 199.981 391.902L199.957 391.854Z" fill="#263238"/>
<path d="M205.001 397.558C205.001 397.558 205.242 397.1 205.665 396.641C206.087 396.183 206.485 395.857 206.546 395.906C206.606 395.954 206.304 396.376 205.87 396.834C205.435 397.293 205.049 397.618 205.001 397.558Z" fill="#263238"/>
<path d="M206.412 399.186C206.352 399.186 206.485 398.728 206.738 398.257C206.992 397.787 207.233 397.437 207.305 397.474C207.378 397.51 207.233 397.92 206.98 398.39C206.726 398.86 206.485 399.186 206.412 399.186Z" fill="#263238"/>
<path d="M208.814 399.717C208.43 399.003 208.216 398.211 208.187 397.401C208.42 397.736 208.572 398.12 208.633 398.523C208.778 398.903 208.84 399.31 208.814 399.717Z" fill="#263238"/>
<path d="M210.395 399.729C210.043 399.406 209.795 398.986 209.683 398.523C209.488 398.092 209.429 397.613 209.514 397.148C209.702 397.562 209.848 397.995 209.948 398.438C210.143 398.851 210.293 399.284 210.395 399.729Z" fill="#263238"/>
<path d="M206.739 396.304C206.544 395.848 206.426 395.363 206.389 394.869C206.337 394.335 206.337 393.798 206.389 393.265C206.394 392.939 206.439 392.615 206.521 392.3C206.573 392.104 206.698 391.935 206.871 391.829C206.972 391.781 207.084 391.762 207.196 391.775C207.307 391.788 207.412 391.832 207.499 391.902C207.908 392.377 208.139 392.98 208.153 393.607C208.166 394.235 207.96 394.847 207.571 395.339C207.348 395.633 207.064 395.876 206.739 396.05C206.625 396.123 206.498 396.173 206.365 396.195C206.764 395.932 207.119 395.606 207.414 395.23C207.708 394.807 207.876 394.31 207.897 393.795C207.931 393.186 207.732 392.588 207.342 392.119C207.113 391.938 206.859 392.119 206.775 392.384C206.706 392.678 206.662 392.976 206.642 393.277C206.6 393.802 206.6 394.331 206.642 394.857C206.654 395.749 206.787 396.292 206.739 396.304Z" fill="#263238"/>
<path d="M206.582 395.954C206.844 395.709 207.188 395.572 207.547 395.568C207.953 395.509 208.367 395.551 208.754 395.689C208.996 395.756 209.219 395.882 209.4 396.057C209.581 396.232 209.716 396.449 209.791 396.69C209.795 396.844 209.739 396.993 209.636 397.108C209.533 397.222 209.39 397.292 209.236 397.305C209 397.325 208.763 397.301 208.536 397.232C208.172 397.125 207.823 396.971 207.499 396.774C207.187 396.615 206.915 396.389 206.702 396.111C206.702 396.111 207.04 396.328 207.595 396.605C207.919 396.765 208.259 396.891 208.609 396.979C208.959 397.1 209.538 397.088 209.502 396.714C209.465 396.34 208.995 396.075 208.657 395.93C208.326 395.803 207.973 395.746 207.619 395.761C207.268 395.795 206.921 395.86 206.582 395.954Z" fill="#263238"/>
<path d="M214.304 419.688C214.304 419.688 214.196 419.025 213.822 418.06C213.337 416.783 212.501 415.67 211.41 414.848C210.318 414.027 209.017 413.53 207.656 413.417C206.618 413.332 205.966 413.417 205.966 413.417C206.108 413.355 206.259 413.319 206.413 413.308C206.831 413.234 207.256 413.21 207.68 413.236C209.092 413.299 210.451 413.788 211.58 414.638C212.709 415.488 213.553 416.66 214.003 418C214.137 418.392 214.234 418.795 214.292 419.206C214.316 419.365 214.32 419.527 214.304 419.688Z" fill="#263238"/>
<path d="M222.98 414.973C221.5 415.518 219.989 415.977 218.455 416.347C216.944 416.814 215.405 417.18 213.846 417.445C215.339 416.902 216.862 416.443 218.407 416.07C219.909 415.618 221.436 415.251 222.98 414.973Z" fill="#263238"/>
<path d="M207.269 410.04C206.306 407.999 205.718 405.801 205.532 403.552C205.616 403.552 205.894 405.011 206.376 406.808C206.859 408.605 207.354 410.04 207.269 410.04Z" fill="#263238"/>
<path d="M208.403 414.394C208.403 414.466 208.065 414.394 207.691 414.297C207.317 414.201 207.004 414.225 206.992 414.153C206.979 414.08 207.317 413.947 207.74 414.02C208.162 414.092 208.452 414.333 208.403 414.394Z" fill="#263238"/>
<path d="M210.877 415.515C210.877 415.515 210.576 415.515 210.274 415.322C209.972 415.129 209.779 414.96 209.815 414.9C209.852 414.84 210.129 414.9 210.419 415.081C210.708 415.262 210.913 415.443 210.877 415.515Z" fill="#263238"/>
<path d="M212.373 417.626C212.289 417.626 212.216 417.336 212.023 417.035C211.83 416.733 211.589 416.54 211.625 416.48C211.661 416.42 212.011 416.48 212.253 416.878C212.494 417.276 212.494 417.626 212.373 417.626Z" fill="#263238"/>
<path d="M213.302 419.182C213.23 419.182 213.085 419.182 212.965 418.964C212.844 418.747 212.808 418.627 212.868 418.579C212.928 418.53 213.073 418.639 213.194 418.808C213.314 418.977 213.363 419.145 213.302 419.182Z" fill="#263238"/>
<g opacity="0.3">
<path d="M214.895 419.483L209.514 397.148L212.205 396.485L217.828 418.868L214.895 419.483Z" fill="black"/>
</g>
<path d="M217.659 420.725L307.278 412.452L441.592 415.455L413.344 384.714L316.907 380.095L210.479 390.141L217.659 420.725Z" fill="#263238"/>
<path d="M232.163 403.298C231.256 403.731 230.271 403.973 229.267 404.01C228.263 404.21 227.23 404.21 226.226 404.01C228.167 403.361 230.221 403.119 232.259 403.298H232.163Z" fill="#455A64"/>
<path d="M244.157 402.044C243.219 402.446 242.21 402.656 241.189 402.659C240.19 402.865 239.159 402.865 238.16 402.659C240.107 402.037 242.162 401.832 244.193 402.056L244.157 402.044Z" fill="#455A64"/>
<path d="M256.176 400.971C255.233 401.368 254.218 401.561 253.195 401.538C252.196 401.74 251.166 401.74 250.167 401.538C251.109 401.139 252.124 400.942 253.147 400.959C254.147 400.763 255.177 400.767 256.176 400.971Z" fill="#455A64"/>
<path d="M268.206 400.09C266.245 400.643 264.192 400.787 262.173 400.513C263.118 400.129 264.134 399.949 265.153 399.982C266.167 399.806 267.207 399.843 268.206 400.09Z" fill="#455A64"/>
<path d="M280.248 399.379C279.295 399.745 278.276 399.909 277.256 399.861C276.247 400.019 275.216 399.97 274.227 399.717C275.18 399.351 276.199 399.187 277.22 399.234C278.229 399.076 279.259 399.125 280.248 399.379Z" fill="#455A64"/>
<path d="M292.303 398.86C290.331 399.36 288.275 399.442 286.27 399.102C287.225 398.745 288.245 398.597 289.262 398.667C290.278 398.515 291.314 398.581 292.303 398.86Z" fill="#455A64"/>
<path d="M304.37 398.511C303.403 398.834 302.382 398.966 301.365 398.897C300.35 399.025 299.319 398.943 298.336 398.655C299.301 398.325 300.324 398.193 301.341 398.27C302.356 398.135 303.389 398.217 304.37 398.511Z" fill="#455A64"/>
<path d="M316.436 398.33C315.464 398.644 314.438 398.763 313.419 398.68C312.405 398.793 311.377 398.694 310.403 398.39C312.393 397.98 314.446 397.98 316.436 398.39V398.33Z" fill="#455A64"/>
<path d="M328.503 398.33C327.529 398.635 326.502 398.737 325.486 398.631C324.469 398.737 323.441 398.626 322.47 398.306C324.459 397.888 326.514 397.888 328.503 398.306V398.33Z" fill="#455A64"/>
<path d="M340.57 398.511C339.588 398.797 338.558 398.883 337.541 398.764C336.526 398.849 335.503 398.726 334.537 398.402C335.513 398.106 336.54 398.016 337.553 398.137C338.574 398.054 339.601 398.181 340.57 398.511Z" fill="#455A64"/>
<path d="M352.624 398.86C351.639 399.132 350.609 399.206 349.595 399.077C348.577 399.137 347.556 398.998 346.591 398.667C347.574 398.382 348.606 398.308 349.62 398.45C350.639 398.38 351.661 398.52 352.624 398.86Z" fill="#455A64"/>
<path d="M364.679 399.403C363.69 399.657 362.66 399.71 361.65 399.56C360.631 399.622 359.611 399.466 358.658 399.102C359.646 398.846 360.676 398.789 361.686 398.933C362.706 398.877 363.726 399.037 364.679 399.403Z" fill="#455A64"/>
<path d="M376.721 400.115C374.705 400.407 372.65 400.276 370.688 399.729C371.684 399.492 372.717 399.451 373.729 399.608C374.75 399.575 375.768 399.747 376.721 400.115Z" fill="#455A64"/>
<path d="M388.764 401.031C386.741 401.293 384.686 401.128 382.73 400.549C383.725 400.322 384.755 400.297 385.759 400.476C386.788 400.45 387.812 400.639 388.764 401.031Z" fill="#455A64"/>
<path d="M395.135 401.598C395.135 401.779 395.027 401.912 394.918 401.9C394.81 401.887 394.749 401.743 394.773 401.562C394.797 401.381 394.882 401.26 394.978 401.272C395.075 401.284 395.147 401.417 395.135 401.598Z" fill="#455A64"/>
<path d="M224.838 419.821C224.61 419.478 224.431 419.104 224.307 418.711C224.006 417.988 223.595 416.914 223.101 415.576C222.147 412.922 220.941 409.196 219.818 405.011C218.696 400.826 217.912 397.003 217.405 394.217C217.164 392.818 216.983 391.697 216.886 390.901C216.802 390.505 216.773 390.099 216.802 389.695C217.231 391.162 217.577 392.651 217.84 394.157C218.443 396.919 219.312 400.718 220.422 404.878C221.532 409.039 222.666 412.766 223.511 415.467C224.032 416.893 224.475 418.347 224.838 419.821Z" fill="#455A64"/>
<path d="M280.743 412.235L282.614 400.091L305.384 403.455L302.874 421.244L301.45 421.123C295.115 420.544 269.28 417.734 265.25 415.841C260.749 413.718 280.743 412.235 280.743 412.235Z" fill="#33363F"/>
<g opacity="0.4">
<path d="M270.921 413.296C270.921 413.296 263.85 414.249 264.538 415.491C265.226 416.733 291.205 420.556 302.825 421.244V420.725L272.466 416.528C272.466 416.528 272.236 413.55 270.921 413.296Z" fill="white"/>
</g>
<path d="M303.223 420.773H302.825L301.691 420.677L297.528 420.243C294.017 419.857 289.166 419.254 283.832 418.482C278.499 417.71 273.672 416.878 270.197 416.239L266.082 415.467L264.972 415.226C264.84 415.21 264.71 415.178 264.586 415.129H264.972L266.106 415.31L270.293 416.07C273.769 416.661 278.595 417.445 283.929 418.229C289.262 419.013 294.101 419.64 297.612 420.074L301.763 420.593L302.886 420.749L303.223 420.773Z" fill="#263238"/>
<path d="M272.453 416.878C272.376 416.166 272.214 415.465 271.971 414.792C271.632 414.152 271.228 413.55 270.764 412.995C271.432 413.364 271.943 413.964 272.2 414.683C272.558 415.357 272.649 416.141 272.453 416.878Z" fill="#263238"/>
<path d="M279.681 414.466C279.609 414.466 279.344 414.056 279.09 413.477C278.837 412.898 278.74 412.452 278.74 412.452C278.74 412.452 279.078 412.862 279.332 413.429C279.52 413.746 279.639 414.1 279.681 414.466Z" fill="#263238"/>
<path d="M281.66 413.754C281.66 413.754 281.286 413.513 280.936 413.103C280.586 412.693 280.369 412.319 280.429 412.271C280.49 412.223 280.816 412.512 281.153 412.922C281.491 413.332 281.721 413.658 281.66 413.754Z" fill="#263238"/>
<path d="M283.144 411.777C282.749 411.879 282.333 411.879 281.938 411.777C281.518 411.775 281.105 411.676 280.731 411.487C280.731 411.403 281.274 411.415 281.938 411.487C282.356 411.492 282.769 411.591 283.144 411.777Z" fill="#263238"/>
<path d="M283.772 410.329C283.337 410.525 282.855 410.588 282.384 410.51C281.911 410.52 281.445 410.39 281.045 410.136C281.502 410.12 281.959 410.153 282.408 410.233C282.865 410.221 283.322 410.253 283.772 410.329Z" fill="#263238"/>
<path d="M279.199 412.356C278.703 412.375 278.208 412.301 277.739 412.139C277.217 411.998 276.712 411.804 276.23 411.56C275.928 411.434 275.643 411.267 275.386 411.065C275.232 410.936 275.129 410.757 275.096 410.559C275.089 410.447 275.113 410.336 275.167 410.238C275.22 410.139 275.3 410.058 275.398 410.004C275.998 409.814 276.646 409.837 277.231 410.07C277.816 410.303 278.302 410.732 278.607 411.282C278.787 411.607 278.901 411.963 278.945 412.331C278.97 412.463 278.97 412.598 278.945 412.729C278.86 412.256 278.697 411.799 278.463 411.379C278.188 410.946 277.794 410.603 277.328 410.39C277.059 410.25 276.764 410.166 276.462 410.141C276.16 410.116 275.855 410.152 275.567 410.245C275.313 410.39 275.361 410.667 275.567 410.86C275.801 411.046 276.056 411.204 276.327 411.331C276.796 411.574 277.284 411.78 277.787 411.946C278.644 412.235 279.199 412.319 279.199 412.356Z" fill="#263238"/>
<path d="M278.813 412.38C278.681 412.047 278.681 411.676 278.813 411.343C278.913 410.965 279.103 410.617 279.368 410.329C279.522 410.13 279.726 409.973 279.958 409.874C280.19 409.775 280.444 409.736 280.695 409.763C280.839 409.814 280.956 409.921 281.021 410.059C281.087 410.196 281.095 410.354 281.045 410.498C280.979 410.729 280.864 410.943 280.707 411.125C280.462 411.415 280.187 411.678 279.887 411.909C279.621 412.139 279.301 412.296 278.957 412.368C278.957 412.368 279.283 412.151 279.754 411.753C280.033 411.516 280.284 411.249 280.502 410.957C280.743 410.679 280.973 410.149 280.611 410.028C280.41 410.022 280.211 410.063 280.029 410.147C279.847 410.23 279.687 410.355 279.561 410.51C279.314 410.76 279.124 411.06 279.006 411.391C278.906 411.713 278.842 412.044 278.813 412.38Z" fill="#263238"/>
<path d="M303.67 414.478C303.111 414.385 302.547 414.321 301.981 414.285C300.62 414.244 299.275 414.582 298.095 415.262C296.922 415.954 295.962 416.956 295.32 418.156C294.825 419.085 294.704 419.736 294.644 419.724C294.643 419.565 294.667 419.406 294.716 419.254C294.821 418.838 294.966 418.434 295.151 418.048C295.758 416.774 296.733 415.712 297.95 414.997C299.172 414.284 300.582 413.96 301.993 414.068C302.402 414.092 302.807 414.165 303.199 414.285C303.525 414.394 303.682 414.454 303.67 414.478Z" fill="#263238"/>
<path d="M302.717 404.661C302.641 406.237 302.476 407.808 302.222 409.365C302.054 410.93 301.797 412.484 301.45 414.02C301.525 412.444 301.69 410.874 301.944 409.316C302.105 407.75 302.363 406.195 302.717 404.661Z" fill="#263238"/>
<path d="M292.013 417.204C290.885 417.296 289.75 417.243 288.635 417.047C287.512 416.939 286.408 416.684 285.353 416.287C285.353 416.203 286.837 416.516 288.671 416.769C290.505 417.023 292.013 417.119 292.013 417.204Z" fill="#263238"/>
<path d="M296.526 417.855C296.526 417.855 296.357 418.156 296.152 418.47C295.947 418.783 295.826 419.073 295.742 419.061C295.658 419.049 295.682 418.687 295.911 418.313C296.14 417.939 296.478 417.795 296.526 417.855Z" fill="#263238"/>
<path d="M298.505 416.07C298.505 416.13 298.372 416.347 298.107 416.552C297.842 416.757 297.576 416.866 297.528 416.806C297.48 416.745 297.661 416.528 297.938 416.323C298.216 416.118 298.469 415.949 298.505 416.07Z" fill="#263238"/>
<path d="M301.063 415.407C301.063 415.479 300.725 415.407 300.375 415.503C300.026 415.6 299.76 415.72 299.7 415.66C299.639 415.6 299.893 415.31 300.327 415.226C300.762 415.141 301.087 415.346 301.063 415.407Z" fill="#263238"/>
<path d="M302.874 415.214C302.874 415.286 302.741 415.383 302.548 415.431C302.355 415.479 302.162 415.431 302.15 415.371C302.138 415.31 302.282 415.202 302.475 415.153C302.669 415.105 302.874 415.129 302.874 415.214Z" fill="#263238"/>
<g opacity="0.3">
<path d="M303.73 413.863L281.045 410.137L281.491 407.399L304.309 410.92L303.73 413.863Z" fill="black"/>
</g>
<path d="M401.82 223.001C398.417 228.489 400.77 237.473 401.82 243.865C402.87 250.257 404.234 256.854 402.399 263.041C401.41 266.381 399.491 269.493 399.262 272.954C398.96 277.428 401.482 281.517 403.401 285.557C405.319 289.597 406.659 294.626 404.185 298.364C403.256 299.787 401.772 301.114 401.953 302.815C402.194 304.901 405.066 305.757 406.948 304.804C408.831 303.852 409.893 301.85 410.822 299.98C411.36 301.104 411.662 302.326 411.707 303.571C411.753 304.816 411.542 306.057 411.087 307.216C414.395 308.457 417.984 308.751 421.45 308.065C424.917 307.379 428.122 305.74 430.708 303.333V254.731L401.82 223.001Z" fill="#33363F"/>
<path d="M410.798 285.967L385.096 314.392L399.202 335.811C399.202 335.811 431.106 310.256 432.168 307.012C434.75 299.124 436.077 278.212 421.416 280.178C417.302 280.79 413.539 282.841 410.798 285.967Z" fill="#455A64"/>
<path d="M420.343 285.207L446.382 271.844C446.382 271.844 469.997 276.391 470.431 303.068C470.866 329.745 469.116 372.823 469.116 372.823H408.022L420.343 285.207Z" fill="#455A64"/>
<path d="M422.792 281.818C421.658 275.511 420.379 268.878 420.379 268.878C420.379 268.878 412.004 268.962 408.445 258.639C405.054 248.798 402.592 225.112 402.592 225.112C407.965 221.775 414.23 220.16 420.547 220.483C426.865 220.806 432.932 223.053 437.936 226.921L446.286 278.357C447.263 284.327 442.895 289.91 436.488 290.899C429.984 291.852 423.866 287.836 422.792 281.818Z" fill="#FFBE9D"/>
<path d="M406.647 243.105C406.706 243.461 406.902 243.78 407.192 243.994C407.483 244.208 407.846 244.3 408.203 244.251C408.38 244.236 408.552 244.186 408.709 244.103C408.866 244.021 409.005 243.907 409.118 243.77C409.23 243.633 409.314 243.475 409.364 243.305C409.414 243.135 409.43 242.956 409.41 242.78C409.35 242.424 409.155 242.105 408.864 241.892C408.573 241.678 408.211 241.585 407.853 241.634C407.676 241.649 407.504 241.699 407.347 241.782C407.19 241.865 407.051 241.978 406.939 242.115C406.826 242.252 406.743 242.411 406.692 242.581C406.642 242.751 406.627 242.929 406.647 243.105Z" fill="#263238"/>
<path d="M406.321 241.719C406.514 241.863 407.419 240.923 408.879 240.669C410.339 240.416 411.558 240.959 411.679 240.742C411.799 240.525 411.51 240.368 410.991 240.103C410.277 239.781 409.482 239.68 408.71 239.813C407.946 239.943 407.244 240.315 406.707 240.874C406.321 241.309 406.224 241.646 406.321 241.719Z" fill="#263238"/>
<path d="M421.682 241.2C421.744 241.554 421.941 241.869 422.231 242.081C422.522 242.292 422.883 242.383 423.238 242.334C423.415 242.319 423.587 242.268 423.744 242.186C423.901 242.103 424.04 241.99 424.153 241.853C424.265 241.716 424.349 241.557 424.399 241.387C424.45 241.217 424.465 241.039 424.445 240.862C424.386 240.507 424.19 240.188 423.899 239.974C423.609 239.76 423.246 239.668 422.888 239.717C422.711 239.733 422.539 239.785 422.382 239.869C422.225 239.953 422.086 240.067 421.973 240.205C421.861 240.343 421.777 240.502 421.727 240.673C421.677 240.844 421.662 241.023 421.682 241.2Z" fill="#263238"/>
<path d="M421.706 239.56C421.911 239.705 422.804 238.752 424.276 238.499C425.748 238.245 426.943 238.788 427.076 238.583C427.208 238.378 426.907 238.197 426.376 237.944C425.666 237.621 424.875 237.52 424.107 237.654C423.343 237.785 422.641 238.157 422.104 238.716C421.706 239.138 421.61 239.487 421.706 239.56Z" fill="#263238"/>
<path d="M418.303 251.355C417.502 251.259 416.692 251.259 415.89 251.355C415.516 251.355 415.142 251.355 415.033 251.125C414.906 250.733 414.906 250.311 415.033 249.919C415.226 248.955 415.432 247.942 415.637 246.88C416.254 244.285 416.657 241.643 416.843 238.981C416.042 241.523 415.441 244.124 415.045 246.76C414.852 247.833 414.659 248.846 414.49 249.811C414.311 250.297 414.311 250.832 414.49 251.318C414.565 251.443 414.669 251.547 414.793 251.622C414.917 251.698 415.057 251.743 415.202 251.753C415.418 251.784 415.638 251.784 415.854 251.753C416.684 251.726 417.507 251.592 418.303 251.355Z" fill="#263238"/>
<path d="M420.342 268.938C425.359 268.134 430.054 265.955 433.905 262.643C433.905 262.643 431.745 270.542 420.934 271.422L420.342 268.938Z" fill="#EB996E"/>
<path d="M419.546 254.78C419.767 254.383 420.084 254.047 420.467 253.803C420.851 253.558 421.289 253.413 421.742 253.381C422.071 253.356 422.401 253.397 422.714 253.5C423.026 253.604 423.315 253.768 423.564 253.984C423.805 254.192 423.975 254.469 424.051 254.779C424.127 255.088 424.104 255.413 423.987 255.708C423.799 256.014 423.524 256.257 423.197 256.405C422.87 256.553 422.506 256.601 422.153 256.54C421.415 256.413 420.71 256.142 420.077 255.744C419.891 255.656 419.723 255.533 419.582 255.383C419.518 255.31 419.475 255.22 419.46 255.124C419.445 255.027 419.458 254.929 419.498 254.84" fill="#EB996E"/>
<path d="M422.792 251.62C422.563 251.62 422.792 253.236 421.67 254.599C420.547 255.962 418.786 256.094 418.81 256.323C418.834 256.552 419.244 256.564 419.956 256.456C420.893 256.308 421.748 255.833 422.369 255.117C422.955 254.421 423.257 253.53 423.214 252.621C423.154 251.946 422.9 251.584 422.792 251.62Z" fill="#263238"/>
<path d="M430.708 219.323C427.872 225.582 418.641 233.204 411.57 235.906C412.21 234.615 416.204 230.985 416.855 229.683C413.983 232.806 409.844 237.027 405.464 238.125C404.952 238.275 404.408 238.275 403.896 238.125C403.609 237.972 403.363 237.756 403.174 237.492C402.986 237.229 402.861 236.925 402.81 236.605C401.96 233.453 401.454 230.218 401.301 226.957C401.156 224.201 402.066 221.493 403.847 219.384C406.261 216.67 410.219 215.368 414.02 214.56C417.173 213.759 420.453 213.587 423.673 214.053C426.822 214.668 429.706 216.465 430.708 219.142" fill="#33363F"/>
<path d="M447.674 242.9C447.725 240.485 447.637 238.069 447.408 235.664C446.684 230.141 443.993 208.578 421.042 213.8L428.379 220.36C428.379 220.36 426.955 233.301 436.476 240.235C436.476 240.235 436.476 253.151 443.04 257.807C443.04 257.807 447.637 249.051 447.674 242.949" fill="#33363F"/>
<path d="M436.053 239.319C437.15 238.873 438.348 238.74 439.516 238.933C440.69 239.136 441.735 239.795 442.424 240.766C443.051 241.777 443.274 242.986 443.052 244.155C442.823 245.311 442.341 246.403 441.64 247.351C441.176 248.06 440.552 248.651 439.818 249.075C439.448 249.278 439.033 249.384 438.611 249.384C438.19 249.384 437.775 249.278 437.405 249.075" fill="#FFBE9D"/>
<path d="M437.899 246.084C437.779 246.157 438.394 246.76 439.383 246.289C439.904 245.999 440.293 245.52 440.469 244.951C440.67 244.308 440.748 243.633 440.699 242.961C440.659 242.243 440.364 241.563 439.866 241.043C439.658 240.822 439.402 240.651 439.117 240.544C438.833 240.438 438.528 240.398 438.225 240.428C437.151 240.597 436.946 241.393 437.018 241.393C437.091 241.393 437.477 241.007 438.225 241.055C438.679 241.144 439.087 241.392 439.375 241.755C439.662 242.117 439.811 242.571 439.794 243.033C439.884 243.515 439.862 244.012 439.731 244.484C439.599 244.957 439.36 245.393 439.034 245.759C438.478 246.193 438.02 246.024 437.899 246.084Z" fill="#EB996E"/>
<path d="M465.87 372.823H443.124L446.382 308.435L416.336 309.435C416.336 309.435 411.22 354.058 410.701 359.846C378.362 330.323 356.063 311.691 340.654 300.596C320.141 285.786 309.064 297.231 304.78 302.573C293.461 316.684 274.022 406.675 274.022 406.675L309.269 412.271L327.707 334.46C327.707 334.46 367.889 383.532 400.372 411.994C411.872 422.076 433.398 420.725 441.592 417.493C441.64 417.493 466.666 403.902 465.87 372.823Z" fill="#263238"/>
<path d="M431.733 379.89C431.456 381.276 431.322 382.686 431.335 384.099C431.373 385.791 431.768 387.456 432.492 388.986C433.216 390.515 434.255 391.875 435.54 392.978C436.825 394.08 438.328 394.9 439.95 395.383C441.573 395.867 443.279 396.004 444.958 395.785C446.353 395.58 447.723 395.236 449.049 394.76C448.75 395.008 448.412 395.204 448.048 395.339C447.085 395.785 446.059 396.082 445.007 396.219C443.265 396.484 441.487 396.371 439.793 395.888C438.099 395.404 436.53 394.562 435.191 393.417C433.852 392.273 432.776 390.853 432.036 389.256C431.296 387.658 430.908 385.92 430.901 384.159C430.881 383.096 431.019 382.035 431.311 381.012C431.395 380.619 431.537 380.241 431.733 379.89Z" fill="#455A64"/>
<path d="M310.608 405.397C310.608 405.578 302.729 404.504 293.075 402.985C283.422 401.465 275.603 400.151 275.627 399.97C275.651 399.789 283.507 400.874 293.172 402.382C302.837 403.889 310.632 405.216 310.608 405.397Z" fill="#455A64"/>
<path d="M294.535 400.971C294.606 401.989 294.467 403.012 294.125 403.974C293.993 404.987 293.647 405.962 293.111 406.832C293.179 404.801 293.664 402.806 294.535 400.971Z" fill="#455A64"/>
<path d="M297.492 389.273C297.547 390.294 297.395 391.315 297.045 392.276C296.891 393.287 296.53 394.256 295.983 395.122C296.086 393.09 296.599 391.101 297.492 389.273Z" fill="#455A64"/>
<path d="M300.653 377.635C300.691 378.655 300.523 379.672 300.158 380.626C299.985 381.632 299.607 382.593 299.048 383.448C299.012 382.428 299.18 381.411 299.543 380.457C299.717 379.45 300.094 378.49 300.653 377.635Z" fill="#455A64"/>
<path d="M304.08 366.069C303.913 368.092 303.33 370.059 302.367 371.846C302.347 370.826 302.536 369.812 302.922 368.867C303.106 367.863 303.501 366.91 304.08 366.069Z" fill="#455A64"/>
<path d="M307.592 354.564C307.595 355.588 307.39 356.601 306.988 357.543C306.773 358.538 306.363 359.481 305.782 360.317C305.771 359.296 305.977 358.285 306.385 357.35C306.59 356.348 307.001 355.399 307.592 354.564Z" fill="#455A64"/>
<path d="M311.32 343.095C311.314 344.115 311.092 345.122 310.669 346.05C310.456 347.042 310.045 347.981 309.462 348.811C309.7 346.796 310.349 344.85 311.368 343.095H311.32Z" fill="#455A64"/>
<path d="M315.302 331.65C315.271 332.668 315.033 333.669 314.602 334.593C314.37 335.586 313.93 336.519 313.311 337.33C313.574 335.319 314.252 333.385 315.302 331.65Z" fill="#455A64"/>
<path d="M319.393 320.35C319.345 321.37 319.095 322.37 318.657 323.292C318.404 324.282 317.952 325.209 317.33 326.018C317.371 324.997 317.621 323.996 318.066 323.075C318.313 322.084 318.765 321.156 319.393 320.35Z" fill="#455A64"/>
<path d="M325.631 319.723C325.498 319.843 324.497 318.927 323.375 317.697C322.252 316.467 321.456 315.369 321.589 315.285C321.721 315.2 322.723 316.081 323.845 317.311C324.967 318.541 325.8 319.59 325.631 319.723Z" fill="#455A64"/>
<path d="M333.776 328.623C333.656 328.744 332.63 327.839 331.508 326.609C330.385 325.379 329.565 324.293 329.698 324.197C329.83 324.1 330.844 324.981 331.966 326.211C333.088 327.441 333.909 328.502 333.776 328.623Z" fill="#455A64"/>
<path d="M341.981 337.463C341.849 337.584 340.775 336.691 339.701 335.473C338.627 334.255 337.746 333.17 337.867 333.061C337.987 332.953 339.073 333.833 340.159 335.051C340.917 335.729 341.536 336.548 341.981 337.463Z" fill="#455A64"/>
<path d="M350.223 346.267C350.102 346.387 349.016 345.507 347.93 344.289C346.844 343.071 345.964 341.997 346.096 341.877C346.229 341.756 347.303 342.649 348.389 343.855C349.151 344.533 349.773 345.352 350.223 346.267Z" fill="#455A64"/>
<path d="M358.501 355.046C358.368 355.167 357.294 354.287 356.196 353.069C355.098 351.85 354.229 350.777 354.362 350.657C354.495 350.536 355.508 351.416 356.655 352.634C357.801 353.852 358.622 354.926 358.501 355.046Z" fill="#455A64"/>
<path d="M366.827 363.802C366.706 363.923 365.62 363.042 364.534 361.836C363.448 360.63 362.555 359.545 362.676 359.424C362.797 359.304 363.883 360.196 364.981 361.402C366.079 362.608 366.923 363.681 366.827 363.802Z" fill="#455A64"/>
<path d="M375.105 372.558C374.972 372.678 373.898 371.798 372.8 370.58C371.702 369.362 370.821 368.3 370.942 368.168C371.062 368.035 372.148 368.928 373.246 370.146C374.345 371.364 375.274 372.437 375.105 372.558Z" fill="#455A64"/>
<path d="M383.406 381.313C383.274 381.422 382.2 380.541 381.102 379.335C380.004 378.129 379.123 377.044 379.255 376.923C379.388 376.803 380.462 377.683 381.56 378.889C382.658 380.095 383.527 381.193 383.406 381.313Z" fill="#455A64"/>
<path d="M391.684 390.069C391.563 390.189 390.477 389.309 389.391 388.091C388.305 386.873 387.425 385.812 387.545 385.679C387.666 385.546 388.752 386.439 389.85 387.657C390.948 388.875 391.817 389.96 391.684 390.069Z" fill="#455A64"/>
<path d="M400.324 398.474C399.351 398.132 398.477 397.556 397.778 396.798C396.571 395.677 395.703 394.579 395.823 394.458C395.944 394.338 397.03 395.23 398.237 396.328C399.443 397.425 400.421 398.33 400.324 398.474Z" fill="#455A64"/>
<path d="M411.232 403.359C409.159 403.436 407.119 402.816 405.44 401.598C406.442 401.712 407.421 401.972 408.348 402.37C409.351 402.562 410.322 402.895 411.232 403.359Z" fill="#455A64"/>
<path d="M423.094 402.249C422.294 402.91 421.323 403.328 420.294 403.455C419.591 403.629 418.87 403.718 418.146 403.721C417.591 403.721 417.241 403.721 417.241 403.588C417.241 403.455 418.569 403.214 420.149 402.852C421.103 402.535 422.092 402.333 423.094 402.249Z" fill="#455A64"/>
<path d="M432.88 395.315C433.001 395.435 432.156 396.521 430.877 397.606C429.598 398.692 428.403 399.391 428.307 399.246C428.21 399.102 429.224 398.221 430.467 397.136C431.709 396.05 432.759 395.194 432.88 395.315Z" fill="#455A64"/>
<path d="M374.067 299.402L343.683 282.747L342.597 285.098L372.836 302.031L374.067 299.402Z" fill="#263238"/>
<path d="M366.754 298.63C366.754 298.63 359.707 289.464 358.682 287.462C357.656 285.46 355.918 281.975 355.375 281.951C354.832 281.927 352.962 282.397 356.003 288.367C359.044 294.336 353.203 291.032 353.203 291.032L347.375 287.776C347.375 287.776 344.358 300.704 347.11 304.31C349.715 307.413 352.603 310.268 355.737 312.836L366.754 298.63Z" fill="#FFBE9D"/>
<path d="M353.843 310.424C353.843 310.424 390.417 357.663 403.522 360.799C416.626 363.935 451.076 327.417 451.076 327.417L436.138 308.796C436.138 308.796 408.095 334.569 406.225 333.58C404.354 332.591 366.755 298.606 366.755 298.606L353.843 310.424Z" fill="#FFBE9D"/>
<path d="M447.372 293.818L418.219 323.582L436.813 347.991C436.813 347.991 466.377 324.812 466.63 315.333C466.847 307.277 464.434 291.985 455.022 290.899C453.609 290.777 452.187 290.976 450.862 291.481C449.537 291.986 448.344 292.785 447.372 293.818Z" fill="#455A64"/>
<path d="M317.354 375.802C317.335 376.045 317.299 376.287 317.245 376.525C317.149 377.032 317.016 377.731 316.847 378.563C316.461 380.397 315.93 382.977 315.266 386.173L309.619 412.331L309.559 412.609H309.269L295.634 410.426L273.974 406.953H273.672L273.745 406.663C275.784 398.306 277.522 391.238 278.752 386.161C279.368 383.749 279.863 381.771 280.225 380.36C280.393 379.733 280.526 379.227 280.635 378.841C280.671 378.662 280.727 378.488 280.804 378.322C280.794 378.502 280.766 378.679 280.719 378.853L280.393 380.409C280.08 381.808 279.633 383.773 279.09 386.234L274.264 406.736L274.034 406.398L295.754 409.799L309.341 411.97L309.004 412.199C311.357 401.707 313.396 392.625 314.868 386.089L316.618 378.515C316.835 377.683 316.992 377.008 317.124 376.501C317.17 376.259 317.248 376.024 317.354 375.802Z" fill="#455A64"/>
<path d="M407.854 416.239C407.681 416.26 407.507 416.26 407.335 416.239C406.84 416.169 406.354 416.043 405.887 415.865C404.185 415.167 402.638 414.138 401.338 412.838L388.366 400.392C383.31 395.568 378.713 391.13 375.503 387.91L371.654 384.123C371.166 383.668 370.714 383.176 370.302 382.652C370.844 383.039 371.352 383.471 371.823 383.942L375.817 387.645C379.159 390.78 383.757 395.146 388.8 399.994C393.844 404.842 398.454 409.244 401.651 412.488C402.886 413.788 404.35 414.847 405.971 415.612C407.142 416.13 407.854 416.166 407.854 416.239Z" fill="#455A64"/>
<path d="M424.904 377.695C421.833 375.062 418.898 372.277 416.107 369.35C413.178 366.561 410.391 363.626 407.757 360.558C410.837 363.18 413.773 365.965 416.553 368.903C419.489 371.685 422.277 374.62 424.904 377.695Z" fill="#455A64"/>
<path d="M418.219 280.998L416.3 309.435L420.922 309.954L422.43 280.045C420.974 280.053 419.537 280.379 418.219 280.998Z" fill="#263238"/>
<path d="M417.978 289.922C414.62 290.341 411.223 290.341 407.866 289.922C411.223 289.504 414.62 289.504 417.978 289.922Z" fill="#FAFAFA"/>
<path d="M470.202 299.329C470.202 299.498 454.141 299.643 434.328 299.643C414.514 299.643 398.466 299.498 398.466 299.329C398.466 299.16 414.514 299.016 434.328 299.016C454.141 299.016 470.202 299.16 470.202 299.329Z" fill="#FAFAFA"/>
<path d="M415.166 311.558C415.166 311.727 409 311.872 401.398 311.872C393.796 311.872 387.642 311.727 387.642 311.558C387.642 311.389 393.796 311.245 401.398 311.245C409 311.245 415.166 311.377 415.166 311.558Z" fill="#FAFAFA"/>
<path d="M470.202 310.617C470.202 310.786 461.755 310.931 451.378 310.931C441.001 310.931 432.566 310.786 432.566 310.617C432.566 310.449 441.013 310.304 451.378 310.304C461.743 310.304 470.202 310.437 470.202 310.617Z" fill="#FAFAFA"/>
<path d="M470.202 322.135C470.202 322.304 459.342 322.448 445.851 322.448C432.361 322.448 421.513 322.304 421.513 322.135C421.513 321.966 432.373 321.821 445.851 321.821C459.33 321.821 470.202 322.002 470.202 322.135Z" fill="#FAFAFA"/>
<path d="M470.491 336.474C470.491 336.655 461.055 336.788 449.411 336.788C437.767 336.788 428.367 336.643 428.367 336.474C428.367 336.305 437.803 336.16 449.447 336.16C461.091 336.16 470.491 336.293 470.491 336.474Z" fill="#FAFAFA"/>
<path d="M469.732 347.051C469.732 347.219 463.988 347.364 456.905 347.364C449.822 347.364 444.09 347.219 444.09 347.051C444.09 346.882 449.834 346.737 456.905 346.737C463.976 346.737 469.732 346.882 469.732 347.051Z" fill="#FAFAFA"/>
<path d="M469.732 357.603C469.732 357.772 463.988 357.917 456.905 357.917C449.822 357.917 444.09 357.772 444.09 357.603C444.09 357.434 449.834 357.29 456.905 357.29C463.976 357.29 469.732 357.434 469.732 357.603Z" fill="#FAFAFA"/>
<path d="M465.134 319.747C465.026 319.978 464.893 320.197 464.736 320.398L463.529 322.243C461.857 324.475 460.073 326.62 458.183 328.671C451.627 335.689 444.569 342.223 437.067 348.22L436.825 348.425L436.644 348.16L427.16 335.352L418.363 323.208L418.207 322.991L418.388 322.81L439.227 302.079L445.26 296.049L446.901 294.469C447.087 294.276 447.289 294.098 447.504 293.938C447.347 294.152 447.173 294.354 446.986 294.541L445.405 296.194C443.981 297.665 441.966 299.739 439.444 302.308L418.822 323.232V322.834L427.691 334.894L437.055 347.726H436.62C444.113 341.773 451.2 335.327 457.834 328.43C460.247 325.849 462.069 323.606 463.288 322.135C463.843 321.387 464.289 320.796 464.627 320.362C464.775 320.14 464.945 319.934 465.134 319.747Z" fill="#263238"/>
<path d="M427.993 223.592C426.255 227.982 427.993 236.485 431.939 240.344C435.293 243.648 436.657 248.713 437.115 253.417C437.658 258.964 435.052 264.645 436.476 270.048C437.441 273.666 440.096 276.596 441.495 280.069C442.631 283.035 442.844 286.274 442.105 289.363C441.367 292.451 439.711 295.244 437.356 297.376C438.608 298.387 440.092 299.069 441.675 299.361C443.258 299.653 444.888 299.545 446.418 299.046C447.948 298.547 449.329 297.674 450.436 296.507C451.542 295.339 452.339 293.913 452.754 292.359L453.067 298.967C457.769 296.154 461.181 291.613 462.575 286.316C463.969 281.019 463.233 275.388 460.524 270.626C458.34 266.803 454.853 263.39 454.636 258.976C454.491 256.094 455.843 253.296 455.843 250.414C455.782 245.795 452.367 241.972 450.401 237.847C448.663 234.133 448.06 229.996 446.587 226.173C445.115 222.35 442.376 218.6 438.382 217.731" fill="#33363F"/>
<path d="M202.72 509.004C206.567 506.917 210.982 506.114 215.318 506.713C217.675 506.775 219.943 507.624 221.761 509.125C223.427 510.753 223.897 513.78 222.184 515.372C221.067 516.212 219.694 516.638 218.298 516.578C214.932 516.735 211.179 516.373 208.645 518.544C207.185 519.75 206.232 521.752 204.482 522.427C203.579 522.694 202.613 522.66 201.731 522.329C200.849 521.998 200.099 521.389 199.595 520.594C198.633 518.963 198.326 517.027 198.738 515.179C198.888 513.915 199.324 512.701 200.014 511.631C200.704 510.561 201.63 509.662 202.72 509.004Z" fill="#33363F"/>
<path opacity="0.2" d="M202.72 509.004C206.567 506.917 210.982 506.114 215.318 506.713C217.675 506.775 219.943 507.624 221.761 509.125C223.427 510.753 223.897 513.78 222.184 515.372C221.067 516.212 219.694 516.638 218.298 516.578C214.932 516.735 211.179 516.373 208.645 518.544C207.185 519.75 206.232 521.752 204.482 522.427C203.579 522.694 202.613 522.66 201.731 522.329C200.849 521.998 200.099 521.389 199.595 520.594C198.633 518.963 198.326 517.027 198.738 515.179C198.888 513.915 199.324 512.701 200.014 511.631C200.704 510.561 201.63 509.662 202.72 509.004Z" fill="#33363F"/>
<path d="M192.898 492.458C195.456 495.69 199.981 494.303 201.984 492.12C203.987 489.937 204.711 486.91 205.363 484.016C206.859 477.407 208.343 470.485 206.57 463.96C206.117 461.975 205.127 460.152 203.71 458.69C202.992 457.972 202.098 457.455 201.118 457.191C200.137 456.926 199.105 456.923 198.123 457.183C195.842 457.93 194.503 460.282 193.622 462.501C190.938 469.039 189.742 476.091 190.123 483.148C190.304 486.44 190.895 489.853 192.91 492.458" fill="#33363F"/>
<path opacity="0.3" d="M192.898 492.458C195.456 495.69 199.981 494.303 201.984 492.12C203.987 489.937 204.711 486.91 205.363 484.016C206.859 477.407 208.343 470.485 206.57 463.96C206.117 461.975 205.127 460.152 203.71 458.69C202.992 457.972 202.098 457.455 201.118 457.191C200.137 456.926 199.105 456.923 198.123 457.183C195.842 457.93 194.503 460.282 193.622 462.501C190.938 469.039 189.742 476.091 190.123 483.148C190.304 486.44 190.895 489.853 192.91 492.458" fill="black"/>
<path d="M186.696 497.668C187.809 496.012 188.501 494.109 188.711 492.125C188.921 490.141 188.644 488.136 187.902 486.283C186.392 482.573 183.887 479.352 180.662 476.973C176.988 474.071 172.783 471.912 168.282 470.617C166.533 470.027 164.675 469.825 162.84 470.026C161.924 470.131 161.049 470.458 160.289 470.98C159.53 471.501 158.91 472.201 158.484 473.017C157.362 475.429 158.737 478.336 160.185 480.639C162.735 484.692 165.6 488.539 168.752 492.144C171.286 495.039 174.17 497.885 177.839 499.043C181.507 500.201 185.236 499.827 186.997 497.222" fill="#33363F"/>
<path d="M195.721 543.291C195.821 542.783 195.865 542.265 195.854 541.747C195.854 540.626 195.951 539.227 196.011 537.55C196.071 535.874 196.24 533.667 196.59 531.364C196.994 528.863 197.599 526.398 198.4 523.995C199.173 521.597 200.286 519.323 201.706 517.241C202.856 515.54 204.374 514.118 206.147 513.081C207.351 512.397 208.653 511.905 210.008 511.621C210.523 511.567 211.032 511.466 211.529 511.32C211.012 511.259 210.489 511.259 209.972 511.32C208.556 511.507 207.185 511.953 205.93 512.634C204.061 513.651 202.454 515.087 201.236 516.831C199.753 518.951 198.594 521.28 197.797 523.742C196.984 526.177 196.387 528.679 196.011 531.219C195.737 533.295 195.588 535.385 195.565 537.478C195.565 539.251 195.565 540.698 195.565 541.687C195.562 542.226 195.614 542.763 195.721 543.291Z" fill="#263238"/>
<path d="M195.83 540.059C195.846 539.822 195.846 539.584 195.83 539.347C195.83 538.817 195.746 538.141 195.697 537.321C195.589 535.561 195.444 533.004 195.347 529.844C195.142 523.537 195.347 516.723 195.77 507.099C196.228 498.054 196.976 487.513 197.954 480.567C198.171 478.999 198.388 477.588 198.605 476.358C198.823 475.128 198.979 474.054 199.148 473.186C199.317 472.318 199.414 471.703 199.51 471.184C199.566 470.951 199.595 470.712 199.595 470.473C199.495 470.691 199.426 470.923 199.39 471.16C199.257 471.679 199.1 472.366 198.907 473.138C198.714 473.91 198.485 475.055 198.255 476.298C198.026 477.54 197.749 478.939 197.519 480.495C196.243 488.644 195.409 496.857 195.022 505.097C194.539 514.745 194.575 523.488 194.901 529.808C195.046 532.968 195.275 535.524 195.456 537.273C195.552 538.105 195.637 538.768 195.697 539.299C195.704 539.558 195.748 539.814 195.83 540.059Z" fill="#263238"/>
<path d="M194.877 523.235C194.887 522.525 194.843 521.816 194.744 521.113C194.575 519.75 194.273 517.796 193.755 515.396C193.102 512.6 192.296 509.843 191.341 507.135C190.23 503.798 188.863 500.553 187.251 497.427C184.472 491.651 180.666 486.428 176.017 482.014C175.211 481.256 174.356 480.551 173.458 479.904C173.072 479.614 172.722 479.325 172.372 479.096L171.395 478.505C170.806 478.111 170.189 477.761 169.549 477.455C171.701 478.958 173.76 480.589 175.715 482.34C180.217 486.807 183.926 492.006 186.684 497.716C188.267 500.836 189.638 504.059 190.786 507.364C191.884 510.391 192.669 513.177 193.272 515.541C193.875 517.905 194.213 519.846 194.479 521.185C194.563 521.877 194.697 522.562 194.877 523.235Z" fill="#263238"/>
<path d="M365.62 159.891C365.263 159.93 364.911 160.007 364.57 160.121C364.087 160.301 363.657 160.6 363.32 160.99C362.982 161.38 362.748 161.848 362.639 162.352C362.556 163.109 362.536 163.871 362.579 164.631C362.579 165.487 362.579 166.416 362.579 167.417C362.579 169.435 362.579 171.738 362.579 174.327C362.579 179.513 362.579 185.82 362.639 193.093C362.639 194.914 362.639 196.795 362.639 198.737V200.196C362.609 200.67 362.654 201.147 362.772 201.607C362.911 202.055 363.155 202.464 363.485 202.797C363.815 203.131 364.22 203.381 364.667 203.525C365.142 203.654 365.635 203.703 366.127 203.669H377.783V203.923C377.783 208.168 377.783 212.678 377.783 217.345L377.313 217.152L390.731 203.718L390.815 203.633H390.936H443.016H450.437C451.04 203.633 451.643 203.633 452.247 203.633C453.095 203.556 453.896 203.205 454.528 202.633C455.159 202.061 455.587 201.298 455.746 200.461C455.819 199.882 455.844 199.297 455.818 198.713V193.31C455.818 190.898 455.818 188.558 455.818 186.218V172.349C455.818 170.094 455.818 167.863 455.818 165.668V164.016C455.808 163.509 455.697 163.009 455.492 162.545C455.189 161.834 454.686 161.227 454.043 160.799C453.399 160.37 452.645 160.139 451.872 160.133H429.163H407.829L376.951 160.036L368.504 159.976L376.951 159.916L407.853 159.674H429.187H452.053C452.628 159.674 453.198 159.785 453.731 160C454.819 160.459 455.684 161.325 456.144 162.412C456.376 162.95 456.503 163.527 456.518 164.112V172.458C456.518 176.968 456.518 181.571 456.518 186.267V198.761C456.543 199.381 456.515 200.003 456.434 200.618C456.311 201.262 456.052 201.872 455.673 202.407C455.294 202.941 454.805 203.388 454.238 203.718C453.669 204.047 453.034 204.244 452.379 204.296C451.704 204.296 451.173 204.296 450.509 204.296H443.088H391.008L391.225 204.212L377.771 217.623L377.3 218.093V217.43C377.3 212.762 377.3 208.252 377.3 204.007L377.554 204.26H366.151C365.615 204.297 365.077 204.244 364.558 204.103C364.038 203.935 363.566 203.643 363.183 203.252C362.801 202.862 362.519 202.384 362.362 201.86C362.238 201.36 362.189 200.844 362.217 200.329V198.869C362.217 196.928 362.217 195.046 362.217 193.225C362.217 185.989 362.217 179.646 362.278 174.46C362.278 171.863 362.278 169.56 362.278 167.55C362.278 166.549 362.278 165.62 362.278 164.764C362.252 163.991 362.285 163.217 362.374 162.448C362.5 161.928 362.755 161.447 363.116 161.051C363.477 160.655 363.931 160.356 364.437 160.181C364.8 159.985 365.208 159.885 365.62 159.891Z" fill="#263238"/>
<path d="M397.693 181.817C397.695 182.514 397.49 183.197 397.104 183.778C396.718 184.358 396.168 184.812 395.523 185.08C394.879 185.348 394.17 185.419 393.485 185.283C392.8 185.148 392.172 184.812 391.678 184.319C391.185 183.825 390.849 183.197 390.713 182.513C390.578 181.828 390.648 181.119 390.917 180.475C391.185 179.831 391.638 179.282 392.219 178.896C392.801 178.51 393.484 178.305 394.182 178.307C395.113 178.307 396.006 178.677 396.664 179.335C397.323 179.993 397.693 180.886 397.693 181.817Z" fill="#455A64"/>
<path d="M411.582 181.817C411.582 182.511 411.376 183.189 410.99 183.766C410.604 184.343 410.056 184.793 409.414 185.059C408.773 185.324 408.067 185.394 407.385 185.259C406.704 185.123 406.079 184.789 405.588 184.298C405.096 183.807 404.762 183.182 404.627 182.501C404.491 181.82 404.561 181.115 404.826 180.474C405.092 179.832 405.542 179.284 406.12 178.899C406.697 178.513 407.376 178.307 408.07 178.307C409.002 178.307 409.895 178.677 410.553 179.335C411.212 179.993 411.582 180.886 411.582 181.817Z" fill="#455A64"/>
<path d="M425.471 181.817C425.471 182.511 425.265 183.189 424.879 183.766C424.493 184.343 423.945 184.793 423.303 185.059C422.661 185.324 421.955 185.394 421.274 185.259C420.593 185.123 419.967 184.789 419.476 184.298C418.985 183.807 418.651 183.182 418.515 182.501C418.38 181.82 418.449 181.115 418.715 180.474C418.981 179.832 419.431 179.284 420.008 178.899C420.586 178.513 421.265 178.307 421.959 178.307C422.42 178.307 422.877 178.398 423.303 178.574C423.729 178.751 424.116 179.009 424.442 179.335C424.768 179.661 425.027 180.048 425.203 180.474C425.38 180.899 425.471 181.356 425.471 181.817Z" fill="#455A64"/>
<path d="M360.081 220.589H251.759C251.211 220.589 250.669 220.697 250.163 220.907C249.657 221.117 249.197 221.425 248.811 221.812C248.424 222.2 248.118 222.66 247.909 223.166C247.701 223.672 247.594 224.215 247.596 224.762V259.736C247.594 260.283 247.701 260.825 247.909 261.33C248.118 261.836 248.425 262.295 248.811 262.682C249.198 263.068 249.658 263.375 250.164 263.583C250.67 263.792 251.212 263.898 251.759 263.897H335.019L348.292 277.163V263.897H360.093C360.913 263.897 361.698 263.572 362.278 262.993C362.857 262.414 363.182 261.628 363.182 260.81V223.677C363.182 223.27 363.102 222.868 362.946 222.493C362.79 222.117 362.561 221.776 362.273 221.489C361.985 221.203 361.643 220.975 361.267 220.821C360.891 220.667 360.488 220.588 360.081 220.589Z" fill="#455A64"/>
<path d="M272.501 241.682C272.504 242.478 272.27 243.256 271.829 243.918C271.388 244.58 270.761 245.097 270.026 245.402C269.292 245.708 268.483 245.788 267.702 245.634C266.922 245.479 266.204 245.097 265.642 244.534C265.079 243.972 264.696 243.255 264.541 242.475C264.387 241.695 264.467 240.886 264.773 240.152C265.079 239.418 265.596 238.791 266.258 238.35C266.921 237.91 267.699 237.676 268.495 237.678C269.558 237.678 270.577 238.1 271.328 238.851C272.079 239.602 272.501 240.62 272.501 241.682Z" fill="#FAFAFA"/>
<path d="M346.313 237.678C346.313 237.847 331.676 237.992 313.625 237.992C295.573 237.992 280.924 237.847 280.924 237.678C280.924 237.51 295.561 237.365 313.625 237.365C331.688 237.365 346.313 237.498 346.313 237.678Z" fill="#FAFAFA"/>
<path d="M346.313 243.407C346.313 243.576 331.676 243.72 313.625 243.72C295.573 243.72 280.924 243.576 280.924 243.407C280.924 243.238 295.561 243.093 313.625 243.093C331.688 243.093 346.313 243.226 346.313 243.407Z" fill="#FAFAFA"/>
<path d="M311.573 249.907C311.573 250.088 304.707 250.221 296.236 250.221C287.766 250.221 280.888 250.088 280.888 249.907C280.888 249.726 287.754 249.594 296.236 249.594C304.719 249.594 311.573 249.738 311.573 249.907Z" fill="#FAFAFA"/>
<path d="M594.5 277.38C594.151 277.419 593.807 277.496 593.474 277.609C592.997 277.785 592.572 278.078 592.239 278.462C591.906 278.846 591.675 279.307 591.568 279.804C591.485 280.553 591.465 281.307 591.508 282.059C591.508 282.891 591.508 283.808 591.508 284.797C591.508 286.775 591.508 289.042 591.508 291.599C591.508 296.712 591.508 302.923 591.568 310.087C591.568 311.884 591.568 313.705 591.568 315.646V317.082C591.537 317.548 591.582 318.016 591.701 318.468C591.834 318.912 592.075 319.317 592.401 319.647C592.727 319.977 593.129 320.222 593.571 320.362C594.039 320.488 594.524 320.532 595.007 320.495H606.482V320.76C606.482 324.933 606.482 329.371 606.482 334.026L606.012 333.833L619.285 320.567L619.37 320.482H678.146C678.75 320.482 679.353 320.482 679.932 320.482C680.768 320.411 681.558 320.068 682.181 319.506C682.804 318.944 683.226 318.195 683.383 317.371C683.451 316.799 683.475 316.222 683.456 315.646V303.345C683.456 298.726 683.456 294.18 683.456 289.742V281.529C683.444 281.026 683.333 280.53 683.13 280.069C682.827 279.386 682.333 278.805 681.708 278.394C681.084 277.984 680.354 277.761 679.606 277.754H657.078H636.07L605.65 277.645H597.384L605.65 277.585L636.07 277.489H657.078H668.783H679.643C680.503 277.489 681.345 277.74 682.065 278.212C682.785 278.683 683.352 279.354 683.697 280.142C683.936 280.669 684.063 281.239 684.071 281.818V290.043C684.071 294.481 684.071 299.028 684.071 303.647V315.948C684.1 316.56 684.075 317.173 683.999 317.781C683.878 318.416 683.621 319.017 683.246 319.544C682.871 320.071 682.387 320.51 681.827 320.832C681.267 321.161 680.64 321.359 679.993 321.411C679.329 321.411 678.786 321.411 678.146 321.411H670.906H619.599L619.804 321.327C615.219 325.909 610.794 330.311 606.531 334.532L606.072 335.003V334.339C606.072 329.732 606.072 325.294 606.072 321.073L606.325 321.327H595.103C594.572 321.357 594.038 321.304 593.523 321.17C593.013 321.001 592.55 320.713 592.175 320.329C591.799 319.945 591.52 319.476 591.363 318.963C591.237 318.467 591.192 317.954 591.23 317.443V316.008C591.23 314.091 591.23 312.245 591.23 310.449C591.23 303.285 591.23 297.074 591.29 291.961C591.29 289.404 591.29 287.137 591.29 285.159C591.29 284.17 591.29 283.253 591.29 282.421C591.265 281.656 591.297 280.89 591.387 280.13C591.511 279.614 591.762 279.139 592.119 278.747C592.475 278.355 592.925 278.059 593.426 277.887C593.735 277.628 594.105 277.454 594.5 277.38Z" fill="#263238"/>
<path d="M609.595 300.68C611.808 300.68 613.602 298.887 613.602 296.676C613.602 294.465 611.808 292.672 609.595 292.672C607.383 292.672 605.589 294.465 605.589 296.676C605.589 298.887 607.383 300.68 609.595 300.68Z" fill="#455A64"/>
<path d="M673.609 292.66C673.609 292.841 662.049 292.974 647.799 292.974C633.548 292.974 622 292.841 622 292.66C622 292.479 633.548 292.346 647.799 292.346C662.049 292.346 673.609 292.491 673.609 292.66Z" fill="#263238"/>
<path d="M673.609 298.389C673.609 298.569 662.049 298.702 647.799 298.702C633.548 298.702 622 298.569 622 298.389C622 298.208 633.548 298.075 647.799 298.075C662.049 298.075 673.609 298.22 673.609 298.389Z" fill="#263238"/>
<path d="M652.674 304.901C652.674 305.07 645.808 305.215 637.337 305.215C628.866 305.215 622 305.07 622 304.901C622 304.732 628.866 304.587 637.337 304.587C645.808 304.587 652.674 304.732 652.674 304.901Z" fill="#263238"/>
<path d="M569.739 210.929H622.64C623.187 210.928 623.73 211.034 624.236 211.243C624.743 211.451 625.203 211.757 625.591 212.144C625.979 212.53 626.287 212.99 626.497 213.495C626.707 214.001 626.815 214.543 626.815 215.09V250.064C626.815 251.171 626.375 252.232 625.592 253.015C624.809 253.797 623.747 254.237 622.64 254.237H594.766L581.492 267.503V254.237H569.703C568.883 254.237 568.096 253.912 567.515 253.333C566.933 252.755 566.605 251.969 566.602 251.149V214.017C566.602 213.607 566.683 213.202 566.842 212.824C567 212.446 567.232 212.104 567.524 211.816C567.816 211.529 568.162 211.303 568.542 211.15C568.923 210.998 569.33 210.923 569.739 210.929Z" fill="#33363F"/>
<path d="M587.272 233.337C587.272 233.953 587.089 234.555 586.747 235.067C586.404 235.579 585.917 235.977 585.348 236.213C584.778 236.448 584.151 236.509 583.547 236.388C582.943 236.267 582.388 235.969 581.953 235.533C581.519 235.096 581.223 234.541 581.104 233.936C580.985 233.332 581.049 232.706 581.286 232.138C581.524 231.569 581.925 231.084 582.438 230.744C582.952 230.403 583.555 230.223 584.171 230.225C584.579 230.225 584.984 230.306 585.361 230.462C585.738 230.619 586.08 230.848 586.368 231.137C586.656 231.427 586.885 231.77 587.04 232.147C587.195 232.524 587.274 232.929 587.272 233.337Z" fill="#FAFAFA"/>
<path d="M599.58 233.337C599.58 233.952 599.398 234.554 599.056 235.066C598.714 235.577 598.227 235.976 597.659 236.211C597.09 236.447 596.464 236.509 595.86 236.389C595.256 236.268 594.701 235.972 594.266 235.537C593.83 235.102 593.534 234.547 593.414 233.944C593.294 233.34 593.355 232.715 593.591 232.146C593.827 231.578 594.226 231.092 594.738 230.75C595.25 230.408 595.851 230.225 596.467 230.225C596.876 230.224 597.282 230.303 597.66 230.459C598.039 230.615 598.383 230.844 598.672 231.133C598.962 231.422 599.191 231.766 599.347 232.144C599.503 232.522 599.582 232.928 599.58 233.337Z" fill="#FAFAFA"/>
<path d="M611.888 233.337C611.888 233.952 611.706 234.554 611.364 235.066C611.022 235.577 610.536 235.976 609.967 236.212C609.398 236.447 608.772 236.509 608.168 236.389C607.564 236.269 607.009 235.972 606.574 235.537C606.139 235.102 605.842 234.547 605.722 233.944C605.602 233.34 605.663 232.715 605.899 232.146C606.135 231.578 606.534 231.092 607.046 230.75C607.558 230.408 608.16 230.225 608.775 230.225C609.601 230.225 610.393 230.553 610.977 231.137C611.561 231.72 611.888 232.512 611.888 233.337Z" fill="#FAFAFA"/>
<defs>
<filter id="filter0_d_230_453" x="476.777" y="276.789" width="89.2524" height="113.971" filterUnits="userSpaceOnUse" color-interpolation-filters="sRGB">
<feFlood flood-opacity="0" result="BackgroundImageFix"/>
<feColorMatrix in="SourceAlpha" type="matrix" values="0 0 0 0 0 0 0 0 0 0 0 0 0 0 0 0 0 0 127 0" result="hardAlpha"/>
<feOffset dy="4"/>
<feGaussianBlur stdDeviation="2"/>
<feComposite in2="hardAlpha" operator="out"/>
<feColorMatrix type="matrix" values="0 0 0 0 0 0 0 0 0 0 0 0 0 0 0 0 0 0 0.25 0"/>
<feBlend mode="normal" in2="BackgroundImageFix" result="effect1_dropShadow_230_453"/>
<feBlend mode="normal" in="SourceGraphic" in2="effect1_dropShadow_230_453" result="shape"/>
</filter>
</defs>
</svg>
