<svg width="705" height="705" viewBox="0 0 705 705" fill="none" xmlns="http://www.w3.org/2000/svg">
<path d="M705 539.184H0V539.536H705V539.184Z" fill="#EBEBEB"/>
<path d="M634.359 561.871H587.66V562.223H634.359V561.871Z" fill="#EBEBEB"/>
<path d="M467.02 565.706H454.767V566.059H467.02V565.706Z" fill="#EBEBEB"/>
<path d="M586.25 548.786H559.192V549.139H586.25V548.786Z" fill="#EBEBEB"/>
<path d="M134.867 551.155H73.9688V551.507H134.867V551.155Z" fill="#EBEBEB"/>
<path d="M156.355 551.155H147.43V551.507H156.355V551.155Z" fill="#EBEBEB"/>
<path d="M317.461 557.105H185.373V557.458H317.461V557.105Z" fill="#EBEBEB"/>
<path d="M334.17 476.298H61.913C59.7801 476.294 57.7359 475.444 56.2291 473.935C54.7223 472.425 53.876 470.38 53.876 468.247V85.5306C53.8945 83.41 54.749 81.3823 56.2539 79.8881C57.7587 78.3938 59.7923 77.5536 61.913 77.55H334.17C336.305 77.55 338.353 78.3982 339.863 79.9081C341.373 81.418 342.221 83.4658 342.221 85.6011V468.247C342.221 470.382 341.373 472.43 339.863 473.94C338.353 475.45 336.305 476.298 334.17 476.298ZM61.913 77.832C59.8736 77.8357 57.9191 78.6485 56.4784 80.0918C55.0376 81.5352 54.2285 83.4912 54.2285 85.5306V468.247C54.2285 470.286 55.0376 472.242 56.4784 473.686C57.9191 475.129 59.8736 475.942 61.913 475.945H334.17C336.211 475.942 338.167 475.129 339.61 473.686C341.052 472.244 341.865 470.288 341.869 468.247V85.5306C341.865 83.4899 341.052 81.5339 339.61 80.091C338.167 78.648 336.211 77.8357 334.17 77.832H61.913Z" fill="#EBEBEB"/>
<path d="M639.167 476.298H366.896C364.762 476.294 362.717 475.445 361.207 473.936C359.698 472.427 358.849 470.381 358.845 468.247V85.5306C358.867 83.4087 359.725 81.3811 361.232 79.8872C362.739 78.3933 364.774 77.5536 366.896 77.55H639.167C641.286 77.5573 643.316 78.3992 644.817 79.893C646.319 81.3869 647.172 83.4124 647.19 85.5306V468.247C647.19 470.377 646.346 472.421 644.842 473.93C643.338 475.439 641.298 476.29 639.167 476.298ZM366.896 77.832C364.856 77.8357 362.9 78.648 361.457 80.091C360.014 81.5339 359.201 83.4899 359.198 85.5306V468.247C359.201 470.288 360.014 472.244 361.457 473.686C362.9 475.129 364.856 475.942 366.896 475.945H639.167C641.208 475.942 643.164 475.129 644.607 473.686C646.05 472.244 646.862 470.288 646.866 468.247V85.5306C646.862 83.4899 646.05 81.5339 644.607 80.091C643.164 78.648 641.208 77.8357 639.167 77.832H366.896Z" fill="#EBEBEB"/>
<path d="M198.048 244.522C230.404 244.522 256.634 218.293 256.634 185.937C256.634 153.581 230.404 127.351 198.048 127.351C165.693 127.351 139.463 153.581 139.463 185.937C139.463 218.293 165.693 244.522 198.048 244.522Z" fill="#F5F5F5"/>
<path d="M93.4971 174.389C93.4971 171.86 94.5008 169.434 96.288 167.644C98.0751 165.854 100.499 164.847 103.029 164.843C103.984 164.834 104.935 164.972 105.849 165.252C105.367 162.071 105.653 158.821 106.683 155.774C107.713 152.726 109.458 149.97 111.771 147.734C114.084 145.498 116.899 143.848 119.979 142.922C123.06 141.996 126.318 141.82 129.48 142.41C131.473 139.138 134.475 136.602 138.035 135.185C141.594 133.769 145.518 133.547 149.214 134.554C152.91 135.561 156.179 137.743 158.528 140.77C160.876 143.796 162.177 147.505 162.235 151.335H162.531C166.765 151.46 170.784 153.23 173.735 156.269C176.686 159.308 178.337 163.378 178.337 167.614C178.337 171.85 176.686 175.919 173.735 178.959C170.784 181.998 166.765 183.768 162.531 183.892H102.761C100.286 183.819 97.9357 182.787 96.2072 181.014C94.4787 179.241 93.507 176.865 93.4971 174.389Z" fill="#EBEBEB"/>
<path d="M220.862 235.371C220.862 232.84 221.868 230.412 223.658 228.621C225.448 226.831 227.876 225.826 230.408 225.826C231.335 225.83 232.256 225.967 233.143 226.234C233.008 225.263 232.938 224.283 232.932 223.302C232.927 220.328 233.579 217.389 234.842 214.697C236.105 212.004 237.948 209.624 240.239 207.727C242.529 205.83 245.211 204.463 248.092 203.723C250.972 202.983 253.981 202.89 256.902 203.449C258.895 200.177 261.897 197.641 265.457 196.224C269.016 194.807 272.939 194.586 276.636 195.593C280.332 196.6 283.601 198.782 285.949 201.809C288.298 204.835 289.599 208.544 289.656 212.374H289.952C294.187 212.499 298.206 214.268 301.157 217.308C304.108 220.347 305.759 224.416 305.759 228.653C305.759 232.889 304.108 236.958 301.157 239.998C298.206 243.037 294.187 244.806 289.952 244.931H230.14C227.653 244.861 225.291 243.823 223.558 242.037C221.825 240.251 220.858 237.86 220.862 235.371Z" fill="#EBEBEB"/>
<path d="M59.7838 484.42C59.7772 481.668 60.4153 478.952 61.6469 476.491C62.8784 474.03 64.6692 471.891 66.8759 470.246C69.0825 468.602 71.6437 467.497 74.3542 467.02C77.0647 466.543 79.8492 466.707 82.4848 467.5C82.2251 465.706 82.0931 463.897 82.09 462.085C82.0922 456.599 83.304 451.18 85.6392 446.215C87.9744 441.25 91.3756 436.861 95.6004 433.361C99.8253 429.86 104.77 427.334 110.082 425.963C115.395 424.591 120.944 424.408 126.336 425.425C130.015 419.372 135.563 414.68 142.143 412.058C148.723 409.435 155.978 409.024 162.812 410.887C169.646 412.749 175.689 416.784 180.028 422.383C184.367 427.981 186.768 434.84 186.867 441.922H187.417C195.397 441.922 203.051 445.092 208.693 450.735C214.336 456.378 217.506 464.031 217.506 472.012C217.506 479.992 214.336 487.645 208.693 493.288C203.051 498.931 195.397 502.101 187.417 502.101H76.9012C72.3067 501.965 67.9467 500.041 64.7496 496.739C61.5525 493.436 59.7707 489.016 59.7838 484.42Z" fill="#EBEBEB"/>
<path d="M374.496 547.757C374.498 543.278 375.548 538.861 377.562 534.861C379.577 530.86 382.499 527.386 386.096 524.717C389.693 522.048 393.864 520.257 398.277 519.488C402.69 518.72 407.221 518.994 411.508 520.29C410.09 510.696 410.986 500.902 414.122 491.725C417.258 482.548 422.543 474.254 429.536 467.535C436.528 460.815 445.027 455.865 454.321 453.097C463.616 450.329 473.438 449.824 482.967 451.623C488.962 441.746 498.008 434.088 508.74 429.806C519.471 425.525 531.305 424.852 542.452 427.891C553.6 430.929 563.456 437.513 570.53 446.648C577.605 455.783 581.514 466.973 581.667 478.526C581.963 478.526 582.259 478.526 582.556 478.526C595.42 478.744 607.683 484.007 616.703 493.182C625.723 502.356 630.778 514.707 630.778 527.573C630.778 540.439 625.723 552.789 616.703 561.964C607.683 571.138 595.42 576.401 582.556 576.62H402.4C394.902 576.403 387.786 573.262 382.572 567.869C377.358 562.476 374.46 555.258 374.496 547.757Z" fill="#EBEBEB"/>
<path d="M538.352 277.77C538.352 275.238 539.358 272.81 541.148 271.02C542.938 269.23 545.366 268.224 547.898 268.224C548.825 268.224 549.747 268.361 550.633 268.633C550.214 265.763 550.418 262.836 551.231 260.051C552.043 257.267 553.445 254.689 555.342 252.495C557.238 250.3 559.585 248.539 562.222 247.331C564.86 246.123 567.726 245.497 570.627 245.495C571.875 245.5 573.121 245.613 574.349 245.833C576.339 242.557 579.342 240.017 582.903 238.598C586.464 237.179 590.39 236.958 594.088 237.967C597.786 238.977 601.054 241.163 603.4 244.195C605.746 247.227 607.041 250.94 607.09 254.773H607.386C609.522 254.773 611.638 255.194 613.612 256.011C615.587 256.829 617.38 258.028 618.891 259.539C620.402 261.05 621.601 262.843 622.418 264.817C623.236 266.792 623.657 268.907 623.657 271.044C623.657 273.181 623.236 275.297 622.418 277.271C621.601 279.245 620.402 281.039 618.891 282.55C617.38 284.061 615.587 285.259 613.612 286.077C611.638 286.895 609.522 287.316 607.386 287.316H547.63C545.144 287.249 542.782 286.214 541.049 284.431C539.315 282.647 538.348 280.257 538.352 277.77Z" fill="#EBEBEB"/>
<path d="M280.59 354.742C280.59 352.213 281.594 349.787 283.381 347.997C285.168 346.207 287.592 345.2 290.121 345.196C291.076 345.191 292.026 345.324 292.941 345.591C292.799 344.625 292.729 343.649 292.73 342.672C292.735 339.701 293.394 336.767 294.661 334.079C295.927 331.391 297.769 329.015 300.057 327.119C302.345 325.223 305.022 323.853 307.898 323.108C310.774 322.362 313.779 322.259 316.7 322.805C318.69 319.529 321.692 316.989 325.253 315.57C328.814 314.151 332.74 313.93 336.438 314.939C340.136 315.949 343.405 318.135 345.751 321.167C348.096 324.199 349.391 327.912 349.44 331.745H349.736C353.971 331.869 357.99 333.639 360.941 336.678C363.892 339.717 365.543 343.787 365.543 348.023C365.543 352.259 363.892 356.329 360.941 359.368C357.99 362.407 353.971 364.177 349.736 364.302H289.854C287.368 364.232 285.007 363.193 283.276 361.407C281.546 359.621 280.582 357.229 280.59 354.742Z" fill="#EBEBEB"/>
<path d="M99.0104 290.46C99.0102 289.562 99.22 288.675 99.6229 287.872C100.026 287.069 100.611 286.372 101.331 285.835C102.052 285.298 102.888 284.937 103.772 284.78C104.657 284.623 105.566 284.676 106.427 284.933C106.174 283.198 106.298 281.429 106.789 279.746C107.28 278.063 108.127 276.505 109.273 275.179C110.419 273.852 111.838 272.787 113.431 272.057C115.025 271.326 116.758 270.947 118.511 270.946C119.268 270.944 120.023 271.015 120.767 271.157C121.974 269.192 123.786 267.672 125.931 266.824C128.075 265.977 130.437 265.848 132.661 266.456C134.886 267.065 136.853 268.378 138.267 270.199C139.682 272.021 140.468 274.252 140.507 276.557H140.69C143.308 276.557 145.818 277.597 147.669 279.448C149.52 281.299 150.56 283.81 150.56 286.427C150.56 289.045 149.52 291.556 147.669 293.407C145.818 295.258 143.308 296.297 140.69 296.297H104.608C103.095 296.257 101.658 295.621 100.61 294.528C99.5625 293.436 98.9876 291.974 99.0104 290.46Z" fill="#EBEBEB"/>
<path d="M401.131 190.745C401.131 189.215 401.739 187.749 402.82 186.667C403.902 185.586 405.368 184.978 406.898 184.978C407.461 184.978 408.022 185.058 408.562 185.218C408.309 183.483 408.432 181.714 408.923 180.031C409.415 178.348 410.262 176.79 411.408 175.463C412.554 174.137 413.972 173.072 415.566 172.342C417.16 171.611 418.892 171.232 420.645 171.23C421.397 171.236 422.148 171.307 422.887 171.442C424.101 169.487 425.913 167.976 428.055 167.136C430.197 166.295 432.553 166.168 434.773 166.776C436.992 167.383 438.956 168.691 440.371 170.505C441.787 172.319 442.578 174.542 442.627 176.842H442.811C445.428 176.842 447.939 177.882 449.79 179.733C451.641 181.584 452.681 184.095 452.681 186.712C452.681 189.33 451.641 191.84 449.79 193.691C447.939 195.542 445.428 196.582 442.811 196.582H406.743C405.227 196.545 403.787 195.911 402.736 194.818C401.685 193.725 401.108 192.261 401.131 190.745Z" fill="#EBEBEB"/>
<path d="M575.04 151.956C575.04 150.426 575.648 148.959 576.729 147.878C577.811 146.796 579.278 146.189 580.807 146.189C581.37 146.189 581.931 146.27 582.471 146.428C582.218 144.694 582.341 142.925 582.833 141.242C583.324 139.559 584.171 138.001 585.317 136.674C586.463 135.348 587.881 134.283 589.475 133.553C591.069 132.822 592.801 132.443 594.555 132.441C595.307 132.44 596.058 132.511 596.797 132.653C598.01 130.698 599.823 129.187 601.964 128.346C604.106 127.506 606.462 127.379 608.682 127.986C610.901 128.594 612.865 129.902 614.28 131.716C615.696 133.53 616.487 135.753 616.537 138.053H616.72C619.338 138.053 621.848 139.093 623.699 140.944C625.55 142.795 626.59 145.305 626.59 147.923C626.59 150.541 625.55 153.051 623.699 154.902C621.848 156.753 619.338 157.793 616.72 157.793H580.652C579.136 157.756 577.696 157.122 576.645 156.029C575.594 154.936 575.017 153.472 575.04 151.956Z" fill="#EBEBEB"/>
<path d="M352.5 602.86C503.486 602.86 625.885 595.714 625.885 586.898C625.885 578.083 503.486 570.937 352.5 570.937C201.514 570.937 79.1152 578.083 79.1152 586.898C79.1152 595.714 201.514 602.86 352.5 602.86Z" fill="#F5F5F5"/>
<path d="M371.154 151.772H625.546L396.252 157.976L513.649 159.852L376.611 167.917L371.154 151.772Z" fill="black"/>
<path opacity="0.8" d="M371.154 151.772H625.546L396.252 157.976L513.649 159.852L376.611 167.917L371.154 151.772Z" fill="white"/>
<path d="M381.744 171.738L372.748 170.328C372.415 170.274 372.074 170.303 371.754 170.411C371.435 170.519 371.147 170.704 370.915 170.948L364.612 177.519C364.344 177.801 364.002 178.002 363.626 178.098C363.249 178.195 362.853 178.184 362.483 178.067C362.112 177.949 361.782 177.729 361.53 177.433C361.278 177.137 361.115 176.776 361.059 176.391L359.649 167.395C359.596 167.063 359.463 166.748 359.261 166.478C359.06 166.208 358.796 165.99 358.493 165.844L350.286 161.882C349.939 161.709 349.646 161.443 349.442 161.113C349.238 160.783 349.129 160.402 349.129 160.014C349.129 159.626 349.238 159.245 349.442 158.915C349.646 158.585 349.939 158.319 350.286 158.146L358.422 154.057C358.722 153.904 358.98 153.68 359.174 153.405C359.369 153.13 359.493 152.811 359.536 152.477L360.777 143.453C360.831 143.07 360.992 142.709 361.24 142.411C361.487 142.114 361.813 141.891 362.181 141.768C362.548 141.645 362.942 141.627 363.319 141.715C363.697 141.804 364.042 141.996 364.316 142.269L370.717 148.727C370.956 148.966 371.248 149.144 371.569 149.247C371.89 149.35 372.232 149.375 372.564 149.319L381.532 147.697C381.914 147.632 382.306 147.674 382.665 147.818C383.024 147.963 383.336 148.204 383.566 148.516C383.796 148.828 383.934 149.197 383.966 149.583C383.998 149.969 383.921 150.356 383.746 150.701L379.516 158.794C379.359 159.092 379.277 159.423 379.277 159.76C379.277 160.097 379.359 160.428 379.516 160.726L383.746 168.749C383.904 169.076 383.973 169.439 383.948 169.802C383.922 170.164 383.802 170.514 383.6 170.816C383.397 171.118 383.12 171.362 382.794 171.524C382.469 171.685 382.106 171.759 381.744 171.738Z" fill="black"/>
<path opacity="0.4" d="M381.744 171.738L372.748 170.328C372.415 170.274 372.074 170.303 371.754 170.411C371.435 170.519 371.147 170.704 370.915 170.948L364.612 177.519C364.344 177.801 364.002 178.002 363.626 178.098C363.249 178.195 362.853 178.184 362.483 178.067C362.112 177.949 361.782 177.729 361.53 177.433C361.278 177.137 361.115 176.776 361.059 176.391L359.649 167.395C359.596 167.063 359.463 166.748 359.261 166.478C359.06 166.208 358.796 165.99 358.493 165.844L350.286 161.882C349.939 161.709 349.646 161.443 349.442 161.113C349.238 160.783 349.129 160.402 349.129 160.014C349.129 159.626 349.238 159.245 349.442 158.915C349.646 158.585 349.939 158.319 350.286 158.146L358.422 154.057C358.722 153.904 358.98 153.68 359.174 153.405C359.369 153.13 359.493 152.811 359.536 152.477L360.777 143.453C360.831 143.07 360.992 142.709 361.24 142.411C361.487 142.114 361.813 141.891 362.181 141.768C362.548 141.645 362.942 141.627 363.319 141.715C363.697 141.804 364.042 141.996 364.316 142.269L370.717 148.727C370.956 148.966 371.248 149.144 371.569 149.247C371.89 149.35 372.232 149.375 372.564 149.319L381.532 147.697C381.914 147.632 382.306 147.674 382.665 147.818C383.024 147.963 383.336 148.204 383.566 148.516C383.796 148.828 383.934 149.197 383.966 149.583C383.998 149.969 383.921 150.356 383.746 150.701L379.516 158.794C379.359 159.092 379.277 159.423 379.277 159.76C379.277 160.097 379.359 160.428 379.516 160.726L383.746 168.749C383.904 169.076 383.973 169.439 383.948 169.802C383.922 170.164 383.802 170.514 383.6 170.816C383.397 171.118 383.12 171.362 382.794 171.524C382.469 171.685 382.106 171.759 381.744 171.738Z" fill="white"/>
<path d="M475.692 485.759H630.355L490.962 489.524L562.322 490.666L479.02 495.573L475.692 485.759Z" fill="black"/>
<path opacity="0.8" d="M475.692 485.759H630.355L490.962 489.524L562.322 490.666L479.02 495.573L475.692 485.759Z" fill="white"/>
<path d="M482.136 497.899L476.665 497.011C476.463 496.978 476.257 496.994 476.063 497.058C475.869 497.122 475.693 497.231 475.551 497.377L471.73 501.368C471.567 501.539 471.359 501.661 471.13 501.72C470.901 501.78 470.66 501.774 470.434 501.703C470.208 501.633 470.007 501.501 469.852 501.322C469.697 501.143 469.596 500.925 469.558 500.691L468.712 495.22C468.682 495.019 468.603 494.828 468.482 494.663C468.362 494.499 468.204 494.366 468.022 494.275L463.03 491.864C462.819 491.759 462.642 491.597 462.518 491.397C462.394 491.196 462.329 490.965 462.329 490.729C462.329 490.494 462.394 490.263 462.518 490.062C462.642 489.862 462.819 489.7 463.03 489.594L467.965 487.113C468.149 487.02 468.307 486.884 468.428 486.718C468.548 486.551 468.626 486.357 468.656 486.154L469.403 480.669C469.436 480.435 469.533 480.214 469.685 480.033C469.836 479.851 470.035 479.715 470.259 479.64C470.483 479.565 470.724 479.555 470.954 479.61C471.184 479.664 471.394 479.782 471.561 479.95L475.452 483.87C475.598 484.016 475.776 484.126 475.972 484.189C476.168 484.253 476.377 484.269 476.58 484.236L482.023 483.249C482.259 483.196 482.505 483.21 482.732 483.292C482.96 483.373 483.16 483.518 483.308 483.709C483.456 483.9 483.547 484.13 483.569 484.37C483.591 484.611 483.544 484.853 483.433 485.068L480.895 489.989C480.797 490.171 480.746 490.375 480.746 490.581C480.746 490.788 480.797 490.991 480.895 491.173L483.503 496.052C483.618 496.264 483.67 496.505 483.653 496.745C483.636 496.986 483.55 497.217 483.407 497.41C483.263 497.604 483.067 497.753 482.842 497.84C482.617 497.926 482.372 497.947 482.136 497.899Z" fill="black"/>
<path opacity="0.4" d="M482.136 497.899L476.665 497.011C476.463 496.978 476.257 496.994 476.063 497.058C475.869 497.122 475.693 497.231 475.551 497.377L471.73 501.368C471.567 501.539 471.359 501.661 471.13 501.72C470.901 501.78 470.66 501.774 470.434 501.703C470.208 501.633 470.007 501.501 469.852 501.322C469.697 501.143 469.596 500.925 469.558 500.691L468.712 495.22C468.682 495.019 468.603 494.828 468.482 494.663C468.362 494.499 468.204 494.366 468.022 494.275L463.03 491.864C462.819 491.759 462.642 491.597 462.518 491.397C462.394 491.196 462.329 490.965 462.329 490.729C462.329 490.494 462.394 490.263 462.518 490.062C462.642 489.862 462.819 489.7 463.03 489.594L467.965 487.113C468.149 487.02 468.307 486.884 468.428 486.718C468.548 486.551 468.626 486.357 468.656 486.154L469.403 480.669C469.436 480.435 469.533 480.214 469.685 480.033C469.836 479.851 470.035 479.715 470.259 479.64C470.483 479.565 470.724 479.555 470.954 479.61C471.184 479.664 471.394 479.782 471.561 479.95L475.452 483.87C475.598 484.016 475.776 484.126 475.972 484.189C476.168 484.253 476.377 484.269 476.58 484.236L482.023 483.249C482.259 483.196 482.505 483.21 482.732 483.292C482.96 483.373 483.16 483.518 483.308 483.709C483.456 483.9 483.547 484.13 483.569 484.37C483.591 484.611 483.544 484.853 483.433 485.068L480.895 489.989C480.797 490.171 480.746 490.375 480.746 490.581C480.746 490.788 480.797 490.991 480.895 491.173L483.503 496.052C483.618 496.264 483.67 496.505 483.653 496.745C483.636 496.986 483.55 497.217 483.407 497.41C483.263 497.604 483.067 497.753 482.842 497.84C482.617 497.926 482.372 497.947 482.136 497.899Z" fill="white"/>
<path d="M169.412 98.6013H324.075L184.668 102.366L256.042 103.508L172.739 108.415L169.412 98.6013Z" fill="black"/>
<path opacity="0.8" d="M169.412 98.6013H324.075L184.668 102.366L256.042 103.508L172.739 108.415L169.412 98.6013Z" fill="white"/>
<path d="M175.855 110.741L170.385 109.853C170.183 109.819 169.976 109.834 169.782 109.898C169.588 109.962 169.412 110.073 169.271 110.22L165.435 114.21C165.271 114.377 165.063 114.496 164.835 114.552C164.607 114.608 164.368 114.6 164.144 114.528C163.921 114.456 163.721 114.324 163.569 114.146C163.416 113.968 163.315 113.751 163.278 113.519L162.432 108.048C162.401 107.847 162.322 107.656 162.202 107.492C162.082 107.327 161.924 107.194 161.741 107.104L156.75 104.693C156.539 104.587 156.362 104.425 156.238 104.225C156.114 104.024 156.048 103.793 156.048 103.557C156.048 103.322 156.114 103.091 156.238 102.89C156.362 102.69 156.539 102.528 156.75 102.422L161.685 99.9408C161.868 99.8481 162.027 99.7125 162.147 99.5457C162.268 99.3788 162.346 99.1855 162.376 98.982L163.123 93.4971C163.153 93.2629 163.248 93.0417 163.397 92.8591C163.547 92.6765 163.745 92.5398 163.969 92.4647C164.193 92.3896 164.433 92.3791 164.663 92.4345C164.892 92.49 165.101 92.609 165.266 92.778L169.2 96.7119C169.343 96.8581 169.518 96.9678 169.712 97.0316C169.906 97.0954 170.113 97.1115 170.314 97.0785L175.771 96.0915C176.008 96.0313 176.257 96.0415 176.488 96.121C176.719 96.2004 176.922 96.3457 177.072 96.5389C177.222 96.732 177.312 96.9647 177.331 97.2084C177.35 97.452 177.298 97.696 177.181 97.9104L174.657 102.831C174.559 103.013 174.508 103.217 174.508 103.424C174.508 103.63 174.559 103.834 174.657 104.016L177.279 108.894C177.4 109.111 177.455 109.359 177.437 109.606C177.418 109.854 177.328 110.091 177.176 110.287C177.025 110.484 176.819 110.632 176.584 110.712C176.349 110.793 176.096 110.803 175.855 110.741Z" fill="black"/>
<path opacity="0.4" d="M175.855 110.741L170.385 109.853C170.183 109.819 169.976 109.834 169.782 109.898C169.588 109.962 169.412 110.073 169.271 110.22L165.435 114.21C165.271 114.377 165.063 114.496 164.835 114.552C164.607 114.608 164.368 114.6 164.144 114.528C163.921 114.456 163.721 114.324 163.569 114.146C163.416 113.968 163.315 113.751 163.278 113.519L162.432 108.048C162.401 107.847 162.322 107.656 162.202 107.492C162.082 107.327 161.924 107.194 161.741 107.104L156.75 104.693C156.539 104.587 156.362 104.425 156.238 104.225C156.114 104.024 156.048 103.793 156.048 103.557C156.048 103.322 156.114 103.091 156.238 102.89C156.362 102.69 156.539 102.528 156.75 102.422L161.685 99.9408C161.868 99.8481 162.027 99.7125 162.147 99.5457C162.268 99.3788 162.346 99.1855 162.376 98.982L163.123 93.4971C163.153 93.2629 163.248 93.0417 163.397 92.8591C163.547 92.6765 163.745 92.5398 163.969 92.4647C164.193 92.3896 164.433 92.3791 164.663 92.4345C164.892 92.49 165.101 92.609 165.266 92.778L169.2 96.7119C169.343 96.8581 169.518 96.9678 169.712 97.0316C169.906 97.0954 170.113 97.1115 170.314 97.0785L175.771 96.0915C176.008 96.0313 176.257 96.0415 176.488 96.121C176.719 96.2004 176.922 96.3457 177.072 96.5389C177.222 96.732 177.312 96.9647 177.331 97.2084C177.35 97.452 177.298 97.696 177.181 97.9104L174.657 102.831C174.559 103.013 174.508 103.217 174.508 103.424C174.508 103.63 174.559 103.834 174.657 104.016L177.279 108.894C177.4 109.111 177.455 109.359 177.437 109.606C177.418 109.854 177.328 110.091 177.176 110.287C177.025 110.484 176.819 110.632 176.584 110.712C176.349 110.793 176.096 110.803 175.855 110.741Z" fill="white"/>
<path d="M166.859 533.248C166.859 533.248 166.027 521.122 168.537 518.274C171.047 515.426 190.096 504.977 190.096 504.977C190.096 504.977 191.506 507.403 188.009 509.63L192.141 508.799C192.141 508.799 192.987 511.308 188.982 513.254C188.982 513.254 192.521 514.185 190.011 520.135C187.502 526.085 166.859 533.248 166.859 533.248Z" fill="black"/>
<path opacity="0.4" d="M166.859 533.248C166.859 533.248 166.027 521.122 168.537 518.274C171.047 515.426 190.096 504.977 190.096 504.977C190.096 504.977 191.506 507.403 188.009 509.63L192.141 508.799C192.141 508.799 192.987 511.308 188.982 513.254C188.982 513.254 192.521 514.185 190.011 520.135C187.502 526.085 166.859 533.248 166.859 533.248Z" fill="white"/>
<path d="M151.786 530.16C151.786 523.195 160.542 523.11 170.765 527.96C174.995 529.949 182.214 522.49 188.009 519.261C197.075 514.227 212.783 513.452 228.772 511.59C228.772 511.59 230.704 514.044 225.275 515.82L232.537 517.569C232.537 517.569 232.932 520.925 225.275 521.291C225.275 521.291 227.39 523.477 225.628 528.073C222.54 536.167 206.748 537.281 206.748 537.281C206.748 537.281 214.418 539.099 233.538 536.449C228.071 542.086 220.738 545.539 212.91 546.164L203.886 545.05C197.088 548.457 189.349 549.503 181.89 548.025C169.989 545.416 162.15 537.238 158.836 536.124C155.523 535.01 151.786 532.374 151.786 530.16Z" fill="black"/>
<path opacity="0.6" d="M233.524 536.406C228.067 542.056 220.738 545.524 212.91 546.163L203.886 545.05C197.088 548.457 189.349 549.503 181.89 548.025C180.285 547.661 178.707 547.19 177.166 546.615C167.902 543.245 161.656 537.055 158.836 536.096C155.494 534.982 151.786 532.345 151.786 530.118C151.786 523.152 160.542 523.068 170.765 527.918C174.995 529.906 182.214 522.447 188.009 519.218C197.075 514.185 212.783 513.409 228.772 511.548C228.772 511.548 230.704 514.001 225.275 515.778L232.537 517.526C232.537 517.526 232.932 520.882 225.275 521.249C225.275 521.249 227.39 523.434 225.628 528.031C224.387 531.274 221.116 533.389 217.633 534.757C214.135 536.076 210.473 536.911 206.748 537.238C206.748 537.238 214.418 539.057 233.524 536.406Z" fill="white"/>
<path d="M152.04 528.271C150.357 528.651 148.741 529.283 147.246 530.146C148.991 531.218 150.895 532.008 152.886 532.487L153.14 530.386L152.04 528.271Z" fill="black"/>
<path d="M155.734 528.059C155.734 528.369 155.579 528.623 155.396 528.623C155.213 528.623 155.043 528.369 155.043 528.059C155.043 527.749 155.199 527.481 155.396 527.481C155.593 527.481 155.734 527.735 155.734 528.059Z" fill="#263238"/>
<path opacity="0.2" d="M225.276 521.249C225.276 521.249 227.391 523.434 225.628 528.031C224.387 531.274 221.116 533.389 217.634 534.757L206.748 537.21C206.748 537.21 189.448 541.031 180.254 534.982C180.254 534.982 189.631 528.75 192.648 524.294C195.666 519.839 224.317 516.948 228.772 511.604C228.772 511.604 230.704 514.058 225.276 515.834L232.537 517.583C232.537 517.583 232.932 520.882 225.276 521.249Z" fill="black"/>
<path opacity="0.2" d="M233.524 536.406C228.067 542.056 220.739 545.524 212.91 546.163L203.886 545.05C197.088 548.457 189.349 549.503 181.89 548.025C180.286 547.661 178.708 547.19 177.167 546.615C182.498 547.496 187.945 547.395 193.241 546.319C198.447 545.158 203.288 542.737 207.341 539.269C207.341 539.269 226.657 540.213 233.524 536.406Z" fill="black"/>
<path d="M65.0712 349.68C65.0712 349.68 64.5777 342.447 66.0723 340.741C67.5669 339.034 78.9597 332.859 78.9597 332.859C78.9597 332.859 79.7916 334.269 77.7189 335.679L80.1864 335.171C80.1864 335.171 80.6799 336.666 78.297 337.836C78.297 337.836 80.3979 338.386 78.9033 341.939C77.4087 345.492 65.0712 349.68 65.0712 349.68Z" fill="black"/>
<path opacity="0.4" d="M65.0712 349.68C65.0712 349.68 64.5777 342.447 66.0723 340.741C67.5669 339.034 78.9597 332.859 78.9597 332.859C78.9597 332.859 79.7916 334.269 77.7189 335.679L80.1864 335.171C80.1864 335.171 80.6799 336.666 78.297 337.836C78.297 337.836 80.3979 338.386 78.9033 341.939C77.4087 345.492 65.0712 349.68 65.0712 349.68Z" fill="white"/>
<path d="M56.0757 347.875C56.0757 343.716 61.3068 343.645 67.3557 346.564C69.8655 347.748 74.1801 343.293 77.6487 341.375C83.049 338.372 92.4255 337.907 101.971 336.793C101.971 336.793 103.113 338.203 99.8844 339.302L104.213 340.346C104.213 340.346 104.453 342.348 99.8844 342.559C99.8844 342.559 101.139 343.871 100.096 346.62C98.2488 351.443 88.8159 352.105 88.8159 352.105C88.8159 352.105 93.3843 353.191 104.791 351.612C101.53 354.99 97.1481 357.061 92.4678 357.435L87.1662 356.73C83.1161 358.753 78.5099 359.378 74.0673 358.507C67.0173 356.941 62.3079 352.063 60.3057 351.457C58.3035 350.85 56.0898 349.201 56.0757 347.875Z" fill="black"/>
<path opacity="0.6" d="M104.862 351.612C101.601 354.99 97.2185 357.061 92.5383 357.435L87.1521 356.73C83.1067 358.752 78.5054 359.377 74.0673 358.507C73.1109 358.288 72.169 358.011 71.2473 357.675C65.7201 355.658 62.0259 352.035 60.3057 351.4C58.3176 350.738 56.0757 349.158 56.0757 347.833C56.0757 343.673 61.3068 343.603 67.3557 346.522C69.8655 347.706 74.1801 343.25 77.6487 341.333C83.049 338.33 92.4255 337.864 101.971 336.75C101.971 336.75 103.127 338.16 99.8844 339.26L104.213 340.304C104.213 340.304 104.453 342.306 99.8844 342.517C99.8844 342.517 101.139 343.828 100.096 346.564C99.6163 347.525 98.9447 348.377 98.1225 349.069C97.3003 349.76 96.3452 350.275 95.316 350.582C93.231 351.367 91.049 351.865 88.83 352.063C88.83 352.063 93.4548 353.191 104.862 351.612Z" fill="white"/>
<path d="M56.2306 346.761C55.24 346.989 54.2893 347.364 53.4106 347.875C54.4617 348.522 55.6086 348.998 56.8087 349.285L56.9497 348.03L56.2306 346.761Z" fill="black"/>
<path d="M58.4445 346.62C58.4445 346.818 58.3458 346.973 58.233 346.973C58.1202 346.973 58.0215 346.818 58.0215 346.62C58.0215 346.423 58.1202 346.282 58.233 346.282C58.3458 346.282 58.4445 346.437 58.4445 346.62Z" fill="#263238"/>
<path opacity="0.2" d="M99.9408 342.63C99.9408 342.63 101.196 343.941 100.152 346.677C99.6727 347.638 99.001 348.49 98.1789 349.181C97.3567 349.873 96.4015 350.388 95.3724 350.695L88.83 352.105C88.83 352.105 78.4947 354.389 73.0098 350.78C73.0098 350.78 78.6498 347.057 80.4123 344.393C82.1748 341.728 99.3063 340.022 101.971 336.793C101.971 336.793 103.127 338.203 99.8844 339.302L104.213 340.346C104.213 340.346 104.509 342.348 99.9408 342.63Z" fill="black"/>
<path opacity="0.2" d="M104.861 351.612C101.601 354.99 97.2183 357.061 92.5381 357.435L87.1519 356.73C83.1065 358.752 78.5051 359.377 74.0671 358.507C73.1106 358.288 72.1688 358.011 71.2471 357.675C74.4269 358.199 77.6757 358.142 80.8351 357.506C83.9595 356.811 86.8649 355.358 89.2951 353.276C89.2951 353.276 100.758 353.91 104.861 351.612Z" fill="black"/>
<path d="M73.3202 201.348L58.6421 194.129C58.6421 194.129 53.2982 187.079 50.7461 185.33C48.194 183.582 41.708 189.701 41.3414 191.492C40.9748 193.283 52.0574 201.108 52.0574 201.108L55.2722 201.235L71.9102 211.683L73.3202 201.348Z" fill="#EEC1BB"/>
<path d="M133.696 215.547C133.696 215.547 114.887 215.166 106.145 212.727C97.4028 210.287 62.5899 195.172 62.5899 195.172L60.8838 206.071C60.8838 206.071 93.5112 226.559 101.323 228.631C109.134 230.704 135.868 233.75 135.868 233.75L133.696 215.547Z" fill="#263238"/>
<path opacity="0.1" d="M135.868 233.778C135.868 233.778 125.998 232.65 116.438 231.296C110.332 230.422 104.382 229.463 101.323 228.66C93.5112 226.601 60.8838 206.1 60.8838 206.1L62.5899 195.2C62.5899 195.2 97.4169 210.358 106.145 212.755C114.873 215.152 133.696 215.575 133.696 215.575L134.993 226.516L135.868 233.778Z" fill="white"/>
<path opacity="0.2" d="M135.868 233.778C135.868 233.778 125.998 232.65 116.438 231.296C120.668 228.871 127.718 225.656 134.994 226.488L135.868 233.778Z" fill="black"/>
<path d="M274.259 210.908L267.054 207.453L261.076 216.914L255.591 225.6L263.473 231.085L269.183 220.397L274.259 210.908Z" fill="#EEC1BB"/>
<path d="M265.292 207.185C264.925 207.989 274.978 212.036 274.978 212.036C274.978 212.036 283.904 208.807 290.39 210.217C296.876 211.627 295.296 206.579 288.782 203.463L272.666 195.75C268.041 193.537 269.042 198.81 265.292 207.185Z" fill="#263238"/>
<path d="M281.309 211.993C281.625 212.119 281.888 212.347 282.056 212.642C282.137 212.835 282.156 213.049 282.111 213.253C282.065 213.458 281.958 213.643 281.803 213.784C281.699 213.91 281.57 214.012 281.424 214.085C281.279 214.158 281.119 214.199 280.957 214.207C280.129 214.153 279.334 213.87 278.658 213.389C279.25 214.193 279.702 215.039 279.476 215.575C279.25 216.111 278.997 216.082 278.447 216.082C278.205 216.086 277.965 216.037 277.744 215.94C277.523 215.842 277.325 215.699 277.164 215.518C276.12 214.334 276.374 211.683 276.388 211.542C276.377 211.51 276.377 211.476 276.388 211.444H276.487C278.114 211.338 279.747 211.524 281.309 211.993ZM279.659 213.291C280.044 213.504 280.475 213.62 280.914 213.629C281 213.627 281.084 213.607 281.162 213.571C281.24 213.534 281.309 213.482 281.365 213.418C281.633 213.093 281.563 212.924 281.535 212.882C281.267 212.275 279.222 211.965 277.488 211.881C278.16 212.426 278.888 212.899 279.659 213.291ZM277.953 215.406C278.108 215.476 278.277 215.51 278.447 215.504C278.616 215.504 278.898 215.504 278.954 215.349C279.138 214.898 278.108 213.474 276.924 212.233C276.831 213.247 277.063 214.265 277.587 215.138C277.694 215.246 277.817 215.337 277.953 215.406Z" fill="black"/>
<path opacity="0.2" d="M269.296 220.186L261.161 216.717L255.647 225.501L263.501 231.043L269.296 220.186Z" fill="black"/>
<path d="M268.718 223.993C268.718 223.993 264.065 232.453 257.833 242.816C252.504 251.877 246.687 260.642 240.405 269.07L240.052 269.521C237.962 272.323 235.601 274.911 233.002 277.248C227.052 282.197 217.196 282.888 207.369 281.478C197.217 279.955 187.107 276.134 181.382 272.327C176.686 269.275 172.419 265.61 168.692 261.428L175.813 242.041C175.813 242.041 193.508 246.75 222.78 258.608L223.527 258.918L237.261 242.703L256.62 219.805L268.718 223.993Z" fill="black"/>
<path d="M255.323 220.439L269.184 225.572L270.396 222.991L257.283 218.339L255.323 220.439Z" fill="black"/>
<path opacity="0.2" d="M240.053 269.521C237.962 272.323 235.601 274.911 233.003 277.248C227.052 282.197 217.196 282.888 207.369 281.478C202.536 277.571 198.291 272.988 194.763 267.872L182.778 266.053L194.58 263.233L240.053 269.521Z" fill="black"/>
<path opacity="0.2" d="M255.323 220.439L269.184 225.572L270.396 222.991L257.283 218.339L255.323 220.439Z" fill="black"/>
<path opacity="0.2" d="M257.833 242.816C252.505 251.877 246.687 260.642 240.405 269.07L221.681 260.751L222.78 258.608L223.528 258.918L237.261 242.703C242.351 242.59 249.909 242.52 257.833 242.816Z" fill="black"/>
<path d="M321.269 245.227L317.292 238.318L306.999 242.746L297.566 246.806L300.979 255.788L311.723 250.204L321.269 245.227Z" fill="#EEC1BB"/>
<path d="M315.981 237.091C315.234 237.543 321.241 246.567 321.241 246.567C321.241 246.567 330.42 248.95 334.974 253.786C339.528 258.622 341.079 253.56 337.47 247.3C333.86 241.039 331.097 236.274 328.53 231.79C325.964 227.306 323.779 232.34 315.981 237.091Z" fill="#263238"/>
<path d="M326.486 250.106C326.672 250.389 326.761 250.726 326.739 251.065C326.691 251.271 326.582 251.457 326.426 251.601C326.27 251.744 326.075 251.837 325.865 251.868C325.712 251.911 325.551 251.921 325.394 251.899C325.236 251.877 325.085 251.824 324.949 251.741C324.306 251.225 323.818 250.542 323.539 249.767C323.539 250.768 323.468 251.713 322.989 252.037C322.804 252.131 322.595 252.164 322.391 252.134C322.186 252.104 321.996 252.011 321.847 251.868C321.647 251.735 321.478 251.56 321.351 251.356C321.225 251.151 321.144 250.922 321.114 250.684C320.916 249.105 322.622 247.074 322.721 246.961C322.82 246.849 322.721 246.961 322.806 246.891H322.89C322.927 246.879 322.966 246.879 323.003 246.891C324.339 247.756 325.517 248.843 326.486 250.106ZM324.385 250.261C324.586 250.651 324.876 250.989 325.231 251.248C325.301 251.293 325.38 251.322 325.463 251.334C325.546 251.347 325.63 251.341 325.71 251.318C326.133 251.206 326.161 251.036 326.175 250.98C326.274 250.331 324.765 248.907 323.355 247.864C323.623 248.693 323.967 249.496 324.385 250.261ZM321.776 251.022C321.863 251.175 321.983 251.305 322.129 251.403C322.27 251.488 322.509 251.643 322.636 251.558C323.045 251.29 323.003 249.528 322.721 247.836C322.065 248.635 321.685 249.623 321.635 250.656C321.665 250.77 321.713 250.88 321.776 250.98V251.022Z" fill="black"/>
<path opacity="0.2" d="M311.935 250.078L307.197 242.633L297.666 246.75L301.021 255.76L311.935 250.078Z" fill="black"/>
<path d="M175.757 238.008C175.757 238.008 200.925 228.617 252.292 256.169L301.726 242.633L309.312 252.898C309.312 252.898 265.377 275.161 249.726 276.642C234.075 278.122 195.328 264.615 195.328 264.615L164.223 256.62L175.757 238.008Z" fill="black"/>
<path d="M299.456 241.998H302.417L310.821 253.053L307.86 254.773L299.456 241.998Z" fill="black"/>
<path opacity="0.2" d="M299.456 241.998H302.417L310.821 253.053L307.86 254.773L299.456 241.998Z" fill="black"/>
<path d="M199.839 235.16C199.839 235.16 195.172 259.243 176.814 262.923C173.911 263.546 170.916 263.613 167.988 263.12C165.198 262.591 162.54 261.517 160.166 259.959C157.793 258.401 155.75 256.389 154.155 254.04C153.182 252.723 152.355 251.305 151.688 249.81L178.337 236.316L180.537 235.188C183.986 234.481 187.483 234.033 190.999 233.849C194.425 233.679 197.851 233.933 199.839 235.16Z" fill="#263238"/>
<path opacity="0.2" d="M199.839 235.16C199.839 235.16 195.172 259.243 176.814 262.923C173.911 263.546 170.916 263.613 167.988 263.12C165.198 262.591 162.54 261.517 160.166 259.959C157.793 258.401 155.75 256.389 154.155 254.04C153.182 252.723 152.355 251.305 151.688 249.81L178.337 236.316L180.537 235.188C183.986 234.481 187.483 234.033 190.999 233.849C194.425 233.679 197.851 233.933 199.839 235.16Z" fill="white"/>
<path opacity="0.2" d="M183.497 250.712C178.21 256.352 173.275 260.582 167.987 263.12C165.198 262.591 162.54 261.517 160.166 259.959C157.793 258.4 155.75 256.389 154.155 254.04C161.888 247.689 169.961 241.763 178.337 236.288L180.536 235.16C183.985 234.453 187.483 234.005 190.999 233.82C192.225 237.261 190.872 242.83 183.497 250.712Z" fill="black"/>
<path d="M129.72 215.589C145.891 211.087 162.904 210.522 179.338 213.939C179.338 213.939 188.362 228.928 191.168 240.729C191.168 240.729 176.969 261.583 157.61 260.963C138.251 260.342 129.72 215.589 129.72 215.589Z" fill="#263238"/>
<path opacity="0.2" d="M191.126 240.757C191.126 240.757 176.927 261.611 157.568 260.991C138.208 260.371 129.72 215.589 129.72 215.589C145.891 211.087 162.904 210.522 179.338 213.939C183.577 221.107 187.128 228.661 189.941 236.499C190.35 237.923 190.801 239.362 191.126 240.757Z" fill="white"/>
<path opacity="0.2" d="M189.899 236.471C181.439 232.326 177.646 218.733 179.296 213.911C183.535 221.079 187.085 228.633 189.899 236.471Z" fill="black"/>
<path d="M127.394 194.425C127.394 194.425 125.984 168.481 148.685 174.685C177.265 182.553 160.303 216.844 146.245 212.29C132.188 207.735 127.394 194.425 127.394 194.425Z" fill="#263238"/>
<path d="M164.223 215.152C164.223 215.152 159.062 229.548 150.123 228.617C147.752 228.363 145.491 227.485 143.569 226.073C141.647 224.662 140.133 222.767 139.181 220.58C138.981 220.159 138.807 219.726 138.66 219.283C138.66 219.283 143.214 217.873 140.323 213.939L151.533 205.24C151.517 206.44 151.574 207.641 151.702 208.835C151.97 210.964 152.534 213.333 153.845 213.939C156.341 215.081 164.223 215.152 164.223 215.152Z" fill="#EEC1BB"/>
<path opacity="0.2" d="M151.688 208.835C150.786 213.953 147.966 221.779 139.167 220.58C138.967 220.159 138.792 219.726 138.646 219.283C138.646 219.283 143.2 217.873 140.309 213.939L151.519 205.24C151.503 206.44 151.559 207.641 151.688 208.835Z" fill="black"/>
<path d="M142.41 181.143C132.385 180.367 128.747 185.485 127.21 195.778C125.307 208.624 127.464 218.014 140.225 216.223C157.497 213.784 159.034 182.412 142.41 181.143Z" fill="#EEC1BB"/>
<path d="M133.696 195.708C132.778 197.142 131.695 198.462 130.467 199.642C130.726 200.081 131.102 200.438 131.553 200.675C132.003 200.912 132.511 201.018 133.019 200.981L133.696 195.708Z" fill="#D4827D"/>
<path d="M139.9 195.355C139.816 196.187 140.197 196.892 140.746 196.949C141.296 197.005 141.804 196.385 141.889 195.539C141.973 194.693 141.592 194.016 141.043 193.96C140.493 193.903 139.985 194.58 139.9 195.355Z" fill="#263238"/>
<path d="M141.268 194.03L139.59 193.17C139.59 193.17 140.295 194.749 141.268 194.03Z" fill="#263238"/>
<path d="M129.72 194.157C129.636 194.989 130.016 195.694 130.566 195.75C131.116 195.807 131.624 195.186 131.708 194.34C131.793 193.494 131.412 192.803 130.862 192.747C130.312 192.691 129.72 193.339 129.72 194.157Z" fill="#263238"/>
<path d="M131.13 192.832L129.41 191.957C129.41 191.957 130.087 193.551 131.13 192.832Z" fill="#263238"/>
<path d="M140.535 188.432C141.336 188.399 142.133 188.549 142.866 188.872C143.599 189.195 144.249 189.681 144.765 190.294" stroke="#263238" stroke-width="0.72468" stroke-linecap="round" stroke-linejoin="round"/>
<path d="M133.273 187.53C132.601 187.305 131.886 187.235 131.183 187.325C130.48 187.415 129.806 187.664 129.212 188.052" stroke="#263238" stroke-width="0.72468" stroke-linecap="round" stroke-linejoin="round"/>
<path d="M152.041 198.88C152.041 198.88 147.98 190.279 149.221 183.977C149.221 183.977 129.96 174.332 127.436 194.425C127.436 194.425 126.872 176.363 144.145 177.293C161.417 178.224 161.431 203.378 151.956 210.217C151.914 210.217 154.551 204.267 152.041 198.88Z" fill="#263238"/>
<path d="M150.235 200.883C150.423 199.729 151.058 198.696 152.004 198.01C152.95 197.323 154.128 197.038 155.283 197.217C158.371 197.795 159.358 204.267 151.504 205.24C150.376 205.366 149.841 204.238 150.235 200.883Z" fill="#EEC1BB"/>
<path d="M131.807 204.929C132.228 206.084 132.567 207.267 132.822 208.468H133.471C136.404 208.299 137.701 207.256 138.279 206.142C138.54 205.592 138.666 204.988 138.646 204.379C138.648 204.036 138.601 203.694 138.505 203.364C136.752 204.26 134.83 204.779 132.865 204.887L131.807 204.929Z" fill="#263238"/>
<path d="M132.808 204.859L133.132 205.888C135.952 205.733 137.828 205.24 138.646 204.351C138.648 204.008 138.601 203.666 138.505 203.336C136.734 204.239 134.793 204.758 132.808 204.859Z" fill="white"/>
<path d="M133.471 208.44C136.404 208.271 137.701 207.228 138.279 206.114C137.162 206.2 136.069 206.482 135.05 206.946C134.38 207.267 133.828 207.789 133.471 208.44Z" fill="#DE5753"/>
<path d="M159.612 183.3C159.612 183.3 161.022 175.305 170.399 175.305C179.775 175.305 180.988 180.466 188.898 181.044C196.808 181.622 201.264 176.137 201.264 171.865C201.264 171.865 203.774 173.909 202.462 178.182C203.397 176.977 203.862 175.474 203.774 173.952C203.774 173.952 207.482 179.267 202.096 187.629C196.709 195.99 184.259 196.342 179.296 193.988C166.606 188.009 161.375 192.578 161.375 192.578L159.612 183.3Z" fill="#263238"/>
<path d="M162.15 191.224C162.15 191.224 166.521 187.474 176.25 193.015C185.979 198.556 197.259 198.655 200.516 192.775" stroke="#263238" stroke-width="0.5" stroke-linecap="round" stroke-linejoin="round"/>
<path d="M202.547 205.31L186.445 202.49C186.445 202.49 179.395 197.273 176.391 196.286C173.388 195.299 168.932 203.012 169.087 204.831C169.243 206.65 182.088 211.049 182.088 211.049L185.204 210.273L204.196 215.589L202.547 205.31Z" fill="#EEC1BB"/>
<path d="M195.313 203.336L194.2 214.503L179.296 213.939C179.296 213.939 179.803 229.83 188.94 233.778C188.94 233.778 226.531 227.687 228.618 220.707C230.704 213.728 222.921 206.621 195.313 203.336Z" fill="#263238"/>
<path opacity="0.1" d="M228.632 220.707C226.545 227.687 188.954 233.778 188.954 233.778C179.803 229.858 179.296 213.939 179.296 213.939L188.531 214.292L194.171 214.503L195.285 203.336C222.921 206.621 230.733 213.714 228.632 220.707Z" fill="white"/>
<path opacity="0.2" d="M209.695 218.55C209.695 218.55 199.487 219.96 194.185 218.55C192.996 218.292 191.877 217.78 190.904 217.05C189.93 216.32 189.126 215.389 188.545 214.32L194.185 214.531L209.695 218.55Z" fill="black"/>
<path d="M388.285 480.429L387.341 470.94L373.974 470.686L361.707 470.489L361.002 481.938L375.44 481.148L388.285 480.429Z" fill="#EEC1BB"/>
<path d="M386.537 468.966C385.494 469.093 387.595 481.867 387.595 481.867C387.595 481.867 396.421 488.917 398.988 496.475C401.554 504.033 405.741 499.225 404.895 490.638C404.049 482.051 403.387 475.508 402.78 469.403C402.174 463.298 397.352 467.626 386.537 468.966Z" fill="#263238"/>
<path d="M391.557 488.297C391.62 488.698 391.55 489.109 391.36 489.467C391.207 489.668 390.998 489.819 390.759 489.9C390.52 489.98 390.263 489.987 390.02 489.919C389.829 489.888 389.647 489.818 389.485 489.713C389.322 489.609 389.183 489.473 389.075 489.312C388.622 488.445 388.417 487.469 388.483 486.492C388.018 487.592 387.44 488.579 386.763 488.678C386.326 488.748 385.931 488.494 385.593 487.945C385.44 487.699 385.343 487.422 385.309 487.135C385.275 486.847 385.304 486.556 385.395 486.281C385.945 484.476 388.807 483.108 388.948 483.038C388.995 483.025 389.043 483.025 389.089 483.038H389.16H389.259L389.357 483.136C390.378 484.719 391.122 486.464 391.557 488.297ZM389.16 487.437C389.182 487.959 389.332 488.467 389.597 488.917C389.649 489.003 389.718 489.076 389.801 489.132C389.884 489.188 389.978 489.226 390.076 489.242C390.598 489.326 390.711 489.143 390.753 489.087C391.19 488.438 390.246 486.154 389.259 484.335C389.119 485.363 389.086 486.402 389.16 487.437ZM385.945 486.986C385.963 487.192 386.031 487.39 386.143 487.564C386.241 487.733 386.439 488.015 386.622 487.987C387.186 487.888 388.032 485.956 388.54 483.982C387.694 484.462 386.312 485.392 386.002 486.45C385.956 486.625 385.951 486.808 385.987 486.986H385.945Z" fill="black"/>
<path opacity="0.2" d="M375.737 481.106L374.242 470.672L361.848 470.475L361.059 481.924L375.737 481.106Z" fill="black"/>
<path d="M233.453 400.976C233.453 400.976 265.46 403.119 307.817 458.391L368.292 467.979L371.492 482.883C371.492 482.883 312.709 485.491 294.957 479.4C277.206 473.309 241.659 439.539 241.659 439.539L211.739 415.569L233.453 400.976Z" fill="black"/>
<path opacity="0.6" d="M371.492 482.883C371.492 482.883 312.709 485.491 294.957 479.4C277.206 473.309 241.659 439.539 241.659 439.539L211.739 415.569L233.453 401.018C233.453 401.018 258.227 402.682 293.026 440.724C296.339 444.347 299.751 448.281 303.234 452.596C304.738 454.476 306.266 456.422 307.817 458.433L368.292 468.021L371.492 482.883Z" fill="white"/>
<path opacity="0.2" d="M303.234 452.61C293.928 454.189 281.21 453.428 265.813 445.348L285.835 439.539L293.026 440.738C296.339 444.305 299.752 448.239 303.234 452.61Z" fill="black"/>
<path d="M366.825 467.006L370.167 484.335L373.551 483.983L370.167 467.697L366.825 467.006Z" fill="black"/>
<path d="M424.917 416.331L420.137 408.068L407.856 413.356L396.59 418.22L400.665 428.95L413.496 422.281L424.917 416.331Z" fill="#EEC1BB"/>
<path d="M418.587 406.616C417.698 407.152 424.861 417.896 424.861 417.896C424.861 417.896 435.845 420.716 441.273 426.511C446.702 432.306 448.563 426.229 444.249 418.756C439.934 411.283 436.635 405.586 433.575 400.271C430.515 394.955 427.907 400.933 418.587 406.616Z" fill="#263238"/>
<path d="M431.121 422.168C431.352 422.502 431.462 422.905 431.431 423.31C431.373 423.556 431.242 423.778 431.056 423.949C430.87 424.12 430.638 424.231 430.388 424.269C430.203 424.317 430.01 424.327 429.821 424.297C429.632 424.268 429.45 424.201 429.288 424.1C428.51 423.493 427.914 422.683 427.568 421.759C427.568 422.944 427.483 424.086 426.905 424.452C426.539 424.706 426.073 424.636 425.495 424.269C425.26 424.107 425.06 423.899 424.91 423.656C424.759 423.413 424.661 423.142 424.621 422.859C424.381 420.984 426.426 418.544 426.539 418.417L426.651 418.333H426.75H426.863H426.99C428.582 419.358 429.98 420.657 431.121 422.168ZM428.625 422.337C428.861 422.805 429.204 423.211 429.627 423.522C429.712 423.575 429.807 423.611 429.907 423.625C430.006 423.64 430.108 423.633 430.205 423.606C430.712 423.465 430.74 423.268 430.755 423.197C430.881 422.422 429.091 420.73 427.441 419.475C427.74 420.468 428.142 421.427 428.64 422.337H428.625ZM425.509 423.254C425.611 423.436 425.757 423.591 425.932 423.705C426.087 423.818 426.384 423.987 426.539 423.888C427.018 423.564 426.962 421.463 426.637 419.447C425.862 420.379 425.407 421.536 425.34 422.746C425.364 422.925 425.421 423.097 425.509 423.254Z" fill="black"/>
<path opacity="0.2" d="M413.75 422.126L408.082 413.229L396.703 418.15L400.722 428.908L413.75 422.126Z" fill="black"/>
<path d="M190.787 396.548C190.787 396.548 189.053 422.154 187.276 423.536C185.499 424.918 155.368 446.406 155.368 446.406C155.368 446.406 144.962 448.084 141.648 449.762C138.335 451.44 141.141 461.747 142.819 463.143C144.497 464.539 158.991 457.291 158.991 457.291L160.937 453.978C160.937 453.978 193.607 435.253 196.652 433.589C199.698 431.925 206.748 402.696 206.748 402.696L190.787 396.548Z" fill="#EEC1BB"/>
<path d="M195.637 382.547C185.767 385.889 187.361 410.155 187.361 410.155L205.112 415.795L209.004 408.266L195.637 382.547Z" fill="black"/>
<path opacity="0.2" d="M195.637 382.547C185.767 385.889 187.361 410.155 187.361 410.155L205.112 415.795L209.004 408.266L195.637 382.547Z" fill="black"/>
<path d="M251.078 407.716C251.078 407.716 281.154 396.436 342.503 429.401L401.568 413.229L410.62 425.496C410.62 425.496 358.14 452.088 339.443 453.851C320.747 455.613 274.456 439.483 274.456 439.483L237.303 429.923L251.078 407.716Z" fill="black"/>
<path opacity="0.6" d="M251.078 407.716C251.078 407.716 281.154 396.436 342.503 429.401L401.568 413.229L410.62 425.496C410.62 425.496 358.14 452.088 339.443 453.851C320.747 455.613 274.456 439.483 274.456 439.483L237.303 429.923L251.078 407.716Z" fill="white"/>
<path d="M398.847 412.481H402.372L412.411 425.679L408.886 427.724L398.847 412.481Z" fill="black"/>
<path d="M205.112 331.886C205.112 331.886 220.439 325.922 231.634 336.116C238.684 342.517 255.21 358.027 263.853 352.74C272.496 347.452 286.413 342.672 292.857 349.243C292.857 349.243 282.267 348.538 276.966 352.74C276.966 352.74 287.005 349.92 290.629 352.74C294.252 355.56 299.836 354.305 299.836 354.305C299.836 354.305 304.489 369.251 279.842 371.041C279.842 371.041 292.532 373.594 298.44 368.616C298.44 368.616 300.118 379.262 271.382 382.589C242.647 385.917 217.619 381.024 211.739 372.466C205.86 363.907 205.112 331.886 205.112 331.886Z" fill="#263238"/>
<path d="M279.843 404.303C279.843 404.303 274.273 433.067 252.333 437.467C248.869 438.207 245.296 438.289 241.801 437.706C235.073 436.426 229.129 432.526 225.276 426.863C224.108 425.281 223.12 423.574 222.329 421.773L254.166 405.643L256.789 404.303C260.916 403.453 265.102 402.916 269.31 402.696C273.371 402.527 277.474 402.837 279.843 404.303Z" fill="black"/>
<path opacity="0.2" d="M260.328 422.887C254.011 429.655 248.117 434.632 241.801 437.706C235.073 436.426 229.129 432.525 225.275 426.863C234.511 419.267 244.155 412.183 254.166 405.643L256.789 404.303C260.916 403.453 265.102 402.916 269.31 402.696C270.72 406.813 269.126 413.468 260.328 422.887Z" fill="black"/>
<path d="M195.637 382.547C214.869 376.138 235.447 374.899 255.308 378.952C255.308 378.952 266.081 396.859 269.408 410.987C269.408 410.987 252.488 435.902 229.322 435.168C206.156 434.435 195.637 382.547 195.637 382.547Z" fill="black"/>
<path d="M245.819 383.294C245.819 383.294 224.57 368.25 208.229 382.547" stroke="#263238" stroke-width="0.5" stroke-linecap="round" stroke-linejoin="round"/>
<path d="M193.311 355.658C193.311 355.658 191.548 324.638 218.691 332.14C252.813 341.53 232.565 382.491 215.772 377.062C198.979 371.634 193.311 355.658 193.311 355.658Z" fill="#263238"/>
<path d="M237.303 380.404C237.303 380.404 231.127 397.606 220.383 396.492C217.551 396.187 214.85 395.138 212.554 393.451C210.259 391.765 208.45 389.501 207.312 386.89C207.073 386.386 206.866 385.868 206.692 385.339C206.692 385.339 212.134 383.717 208.68 378.952L222.061 368.56C222.047 369.996 222.118 371.432 222.272 372.86C222.583 375.398 223.259 378.233 224.839 378.952C227.884 380.319 237.303 380.404 237.303 380.404Z" fill="#EEC1BB"/>
<path opacity="0.2" d="M222.329 372.86C221.243 378.966 217.873 388.37 207.368 386.89C207.129 386.386 206.922 385.868 206.748 385.339C206.748 385.339 212.191 383.717 208.736 378.952L222.117 368.56C222.103 369.996 222.174 371.432 222.329 372.86Z" fill="black"/>
<path d="M211.204 339.81C199.219 338.893 194.862 345.013 193.043 357.294C190.759 372.649 193.339 383.873 208.553 381.729C229.266 378.768 231.099 341.29 211.204 339.81Z" fill="#EEC1BB"/>
<path d="M200.84 357.181C199.743 358.898 198.441 360.474 196.963 361.876C197.277 362.399 197.728 362.825 198.268 363.109C198.807 363.392 199.414 363.522 200.023 363.484L200.84 357.181Z" fill="#D4827D"/>
<path d="M208.243 356.73C208.144 357.717 208.595 358.563 209.258 358.634C209.92 358.704 210.527 357.957 210.668 356.97C210.809 355.983 210.315 355.137 209.653 355.066C208.99 354.996 208.341 355.771 208.243 356.73Z" fill="#263238"/>
<path d="M209.879 355.179L207.834 354.121C207.834 354.121 208.68 356.025 209.879 355.179Z" fill="#263238"/>
<path d="M195.99 355.32C195.891 356.293 196.342 357.153 197.005 357.209C197.668 357.266 198.274 356.533 198.415 355.56C198.556 354.587 198.062 353.727 197.4 353.656C196.737 353.586 196.145 354.347 195.99 355.32Z" fill="#263238"/>
<path d="M197.682 353.741L195.637 352.697C195.637 352.697 196.511 354.601 197.682 353.741Z" fill="#263238"/>
<path d="M209.004 348.496C209.961 348.452 210.915 348.628 211.793 349.012C212.671 349.396 213.448 349.977 214.066 350.709" stroke="#263238" stroke-width="0.72468" stroke-linecap="round" stroke-linejoin="round"/>
<path d="M200.333 347.325C199.531 347.056 198.678 346.971 197.839 347.076C196.999 347.181 196.194 347.473 195.482 347.932" stroke="#263238" stroke-width="0.72468" stroke-linecap="round" stroke-linejoin="round"/>
<path d="M222.78 360.96C222.78 360.96 217.93 350.681 219.354 343.152C219.354 343.152 196.357 331.618 193.339 355.644C193.339 355.644 192.648 334.057 213.291 335.157C233.933 336.257 233.947 366.332 222.611 374.496C222.583 374.51 225.741 367.39 222.78 360.96Z" fill="#263238"/>
<path d="M220.594 363.357C220.702 362.673 220.944 362.017 221.306 361.427C221.668 360.837 222.143 360.325 222.704 359.918C223.265 359.512 223.9 359.221 224.573 359.061C225.247 358.901 225.946 358.875 226.629 358.986C230.309 359.677 231.493 367.446 222.117 368.56C220.763 368.715 220.115 367.361 220.594 363.357Z" fill="#EEC1BB"/>
<path d="M198.57 368.193C199.081 369.571 199.486 370.985 199.783 372.423H200.573C204.083 372.226 205.634 371.013 206.311 369.603C206.62 368.947 206.77 368.227 206.748 367.502C206.751 367.092 206.694 366.684 206.579 366.29C204.464 367.372 202.142 367.988 199.769 368.095C199.036 368.179 198.57 368.193 198.57 368.193Z" fill="#263238"/>
<path d="M199.769 368.095L200.163 369.335C203.463 369.138 205.803 368.56 206.748 367.502C206.751 367.092 206.694 366.684 206.579 366.29C204.464 367.372 202.142 367.988 199.769 368.095Z" fill="white"/>
<path d="M200.572 372.381C204.083 372.184 205.634 370.971 206.311 369.561C204.975 369.661 203.667 369.995 202.448 370.548C201.644 370.945 200.987 371.587 200.572 372.381Z" fill="#DE5753"/>
<path d="M211.373 340.698C211.373 340.698 214.686 360.777 227.122 361.482C239.559 362.187 222.314 335.749 222.314 335.749C222.314 335.749 202.645 326.542 191.816 336.539C180.987 346.536 193.311 355.658 193.311 355.658C193.311 355.658 193.705 340.318 211.373 340.698Z" fill="#263238"/>
<path d="M211.599 339.302C211.599 339.302 209.103 352.655 218.55 358.14" stroke="#263238" stroke-width="0.5" stroke-linecap="round" stroke-linejoin="round"/>
<path d="M208.229 382.547C203.026 387.116 230.394 397.042 245.819 383.294" stroke="#263238" stroke-width="0.5" stroke-linecap="round" stroke-linejoin="round"/>
<path d="M245.143 383.28L250.374 381.151L252.108 382.547L250.754 384.31L245.143 383.28Z" fill="black"/>
<path opacity="0.6" d="M245.143 383.28L250.374 381.151L252.108 382.547L250.754 384.31L245.143 383.28Z" fill="white"/>
<path d="M271.425 383.252C271.425 383.252 298.468 389.456 303.389 390.753C308.31 392.05 343.222 407.039 343.222 407.039C343.222 407.039 355.7 402.301 357.124 403.697C358.549 405.093 361.665 412.157 361.354 413.891C361.044 415.626 343.476 419.01 342.616 418.432C341.391 417.226 340.264 415.924 339.246 414.54C339.246 414.54 304.616 402.4 298.102 400.948C291.588 399.495 269.437 397.564 269.437 397.564L271.425 383.252Z" fill="#EEC1BB"/>
<path d="M255.309 378.952C255.309 378.952 255.309 396.548 265.813 402.654L284.524 400.976L289.515 385.057C289.515 385.057 272.13 379.29 255.309 378.952Z" fill="black"/>
<path opacity="0.2" d="M255.309 378.952C255.309 378.952 255.309 396.548 265.813 402.654L284.524 400.976L289.515 385.057C289.515 385.057 272.13 379.29 255.309 378.952Z" fill="black"/>
<path d="M385.677 246.101V239.235C385.679 238.167 385.429 237.114 384.949 236.16C384.468 235.207 383.77 234.38 382.911 233.746C382.052 233.112 381.056 232.689 380.003 232.511C378.95 232.332 377.871 232.404 376.851 232.72C371.126 234.553 357.111 286.808 357.111 286.808C357.111 286.808 347.579 297.341 347.593 299.498C347.607 301.655 356.744 308.212 358.168 306.252C359.592 304.292 368.038 299.019 368.461 295.494C368.884 291.969 365.514 288.246 365.514 288.246C365.514 288.246 381.532 254.434 385.677 246.101Z" fill="#B97964"/>
<path opacity="0.1" d="M385.677 246.101V239.235C385.679 238.167 385.429 237.114 384.949 236.16C384.468 235.207 383.77 234.38 382.911 233.746C382.052 233.112 381.056 232.689 380.003 232.511C378.95 232.332 377.871 232.404 376.851 232.72C371.126 234.553 357.111 286.808 357.111 286.808C357.111 286.808 347.579 297.341 347.593 299.498C347.607 301.655 356.744 308.212 358.168 306.252C359.592 304.292 368.038 299.019 368.461 295.494C368.884 291.969 365.514 288.246 365.514 288.246C365.514 288.246 381.532 254.434 385.677 246.101Z" fill="black"/>
<path d="M383.929 276.712L377.034 262.711C377.034 262.711 375.483 250.388 386.411 248.71L394.406 251.53L383.929 276.712Z" fill="black"/>
<path opacity="0.5" d="M383.929 276.712L377.034 262.711C377.034 262.711 375.483 250.388 386.411 248.71L394.406 251.53L383.929 276.712Z" fill="white"/>
<path d="M558.515 429.274L554.398 439.948L529.356 431.291L533.474 420.617L558.515 429.274Z" fill="#B97964"/>
<path d="M553.651 440.428L550.493 426.906C550.443 426.685 550.469 426.454 550.566 426.25C550.664 426.045 550.826 425.879 551.028 425.778L560.433 421.266C560.839 421.078 561.303 421.059 561.723 421.212C562.143 421.365 562.485 421.679 562.675 422.084C562.732 422.195 562.774 422.314 562.802 422.436C563.746 426.821 564.212 430.078 565.509 435.563C566.299 438.961 569.048 449.085 570.134 453.752C571.22 458.419 566.75 460.111 565.904 458.306C562.026 450.157 557.937 444.305 554.821 442.134C554.229 441.734 553.811 441.124 553.651 440.428Z" fill="#263238"/>
<path d="M556.47 443.656C556.709 444.399 556.684 445.201 556.4 445.927C556.278 446.171 556.097 446.38 555.872 446.535C555.648 446.691 555.388 446.787 555.117 446.815C554.964 446.857 554.802 446.852 554.651 446.802C554.501 446.752 554.368 446.658 554.271 446.533C553.34 445.447 554.708 441.33 554.877 440.893C554.889 440.842 554.918 440.796 554.959 440.763C555 440.73 555.05 440.711 555.103 440.71C555.157 440.701 555.212 440.71 555.26 440.736C555.308 440.761 555.347 440.801 555.371 440.851C555.833 441.745 556.201 442.686 556.47 443.656ZM554.553 445.856C554.567 445.976 554.616 446.089 554.694 446.18C554.694 446.251 554.835 446.307 555.046 446.279C555.227 446.258 555.401 446.195 555.553 446.095C555.705 445.994 555.831 445.859 555.921 445.701C556.187 444.317 555.925 442.883 555.187 441.682C554.71 443.02 554.494 444.437 554.553 445.856Z" fill="black"/>
<path d="M555.399 440.907V441.034C555.032 442.317 553.101 445.123 551.874 445.165C551.668 445.173 551.466 445.108 551.304 444.982C551.141 444.855 551.029 444.676 550.986 444.474C550.916 444.28 550.888 444.072 550.902 443.866C550.917 443.66 550.974 443.459 551.07 443.276C551.817 441.753 554.948 440.738 555.103 440.681C555.144 440.658 555.19 440.646 555.237 440.646C555.284 440.646 555.33 440.658 555.371 440.681C555.398 440.712 555.415 440.749 555.421 440.79C555.426 440.83 555.418 440.871 555.399 440.907ZM551.409 444.15V444.277C551.493 444.615 551.691 444.601 551.775 444.601C552.522 444.601 554.045 442.726 554.595 441.372C553.343 441.746 552.233 442.488 551.409 443.501C551.339 443.712 551.339 443.939 551.409 444.15Z" fill="black"/>
<path opacity="0.2" d="M533.488 420.617L529.371 431.291L542.286 435.746L546.403 425.073L533.488 420.617Z" fill="black"/>
<path d="M545.289 422.45L536.716 436.465C536.716 436.465 477.637 422.845 465.568 400.581C456.586 384.028 453.696 353.614 452.807 339.091C452.497 334.071 452.427 330.955 452.427 330.955L444.968 300.33L498.35 306.379C498.35 306.379 488.396 338.344 486.38 362.863C485.59 372.536 486.027 381.038 488.805 385.973C498.618 403.387 545.289 422.45 545.289 422.45Z" fill="#263238"/>
<path opacity="0.2" d="M498.35 306.337C498.35 306.337 488.396 338.301 486.38 362.821C481.998 356.456 478.974 349.256 477.496 341.671C470.446 342.588 460.252 340.769 452.807 339.049C452.497 334.029 452.427 330.913 452.427 330.913L444.968 300.33L498.35 306.337Z" fill="black"/>
<path d="M625.899 432.87L618.102 441.231L598.08 423.874L605.877 415.499L625.899 432.87Z" fill="#B97964"/>
<path d="M617.228 441.4L619.328 427.681C619.361 427.454 619.472 427.245 619.642 427.091C619.811 426.936 620.03 426.846 620.259 426.835L630.651 426.144C631.099 426.121 631.538 426.275 631.873 426.573C632.208 426.872 632.412 427.29 632.441 427.738C632.455 427.859 632.455 427.982 632.441 428.104C631.694 432.532 630.919 435.732 630.073 441.302C629.551 444.742 628.31 455.162 627.591 459.9C626.872 464.637 622.078 464.553 621.951 462.536C621.387 453.541 619.766 446.589 617.721 443.417C617.306 442.832 617.13 442.111 617.228 441.4Z" fill="#263238"/>
<path d="M618.637 445.447C618.577 446.224 618.26 446.958 617.735 447.534C617.53 447.714 617.283 447.839 617.017 447.898C616.751 447.958 616.474 447.949 616.212 447.872C616.055 447.853 615.907 447.788 615.786 447.686C615.666 447.583 615.579 447.447 615.535 447.294C615.07 445.884 617.876 442.641 618.2 442.275C618.232 442.232 618.276 442.2 618.326 442.182C618.376 442.165 618.431 442.163 618.482 442.176C618.533 442.195 618.578 442.227 618.613 442.269C618.648 442.311 618.671 442.362 618.68 442.416C618.779 443.425 618.764 444.441 618.637 445.447ZM616.043 446.773C616.008 446.887 616.008 447.01 616.043 447.125C616.043 447.196 616.113 447.294 616.339 447.351C616.513 447.398 616.696 447.404 616.872 447.367C617.048 447.33 617.214 447.252 617.354 447.139C618.118 445.954 618.41 444.525 618.172 443.135C617.233 444.198 616.51 445.433 616.043 446.773Z" fill="black"/>
<path d="M618.68 442.486V442.627C617.862 443.685 615.028 445.56 613.872 445.151C613.684 445.068 613.53 444.924 613.435 444.742C613.34 444.56 613.31 444.351 613.35 444.15C613.354 443.944 613.402 443.741 613.492 443.556C613.582 443.371 613.712 443.208 613.872 443.078C615.141 441.922 618.426 442.148 618.595 442.162C618.645 442.168 618.691 442.186 618.731 442.216C618.77 442.246 618.802 442.285 618.821 442.331C618.79 442.395 618.741 442.449 618.68 442.486ZM613.745 444.065V444.15C613.745 444.488 613.886 444.559 613.956 444.573C614.661 444.841 616.776 443.685 617.82 442.655C616.523 442.532 615.22 442.808 614.083 443.445C613.901 443.605 613.781 443.825 613.745 444.065Z" fill="black"/>
<path opacity="0.2" d="M605.891 415.513L598.094 423.888L608.429 432.828L616.226 424.452L605.891 415.513Z" fill="black"/>
<path d="M613.646 418.206L600.251 431.883C600.251 431.883 548.081 399.256 529.652 378.303C521.855 369.434 492.992 329.672 486.098 320.155L484.603 318.096L449.099 291.87L474.93 251.516C474.93 251.516 486.21 254.801 498.9 266.109C500.776 267.773 502.679 269.62 504.54 271.665C511.869 279.618 517.795 288.758 522.067 298.694C523.195 301.251 524.252 303.94 525.239 306.76C546.911 368.715 613.646 418.206 613.646 418.206Z" fill="#263238"/>
<path d="M381.814 269.07C381.814 269.07 394.18 247.92 433.744 244.677C473.309 241.434 504.019 264.713 504.019 264.713C504.019 264.713 511.872 314.162 471.885 327.867C457.446 332.816 441.217 324.793 441.217 324.793L437.65 308.226C437.65 308.226 386.622 284.651 381.814 269.07Z" fill="black"/>
<path opacity="0.8" d="M502.524 292.956C500.183 302.544 495.474 312.696 486.098 320.169C481.847 323.546 477.036 326.152 471.885 327.867C457.446 332.816 441.217 324.793 441.217 324.793L437.65 308.226C437.65 308.226 386.622 284.651 381.814 269.07C381.814 269.07 394.18 247.92 433.744 244.677C473.309 241.434 504.019 264.713 504.019 264.713C504.019 264.713 504.019 265.024 504.131 265.602C504.272 266.73 504.498 268.859 504.583 271.679C504.87 278.832 504.177 285.99 502.524 292.956Z" fill="white"/>
<path d="M473.76 240.504C473.76 240.504 504.047 227.193 511.083 225.106C518.119 223.02 568.075 266.081 568.075 266.081C568.075 266.081 584.911 270.128 586.405 272.271C587.9 274.414 583.162 287.344 580.399 286.371C577.635 285.398 565.509 285.835 562.618 282.592C559.728 279.349 560.616 273.272 560.616 273.272C560.616 273.272 512.07 244.846 509.25 243.549C507.107 242.52 479.4 257.184 479.4 257.184L473.76 240.504Z" fill="#B97964"/>
<path opacity="0.2" d="M522.109 298.708C515.482 297.143 508.945 295.222 502.524 292.956C472.646 282.31 465.004 269.479 465.004 269.479L498.844 266.123L504.075 265.602C504.216 266.73 504.442 268.859 504.526 271.679C511.875 279.628 517.821 288.768 522.109 298.708Z" fill="black"/>
<path d="M412.623 275.063C410.031 275.51 407.367 275.252 404.91 274.316C397.226 271.496 392.854 263.12 392.854 263.12C394.871 252.503 405.46 248.484 414.526 247.836C418.377 247.44 422.268 247.833 425.961 248.992C433.35 251.882 425.017 272.962 412.623 275.063Z" fill="#B97964"/>
<path opacity="0.2" d="M404.91 274.315C397.226 271.495 392.854 263.12 392.854 263.12C394.871 252.503 405.46 248.484 414.526 247.836C415.866 254.026 416.599 266.264 404.91 274.315Z" fill="black"/>
<path d="M390.387 269.155C390.908 276.402 404.233 291.264 422.676 300.711C422.676 300.711 399.509 296.481 387.961 282.268C376.414 268.055 380.644 263.797 390.316 259.708L390.387 269.155Z" fill="black"/>
<path opacity="0.4" d="M390.387 269.155C390.908 276.402 404.233 291.264 422.676 300.711C422.676 300.711 399.509 296.481 387.961 282.268C376.414 268.055 380.644 263.797 390.316 259.708L390.387 269.155Z" fill="white"/>
<path d="M413.877 246.327C430.191 245.03 428.584 251.304 436.931 261.499C453.95 282.268 545.289 279.363 545.289 279.363C545.289 279.363 526.452 253.997 496.32 245.34C466.188 236.683 413.877 246.327 413.877 246.327Z" fill="black"/>
<path opacity="0.4" d="M413.877 246.327C430.191 245.03 428.584 251.304 436.931 261.499C453.95 282.268 545.289 279.363 545.289 279.363C545.289 279.363 526.452 253.997 496.32 245.34C466.188 236.683 413.877 246.327 413.877 246.327Z" fill="white"/>
<path d="M380.7 269.155C380.7 269.155 380.545 252.982 402.851 244.367C425.158 235.752 445.039 256.479 445.039 256.479L436.72 255.718L437.002 261.499C437.002 261.499 422.902 250.36 409.718 251.53C396.535 252.7 390.457 269.155 390.457 269.155L384.817 263.515L380.7 269.155Z" fill="black"/>
<path opacity="0.5" d="M380.7 269.155C380.7 269.155 380.545 252.982 402.851 244.367C425.158 235.752 445.039 256.479 445.039 256.479L436.72 255.718L437.002 261.499C437.002 261.499 422.902 250.36 409.718 251.53C396.535 252.7 390.457 269.155 390.457 269.155L384.817 263.515L380.7 269.155Z" fill="white"/>
<path d="M381.01 226.742C381.01 226.742 378.19 242.435 386.411 248.71C394.631 254.984 395.378 225.67 395.378 225.67L381.01 226.742Z" fill="#263238"/>
<path d="M410.31 261.865C408.489 264.413 405.881 266.293 402.888 267.215C399.895 268.137 396.682 268.051 393.743 266.969C389.914 265.65 386.736 262.916 384.86 259.327C384.589 258.835 384.349 258.326 384.14 257.804C380.277 248.075 379.403 231.198 389.78 225.163C392.057 223.821 394.639 223.082 397.281 223.018C399.924 222.954 402.538 223.566 404.878 224.797C407.217 226.027 409.203 227.835 410.647 230.048C412.091 232.262 412.946 234.807 413.13 237.444C414.103 248.738 415.203 255.323 410.31 261.865Z" fill="#B97964"/>
<path d="M396.591 243.028C396.788 243.93 396.351 244.748 395.745 244.832C395.138 244.917 394.56 244.24 394.419 243.338C394.278 242.435 394.673 241.618 395.265 241.533C395.857 241.448 396.45 242.111 396.591 243.028Z" fill="#263238"/>
<path d="M386.34 244.522C386.537 245.41 386.086 246.242 385.494 246.327C384.902 246.412 384.31 245.735 384.183 244.818C384.056 243.902 384.436 243.098 385.029 243.013C385.621 242.929 386.143 243.648 386.34 244.522Z" fill="#263238"/>
<path d="M389.611 244.494C388.936 247.451 387.849 250.299 386.382 252.954C387.071 253.316 387.832 253.521 388.609 253.555C389.387 253.589 390.162 253.451 390.88 253.151L389.611 244.494Z" fill="#A24E3F"/>
<path d="M399.312 239.235C399.216 239.262 399.115 239.263 399.018 239.238C398.922 239.214 398.833 239.164 398.762 239.094C398.288 238.607 397.708 238.237 397.067 238.011C396.426 237.786 395.742 237.713 395.068 237.796C394.928 237.826 394.781 237.799 394.661 237.721C394.541 237.643 394.456 237.521 394.426 237.381C394.397 237.24 394.424 237.094 394.502 236.974C394.58 236.853 394.702 236.769 394.842 236.739C395.692 236.615 396.559 236.694 397.372 236.968C398.185 237.243 398.923 237.705 399.524 238.318C399.574 238.368 399.614 238.427 399.641 238.493C399.668 238.558 399.682 238.628 399.682 238.699C399.682 238.77 399.668 238.84 399.641 238.905C399.614 238.97 399.574 239.03 399.524 239.08L399.312 239.235Z" fill="#263238"/>
<path d="M381.335 241.603C381.229 241.638 381.116 241.638 381.01 241.603C380.876 241.561 380.764 241.468 380.698 241.344C380.633 241.22 380.618 241.075 380.658 240.941C380.902 240.116 381.341 239.361 381.937 238.741C382.533 238.12 383.269 237.651 384.084 237.373C384.222 237.339 384.369 237.359 384.492 237.43C384.616 237.501 384.707 237.617 384.747 237.754C384.778 237.892 384.756 238.037 384.686 238.16C384.615 238.283 384.501 238.374 384.366 238.417C383.734 238.649 383.165 239.025 382.702 239.514C382.24 240.003 381.897 240.593 381.701 241.237C381.671 241.321 381.622 241.398 381.559 241.461C381.496 241.525 381.419 241.573 381.335 241.603Z" fill="#263238"/>
<path d="M402.922 224.655L402.781 229.675C403.659 229.995 404.384 230.635 404.812 231.465C405.241 232.296 405.341 233.257 405.093 234.159C403.881 238.501 406.884 244.748 410.338 247.032C410.338 247.032 410.254 245.213 411.833 245.495C413.412 245.777 415.076 254.265 415.076 254.265C415.076 254.265 418.925 253.01 420.533 242.872C422.013 233.496 418.079 228.349 415.866 224.994L402.922 224.655Z" fill="#263238"/>
<path d="M390.387 255.971C391.015 257.212 391.548 258.499 391.98 259.821L392.713 259.708C395.999 259.144 397.338 257.804 397.817 256.479C398.046 255.833 398.113 255.141 398.015 254.463C397.97 254.074 397.871 253.695 397.719 253.335C395.845 254.572 393.731 255.399 391.515 255.76C390.824 255.915 390.387 255.971 390.387 255.971Z" fill="#263238"/>
<path d="M391.515 255.76L392.008 256.888C395.096 256.352 397.197 255.562 398.015 254.463C397.97 254.074 397.871 253.695 397.719 253.335C395.845 254.572 393.731 255.399 391.515 255.76Z" fill="white"/>
<path d="M392.713 259.708C395.999 259.144 397.338 257.804 397.818 256.479C396.573 256.716 395.38 257.169 394.293 257.818C393.585 258.271 393.033 258.931 392.713 259.708Z" fill="#DE5753"/>
<path d="M402.781 229.675C399.058 228.815 389.936 229.351 383.421 232.735C383.421 232.735 380.432 232.467 378.895 225.91C377.358 219.354 381.8 215.899 383.125 216.731C384.451 217.563 381.476 218.733 381.349 220.58C381.349 220.58 389.104 217.309 390.133 212.98C391.162 208.652 394.236 207.34 395.547 209.004C396.859 210.668 391.98 215.166 391.98 215.166C391.98 215.166 397.62 215.377 400.567 211.105C403.514 206.833 408.477 204.817 409.732 206.523C410.987 208.229 404.698 209.667 402.978 211.824C402.978 211.824 412.524 208.215 416.627 210.978C420.73 213.742 419.898 214.954 417.008 214.292C414.831 214.037 412.627 214.435 410.677 215.434C410.677 215.434 417.981 215.434 420.716 218.508C423.451 221.581 426.624 219.847 427.371 221.497C428.118 223.147 422.281 223.668 422.281 223.668C422.281 223.668 425.538 226.39 429.063 225.276C432.588 224.162 433.758 229.59 425.439 227.969C425.439 227.969 425.651 233.609 428.682 234.314C431.714 235.019 430.445 237.472 428.288 237.021C426.13 236.57 424.128 233.722 424.128 233.722C424.128 233.722 427.78 240.024 426.215 242.182C424.65 244.339 423.395 239.206 423.395 239.206C423.395 239.206 425.157 247.286 423.931 247.666C422.704 248.047 421.252 245.058 421.252 245.058C421.252 245.058 422.972 250.698 420.645 251.685C418.827 252.274 416.909 252.49 415.005 252.319C415.005 252.319 409.38 231.24 402.781 229.675Z" fill="#263238"/>
<path d="M419.376 245.932C418.494 248.648 416.573 250.904 414.032 252.207C410.662 253.913 408.251 251.065 408.562 247.497C408.886 244.325 410.987 239.517 414.681 239.347C418.375 239.178 420.405 242.59 419.376 245.932Z" fill="#B97964"/>
<path d="M453.104 242.28C453.104 242.28 451.694 260.286 473.746 265.559L501.946 251.22L495.15 230.394L453.104 242.28Z" fill="black"/>
<path opacity="0.5" d="M453.104 242.28C453.104 242.28 451.694 260.286 473.746 265.559L501.946 251.22L495.15 230.394L453.104 242.28Z" fill="white"/>
</svg>
