<svg width="523" height="552" viewBox="0 0 523 552" fill="none" xmlns="http://www.w3.org/2000/svg">
<path fill-rule="evenodd" clip-rule="evenodd" d="M110.631 22.9544C129.656 8.96743 151.385 2.05243 177.788 2.05243C196.653 2.05243 217.908 5.58643 242.249 12.5944C258.104 17.1599 272.523 21.0416 285.531 24.5018C282.414 23.7717 279.215 23.028 275.927 22.2636C262.138 19.0586 246.508 15.4246 228.986 10.9326C112.37 -18.9628 84.867 40.4555 34.9387 148.322L34.936 148.328C32.428 153.747 29.862 159.29 27.225 164.952C-2.24903 228.231 -16.391 264.711 -17.039 300.879C-17.698 337.617 -4.78802 373.19 30.594 432.132C65.985 491.089 90.784 518.324 122.095 532.616C123.057 533.055 124.025 533.481 125 533.895C115.27 531.423 106.439 528.27 98.0843 524.262C65.3313 508.552 40.2043 480.28 5.37027 419.947C-29.4637 359.614 -41.3847 323.717 -38.6137 287.498C-35.8817 251.785 -18.5317 216.285 16.9123 154.895C20.0973 149.378 23.1983 143.976 26.2293 138.695L26.2333 138.688C56.0204 86.7957 79.5477 45.8084 110.631 22.9544ZM145.138 537.888C143.393 537.626 141.676 537.349 139.987 537.058C134.023 535.356 128.38 533.286 122.925 530.796C92.027 516.692 67.466 489.672 32.309 431.103C-2.85803 372.519 -15.691 337.235 -15.04 300.916C-14.398 265.107 -0.315029 228.815 29.038 165.796C31.551 160.401 33.9986 155.113 36.3939 149.939L36.751 149.168L36.7532 149.163C61.4041 95.9072 80.8748 53.8429 108.231 29.5296C126.549 13.2476 148.296 5.27063 175.819 5.27063C191.386 5.27063 208.804 7.82363 228.489 12.8706C243.195 16.6402 256.565 19.8049 268.633 22.6195C265.836 22.0619 262.968 21.495 260.024 20.9131L260.021 20.9124L260.018 20.9118L259.965 20.9014L259.964 20.9012C247.141 18.3668 232.61 15.4947 216.3 11.8578C107.495 -12.4044 85.3303 48.2708 45.0918 158.42L45.0878 158.431L45.0689 158.482C43.0529 164 40.9912 169.643 38.8708 175.409C15.1058 240.013 4.02377 277.118 5.32077 313.253C6.63778 349.957 20.3588 384.852 55.9448 442C91.4863 499.077 115.681 525.093 145.138 537.888ZM161.736 539.893C158.951 539.629 156.237 539.34 153.588 539.024C151.044 538.151 148.549 537.184 146.088 536.12C117.351 523.692 92.5528 497.006 57.6428 440.944C22.2618 384.124 8.62278 349.497 7.31977 313.182C6.03477 277.38 17.0758 240.453 40.7478 176.099C42.6883 170.823 44.579 165.65 46.4312 160.582L46.4375 160.565L46.4453 160.544L46.9668 159.117C66.8288 104.745 82.5168 61.7998 106.375 36.2058C131.358 9.40283 165.126 2.49383 215.864 13.8098C229.513 16.853 241.912 19.3608 253.107 21.5829C250.576 21.1719 247.983 20.7553 245.322 20.3279L245.252 20.3166C233.345 18.4034 219.852 16.2353 204.688 13.3909C103.349 -5.61756 86.1559 56.0606 54.9445 168.03L54.942 168.039C53.375 173.661 51.772 179.412 50.121 185.287C31.671 250.939 23.432 288.521 26.513 324.531C29.603 360.64 44.53 395.996 79.753 450.636C113.235 502.574 136.086 527.624 161.736 539.893ZM177.563 541.093C174.254 540.897 171.039 540.677 167.91 540.429C167.822 540.394 167.734 540.358 167.646 540.322C140.609 529.3 116.437 503.851 81.434 449.552C45.95 394.508 31.605 360.577 28.506 324.362C25.451 288.657 33.663 251.243 52.047 185.828C53.5841 180.356 55.0796 174.993 56.544 169.741L56.869 168.576L56.8706 168.57C72.2728 113.315 84.4387 69.67 105.018 42.9619C121.141 22.0369 142.365 12.0099 171.819 12.0099C181.688 12.0099 192.486 13.1369 204.319 15.3569C216.955 17.7272 228.425 19.6273 238.786 21.3012C236.512 21.0219 234.184 20.74 231.797 20.4512L231.786 20.4498C220.732 19.1118 208.202 17.5948 194.098 15.4808C99.8941 1.3584 87.3233 63.7938 64.5041 177.13L64.5013 177.144L64.4539 177.379C63.323 182.996 62.1666 188.74 60.9733 194.607C47.4603 261.047 41.8583 298.968 46.5733 334.77C51.3003 370.668 66.8623 405.25 102.079 458.115C133.464 505.226 155.035 529.195 177.563 541.093ZM193.102 541.812C189.524 541.686 186.047 541.54 182.665 541.371C159.117 530.463 136.432 506.073 103.743 457.005C68.2573 403.737 53.3003 370.537 48.5563 334.508C44.8283 306.207 46.0303 278.114 62.9333 195.005C64.1433 189.055 65.3163 183.232 66.4623 177.539C77.7223 121.612 86.6163 77.4368 104.128 49.7708C122.422 20.8698 150.079 10.9078 193.801 17.4578C205.509 19.2132 216.127 20.5569 225.718 21.7275C223.646 21.5608 221.525 21.394 219.352 21.2231L219.35 21.2229L219.332 21.2215C209.111 20.4178 197.528 19.5071 184.468 18.0749C97.0798 8.49931 88.7979 71.4629 73.7631 185.767L73.7613 185.781L73.7125 186.152C72.973 191.772 72.217 197.517 71.4343 203.385C62.4973 270.378 59.3363 308.51 65.5383 344.024C71.7593 379.636 87.8643 413.415 122.981 464.504C152.525 507.485 172.962 530.302 193.102 541.812ZM247.757 542.468C245.435 542.474 243.077 542.477 240.684 542.477C224.861 542.477 210.605 542.342 197.647 541.958C176.724 531.259 155.327 508.03 124.629 463.371C89.2363 411.881 73.7553 379.441 67.5093 343.68C62.6023 315.589 62.2353 287.47 73.4163 203.65C74.2023 197.763 74.9605 192 75.702 186.363L75.7022 186.362L75.7443 186.042C83.1623 129.642 89.0223 85.0939 103.667 56.6149C116.815 31.0459 137.052 19.1329 168.223 19.1329C173.272 19.1329 178.611 19.4449 184.25 20.0639C197.299 21.4936 208.868 22.4041 219.079 23.2079L219.194 23.2169L219.195 23.217C278.721 27.8989 298.774 29.4762 356.121 112.904C392.124 165.281 410.952 196.216 420.574 230.353C430.339 264.993 430.713 302.283 421.954 367.942C413.314 432.708 403.309 466.352 386.271 487.936C369.306 509.427 345.003 520.04 300.211 534.396C298.55 534.928 296.915 535.448 295.306 535.956C293.704 536.351 292.078 536.748 290.426 537.149C288.609 537.59 286.821 538.02 285.061 538.438C283.281 538.753 281.473 539.068 279.638 539.385C277.631 539.732 275.657 540.069 273.714 540.396C271.769 540.616 269.794 540.836 267.79 541.056C265.568 541.3 263.383 541.536 261.233 541.763C259.129 541.88 256.993 541.995 254.825 542.109C252.43 542.234 250.075 542.354 247.757 542.468ZM274.937 544.177C325.385 543.138 357.155 539.013 384.148 526.065C417.307 510.161 442.67 481.671 477.729 420.947C512.789 360.223 524.78 324.013 521.975 287.344C519.213 251.248 501.785 215.552 466.187 153.895C409.238 55.2554 379.977 47.4914 293.119 24.4474L293.063 24.4326C278.289 20.5122 261.547 16.0696 242.802 10.6724C118.031 -25.2532 84.808 32.6252 24.4971 137.695L24.4953 137.698C21.4643 142.979 18.3643 148.38 15.1793 153.895C-20.4187 215.552 -37.8457 251.247 -40.6077 287.344C-43.4137 324.013 -31.4217 360.223 3.63728 420.947C38.6973 481.671 64.0603 510.161 97.2193 526.065C109.812 532.105 123.443 536.225 139.526 539.008C146.432 540.974 153.756 542.451 161.698 543.516C168.14 545.144 174.939 546.264 182.281 546.945C188.28 548.259 194.578 549.05 201.352 549.378C206.955 550.406 212.807 550.895 219.074 550.895C219.179 550.895 219.283 550.895 219.388 550.894C223.058 551.399 226.804 551.636 230.638 551.636C244.104 551.636 258.665 548.71 274.937 544.177ZM293.133 541.626C335.56 538.108 362.888 532.331 385.837 518.794C415.483 501.307 437.299 471.63 466.332 409.296C495.359 346.978 504.48 310.25 499.985 273.783C495.56 237.882 477.682 203.08 441.755 143.227C401.816 76.6921 376.448 53.3146 337.516 38.9267C391.36 55.7896 419.043 76.2376 464.455 154.895C499.898 216.285 517.248 251.786 519.98 287.498C522.752 323.717 510.831 359.614 475.997 419.947C441.163 480.28 416.035 508.552 383.283 524.262C359.987 535.437 332.983 539.968 293.133 541.626ZM387.016 511.441C366.6 526.093 341.749 533.181 302.863 538.743C339.421 535.172 364.003 529.351 384.82 517.072C414.076 499.815 435.677 470.375 464.52 408.453C493.369 346.513 502.444 310.08 497.999 274.028C493.618 238.485 475.82 203.862 440.04 144.256C394.333 68.1098 367.855 48.9224 317.787 34.6912C354.161 47.2061 378.675 69.3877 418.75 133.747C454.888 191.782 473.132 225.671 479.076 261.3C485.111 297.485 478.655 334.591 455.252 398.209C431.84 461.855 413.346 492.543 387.016 511.441ZM311.919 535.353C347.296 527.93 369.736 519.649 387.72 504.039C410.926 483.896 426.313 452.359 444.49 387.676C462.657 323.032 466.648 285.677 459.212 249.846C451.889 214.561 433.356 181.601 397.12 125.392C357.011 63.173 333.336 42.1532 299.365 31.3818C345.878 43.1793 371.189 61.1507 417.053 134.805C453.048 192.611 471.215 226.333 477.103 261.629C483.075 297.433 476.644 334.263 453.375 397.518C430.415 459.934 411.483 491.418 385.85 509.816C367.417 523.044 345.199 530.033 311.919 535.353ZM387.984 496.611C371.586 513.791 349.345 523.236 321.031 531.302C350.662 524.45 370.39 516.433 386.409 502.529C408.992 482.926 424.736 450.573 442.565 387.135C460.636 322.834 464.617 285.735 457.253 250.253C449.995 215.278 431.537 182.473 395.439 126.476C349.582 55.3399 325.403 38.5131 282.293 28.9609C313.956 38.1167 336.801 58.0264 376.811 118.088C413.041 172.473 431.792 204.492 440.364 239.366C449.067 274.777 447.356 312.264 434.051 377.681C420.737 443.144 408.251 475.377 387.984 496.611ZM328.222 527.025C353.773 517.612 373.686 507.108 387.842 489.175C405.348 466.997 415.132 434.211 423.936 368.205C432.735 302.249 432.346 264.74 422.499 229.81C417.652 212.614 410.176 195.402 398.969 175.64C388.397 156.997 374.853 136.625 357.769 111.771C317.915 53.7902 295.881 34.9723 266.361 27.3284C306.307 34.8046 329.392 50.5106 375.147 119.196C411.245 173.384 429.921 205.259 438.422 239.844C447.048 274.936 445.332 312.186 432.092 377.283C419.03 441.499 406.258 474.569 386.537 495.23C372.596 509.837 354.957 518.778 328.222 527.025Z" fill="url(#paint0_linear_7_5)"/>
<defs>
<linearGradient id="paint0_linear_7_5" x1="-44.7663" y1="300.204" x2="243.352" y2="577.921" gradientUnits="userSpaceOnUse">
<stop stop-color="#5D5DFF" stop-opacity="0.01"/>
<stop offset="1" stop-color="#5D5DFF" stop-opacity="0.32"/>
</linearGradient>
</defs>
</svg>
