<svg width="566" height="467" viewBox="0 0 566 467" fill="none" xmlns="http://www.w3.org/2000/svg">
<path fill-rule="evenodd" clip-rule="evenodd" d="M28.9994 -82.5176L44.2028 -90.9438L150.289 -27.498L167.059 -17.381L174.43 -12.923L183.394 -7.49011C192.678 -1.84177 202.5 4.24219 212.075 10.7685C213.421 11.6848 214.763 12.6124 216.101 13.5491C221.573 17.418 226.831 21.5085 231.84 25.7922C236.843 30.071 241.602 34.5462 246.08 39.1876C254.966 48.4294 263.551 58.9716 272.324 71.4181C277.704 79.0503 283.047 86.9963 288.271 94.8354L292.164 100.688C293.645 102.916 295.126 105.145 296.61 107.37L298.039 109.501C306.581 122.163 314.545 132.61 322.344 141.384C331.541 151.733 341.537 160.249 352.074 166.716L353.183 167.388C364.13 173.934 376.773 178.937 390.762 182.259C403.022 185.171 416.485 187.271 433.13 188.865L447.667 190.247C457.298 191.169 467.084 192.15 476.607 193.331C491.827 195.218 505.281 197.865 517.736 201.422C530.229 205.006 542.71 209.931 554.829 216.055C565.451 221.465 575.843 227.382 585.618 233.101L589.315 235.271C599.548 241.304 609.755 247.355 619.947 253.4L726.51 317.115L726.205 334.455L615.318 268.136C610.458 265.251 605.592 262.366 600.722 259.482L589.27 252.707L581.532 248.137L578.947 246.62C567.429 239.882 557.398 234.266 546.824 229.14C534.532 223.219 521.672 218.664 508.604 215.601C495.976 212.643 482.077 210.56 466.109 209.233C458.874 208.632 451.493 208.118 444.214 207.636L430.416 206.729L421.753 206.145C419.71 206.002 417.706 205.847 415.737 205.681C401.94 204.515 389.935 202.776 379.189 200.391C365.658 197.389 353.444 192.734 342.87 186.55L341.831 185.934C331.142 179.512 321.05 170.839 311.833 160.156C303.643 150.663 295.44 139.349 286.751 125.567C284.838 122.534 282.934 119.489 281.032 116.441L274.508 105.975C270.807 100.049 267.038 94.0529 263.266 88.2196C254.638 74.8746 246.338 63.6822 237.893 54.0023C229.133 43.9623 219.196 34.8184 208.359 26.8239C197.636 18.9714 186.323 11.9012 175.695 5.43002C167.582 0.499359 159.471 -4.40063 151.374 -9.28606L142.533 -14.6182L28.9994 -82.5176ZM61.4223 -100.497L159.022 -42.126C167.286 -37.1462 175.568 -32.1565 183.857 -27.1422L192.148 -22.1191C202.081 -16.0875 213.755 -8.90053 225.015 -1.3231C236.177 6.22972 246.525 14.4438 255.772 23.0924C265.168 31.9113 274.428 42.0407 283.297 53.2006C290.702 62.5175 297.996 72.3851 305.099 82.0901L308.78 87.1282C318.505 100.44 326.944 110.807 335.338 119.754C344.701 129.735 354.76 138.049 365.258 144.487L366.463 145.217C377.404 151.755 389.934 156.93 403.704 160.6C415.567 163.76 428.759 166.3 445.222 168.596L451.202 169.431C463.211 171.116 475.478 172.901 487.461 175.094C501.593 177.681 515.003 181.121 527.313 185.317C539.567 189.517 551.471 194.706 563.703 201.184C575.739 207.579 587.302 214.298 598.006 220.605L607.031 225.942C611.84 228.786 616.647 231.631 621.446 234.478L630.652 239.941L665.084 260.529L726.836 297.461L726.532 314.799L635.414 260.303L634.409 259.704C630.977 257.651 627.553 255.603 624.117 253.546C616.619 249.098 609.119 244.648 601.607 240.205L590.262 233.508L586.617 231.369C576.818 225.635 566.397 219.701 555.726 214.267C543.497 208.087 530.899 203.118 518.279 199.495C505.725 195.91 492.172 193.242 476.846 191.343C466.111 190.011 455.055 188.934 444.263 187.91L433.314 186.871C416.764 185.285 403.389 183.2 391.217 180.309C377.812 177.121 365.668 172.378 355.106 166.201L354.016 165.555C343.315 159.125 333.163 150.548 323.846 140.06C315.657 130.844 307.295 119.789 298.281 106.265L296.057 102.926L293.836 99.5846C287.381 89.8737 280.706 79.8318 273.966 70.2698C265.133 57.7432 256.485 47.1244 247.527 37.8043C243.253 33.3744 238.716 29.1003 233.961 24.9915C228.651 20.4009 223.071 16.0248 217.246 11.9088C215.886 10.9564 214.521 10.0121 213.15 9.07867C203.5 2.50262 193.694 -3.56793 184.44 -9.19466L183.105 -10.0029C178.096 -13.0442 173.086 -16.0765 168.081 -19.1L151.269 -29.2436L46.2184 -92.0695L61.4223 -100.497ZM78.6544 -110.049L167.766 -56.7561C176.035 -51.777 184.32 -46.7888 192.613 -41.7782L203.966 -34.9037C212.632 -29.6356 223.327 -23.054 233.926 -16.183C240.346 -11.9926 246.349 -7.79239 252.046 -3.51382L254.317 -1.80054L254.868 -1.37161C258.487 1.41478 261.99 4.23781 265.388 7.12096C275.158 15.4203 284.869 24.8136 294.248 35.0419C296.437 37.4329 298.603 39.8459 300.773 42.3059L302.401 44.1608C307.293 49.7549 312.246 55.6243 317.599 62.0685L321.988 67.3688L322.74 68.2739C332.512 80.0299 340.864 89.2577 348.9 97.1857C350.463 98.7298 352.045 100.222 353.637 101.683L354.834 102.773C355.385 103.271 355.931 103.783 356.485 104.272L357.397 105.054C364.43 111.182 371.694 116.564 379.105 121.106L380.428 121.907C391.349 128.434 403.72 133.847 417.2 137.996C419.321 138.65 421.497 139.29 423.739 139.923L425.521 140.421C434.503 142.901 444.533 145.245 456.374 147.639L457.564 147.878C470.674 150.507 484.682 153.42 498.276 156.895C499.967 157.33 501.65 157.776 503.323 158.232C515.034 161.429 526.282 165.152 536.826 169.323C548.549 173.985 560.242 179.546 572.572 186.32C579.014 189.882 585.476 193.557 591.844 197.21L600.702 202.304L606.832 205.833L727.195 277.82L726.893 295.156L632.894 238.936L622.469 232.76C617.667 229.911 612.857 227.064 608.043 224.217C605.036 222.438 602.041 220.655 599.028 218.878L595.422 216.757C585.725 211.067 575.379 205.115 564.647 199.411C552.322 192.885 540.324 187.653 527.967 183.421C515.562 179.191 502.058 175.727 487.828 173.122C474.808 170.74 461.473 168.84 448.494 167.028L445.506 166.611C429.123 164.327 416.007 161.8 404.226 158.661C390.636 155.041 378.279 149.938 367.498 143.495L367.244 143.343C356.561 136.924 346.321 128.527 336.803 118.382C328.874 109.929 320.896 100.19 311.81 87.8612L310.334 85.8496L306.783 80.9912C299.649 71.2405 292.321 61.3256 284.871 51.9514C275.933 40.7081 266.605 30.5071 257.146 21.6281C247.821 12.9067 237.39 4.62561 226.142 -2.98593C214.952 -10.5202 203.693 -17.458 193.192 -23.8341C185.092 -28.7499 176.995 -33.6373 168.911 -38.511L160.023 -43.8681L63.4519 -101.622L78.6544 -110.049ZM80.6777 -111.17L95.8816 -119.597L209.719 -51.5116L214.495 -48.559L225.108 -42.0089C230.976 -38.3839 236.932 -34.6904 242.798 -30.996C254.815 -23.3734 265.309 -16.0666 274.881 -8.66138C284.9 -0.906036 295.022 7.81712 304.966 17.2625L306.646 18.8687C315.864 27.7165 324.652 36.7502 331.671 44.0763L336.075 48.6751C343.484 56.3782 352.766 65.7771 362.519 74.5443C364.417 76.2516 366.333 77.8966 368.258 79.5127C376.366 86.3362 384.664 92.3664 393.019 97.474L394.523 98.3873C405.379 104.88 417.563 110.574 430.738 115.314C443.153 119.782 455.875 123.53 466.204 126.425L472.886 128.283C487.306 132.307 498.505 135.674 508.859 139.093C521.917 143.414 534.491 148.269 546.23 153.522C557.359 158.532 568.87 164.415 581.423 171.508C587.341 174.874 593.31 178.317 599.179 181.716L612.061 189.181C613.235 189.86 614.408 190.539 615.579 191.215L727.533 258.172L727.231 275.507L607.851 204.107L601.442 200.422L595.326 196.901C588.147 192.773 580.831 188.599 573.537 184.568C561.111 177.741 549.344 172.146 537.563 167.462C536.047 166.863 534.517 166.272 532.973 165.692C522.164 161.625 510.683 158.021 498.773 154.958C489.679 152.633 480.414 150.565 471.352 148.662C468.33 148.027 465.33 147.409 462.368 146.808L456.718 145.667L454.31 145.175C442.795 142.799 433.034 140.469 424.295 138.002C422.066 137.373 419.902 136.734 417.789 136.083C404.449 131.975 392.224 126.628 381.454 120.19L381.194 120.034C370.521 113.621 360.129 105.456 350.304 95.7628L349.132 94.5984C341.299 86.7713 333.099 77.6398 323.495 66.0531L320.878 62.8895C311.809 51.9392 303.945 42.6675 295.722 33.6898C286.29 23.4041 276.52 13.9519 266.682 5.59663C265.003 4.17183 263.297 2.76294 261.566 1.3651L259.334 -0.425888C257.671 -1.74405 255.97 -3.05075 254.253 -4.35197C248.222 -8.92039 241.856 -13.3956 235.016 -17.8599L233.128 -19.0806C221.8 -26.3811 210.579 -33.2383 201.944 -38.4699C190.881 -45.1736 179.824 -51.8301 168.766 -58.4885L80.6777 -111.17ZM113.109 -129.143L218.465 -66.1313L225.397 -61.8733L232.34 -57.6189C238.773 -53.6805 245.211 -49.7362 251.639 -45.7596L253.863 -44.3728C265.598 -37.034 275.298 -30.5977 284.234 -24.2239C294.6 -16.8239 305.075 -8.67622 315.369 -0.00611877L317.121 1.47437C327.026 9.8743 336.546 18.4162 344.058 25.2325L347.942 28.7568C355.695 35.7738 365.424 44.4045 375.648 52.7131C385.982 61.1085 396.064 68.276 406.41 74.5779L407.928 75.4948L408.151 75.6286C419.107 82.1799 430.761 88.0054 443.777 93.4381L445.904 94.3203C457.607 99.1417 469.381 103.451 478.897 106.842L485.727 109.271C495.508 112.766 507.414 117.116 519.141 121.789C531.757 126.819 543.988 132.258 555.491 137.958L557.358 138.889C567.342 143.896 577.85 149.604 590.236 156.743C594.628 159.285 599.011 161.837 603.39 164.392L609.957 168.226C614.747 171.024 619.534 173.821 624.315 176.599L727.88 238.539L727.578 255.868L616.597 189.492L611.454 186.517L597.425 178.387C592.446 175.507 587.413 172.609 582.413 169.765C569.806 162.642 558.24 156.732 547.055 151.696C535.254 146.415 522.616 141.535 509.493 137.192L507.319 136.48C495.001 132.469 482.728 128.947 472.843 126.192L466.645 124.467C456.34 121.575 443.686 117.843 431.42 113.431C418.821 108.898 407.138 103.484 396.671 97.3311L395.189 96.4504C384.575 90.0732 374.037 82.2037 363.862 73.0565C354.111 64.2838 344.874 54.9317 337.511 47.2747L331.909 41.4278C324.661 33.8801 315.698 24.71 306.35 15.812C296.353 6.31581 286.178 -2.45094 276.111 -10.2449C266.52 -17.6678 255.976 -25.0098 243.872 -32.6886C237.025 -37.0009 230.061 -41.3085 223.257 -45.507L220.352 -47.2993C217.158 -49.27 213.965 -51.2396 210.765 -53.2211L97.9096 -120.72L113.109 -129.143ZM130.332 -138.692L260.603 -60.7821C263.29 -59.0379 265.985 -57.3038 268.684 -55.5726L272.733 -52.9771C279.542 -48.6166 286.583 -44.107 293.438 -39.5415C303.309 -32.966 313.391 -25.8119 323.435 -18.2531L325.443 -16.736C335.008 -9.48386 344.44 -1.99518 352.25 4.28156L360.09 10.599C368.077 17.0191 377.892 24.7892 387.949 32.2634C399.157 40.6012 409.955 47.8615 420.879 54.3844C431.832 60.9355 443.322 67.0097 456.001 72.9536L458.07 73.9196C468.419 78.7295 478.797 83.2269 487.528 86.9346L497.476 91.1396C509.932 96.4206 519.846 100.77 529.122 105.017C541.466 110.691 553.414 116.613 564.634 122.622C570.083 125.542 575.557 128.569 580.935 131.565L592.747 138.154C594.902 139.353 597.054 140.546 599.203 141.729L728.212 218.887L727.909 236.217L625.342 174.873L618.29 170.766L611.241 166.651C606.803 164.06 602.364 161.467 597.919 158.881L591.242 155.008L588.933 153.682C576.731 146.694 566.335 141.1 556.387 136.165C544.878 130.46 532.598 124.998 519.887 119.929L517.784 119.095C506.569 114.67 495.453 110.616 486.267 107.336L476.938 104.014C467.361 100.579 455.863 96.3148 444.553 91.5919C432.339 86.4939 420.882 80.8073 410.479 74.6791L408.741 73.6459C398.45 67.4625 388.439 60.4323 378.196 52.1945L376.915 51.1584C368.835 44.5944 360.385 37.2975 349.856 27.785L342.525 21.1414C334.989 14.335 325.89 6.23462 316.663 -1.53627C306.293 -10.267 295.777 -18.4479 285.401 -25.8536L283.712 -27.0527C274.653 -33.4542 264.74 -39.9761 252.698 -47.4614C248.409 -50.1142 244.117 -52.7516 239.825 -55.3827L233.391 -59.3258C228.761 -62.1614 224.135 -64.9944 219.508 -67.8423L115.133 -130.268L130.332 -138.692ZM725.843 354.075L606.672 282.801L598.643 278.046C592.903 274.644 587.161 271.242 581.412 267.844L572.783 262.751L570.562 261.448C560.825 255.745 549.653 249.395 537.927 243.97C525.683 238.364 512.59 234.187 499.013 231.553C486.302 229.087 472.16 227.418 455.777 226.45C450.641 226.146 445.425 225.873 440.273 225.613L427.57 224.979C422.067 224.701 416.496 224.407 411.016 224.076C394.733 223.093 380.764 221.287 368.311 218.556C354.385 215.501 341.869 210.69 331.11 204.258L330.894 204.128C320.217 197.712 310.144 189.031 300.959 178.322C292.658 168.649 284.502 157.261 276.022 143.512C272.437 137.706 268.844 131.754 265.336 125.926L260.084 117.199C257.728 113.291 255.34 109.347 252.965 105.474C244.453 91.5896 236.402 79.9926 228.352 70.0199C219.701 59.3012 209.99 49.7752 199.486 41.7019C188.862 33.5826 177.575 26.4916 166.96 20.0367C159.498 15.5063 152.038 11.0004 144.589 6.50647L133.793 -0.00299072L11.7768 -72.9772L26.968 -81.3968L141.494 -12.9046L142.24 -12.4551C153.021 -5.9528 163.833 0.565842 174.647 7.13799L178.008 9.19061C187.589 15.064 197.609 21.4325 207.165 28.4354C217.868 36.3294 227.696 45.3737 236.377 55.3169C244.75 64.906 252.993 76.0237 261.578 89.3038C265.37 95.1696 269.163 101.203 272.886 107.165L276.583 113.095C279.4 117.615 282.217 122.136 285.052 126.633L286.465 128.86C294.686 141.727 302.502 152.41 310.311 161.463C319.41 172.016 329.36 180.638 339.903 187.108L340.981 187.761C351.934 194.307 364.641 199.213 378.748 202.344C389.581 204.747 401.673 206.499 415.56 207.672C417.544 207.84 419.564 207.996 421.623 208.14L430.309 208.727L444.116 209.634C451.373 210.116 458.729 210.627 465.935 211.225C481.803 212.544 495.609 214.612 508.139 217.548C521.083 220.585 533.803 225.091 545.944 230.941C556.811 236.203 567.163 242.029 579.211 249.098L584.103 251.979L592.367 256.861L601.305 262.156C605.74 264.785 610.11 267.38 614.36 269.906L726.145 336.763L725.843 354.075ZM725.718 363.039L716.337 368.239L597.926 297.421L593.218 294.626C586.75 290.787 580.277 286.945 573.795 283.108L564.064 277.358C553.791 271.304 541.767 264.377 529.067 258.77C517.011 253.485 503.741 249.6 489.625 247.221C476.951 245.083 462.677 243.641 445.99 242.809C442.864 242.654 439.734 242.507 436.603 242.362L424.269 241.793C416.587 241.433 408.8 241.041 401.171 240.553C385.092 239.524 371.175 237.634 358.624 234.778C345.157 231.708 332.973 227.017 322.392 220.832L321.291 220.179C310.607 213.759 300.503 205.133 291.257 194.54C282.831 184.888 274.623 173.586 266.163 159.991C260.658 151.144 255.184 141.965 249.89 133.086C247.655 129.336 245.419 125.589 243.178 121.857C234.641 107.65 226.726 95.8369 218.978 85.7428C210.319 74.4686 200.785 64.6441 190.639 56.5385C180.228 48.2837 168.908 41.1398 158.225 34.65C150.46 29.9388 142.697 25.2532 134.946 20.5813L125.053 14.6203L5.46271 -56.9022L5.68254 -69.5972L9.74351 -71.8493L132.751 1.71664L133.65 2.25916C144.38 8.72974 155.141 15.2188 165.907 21.7524C176.503 28.1982 187.755 35.2695 198.256 43.2949C208.632 51.2703 218.231 60.6872 226.782 71.2837C234.772 81.1832 242.776 92.7097 251.248 106.524C253.617 110.389 256 114.326 258.352 118.228L265.364 129.877C268.314 134.77 271.312 139.718 274.306 144.568C282.862 158.436 291.079 169.904 299.427 179.631C308.516 190.22 318.466 198.864 329.02 205.343L330.071 205.98C341.025 212.526 353.742 217.417 367.869 220.514C380.416 223.268 394.488 225.088 410.883 226.08C417.454 226.475 424.153 226.818 430.708 227.146L440.123 227.615C445.282 227.875 450.507 228.149 455.648 228.452C471.946 229.416 486.003 231.075 498.62 233.523C512.062 236.132 525.003 240.26 537.078 245.794C548.426 251.043 559.148 257.061 571.757 264.481C583.039 271.13 594.29 277.806 605.521 284.471L725.836 356.428L725.718 363.039ZM699.085 377.784L589.157 312.041C577.895 305.344 566.616 298.642 555.304 291.961L552.791 290.48C542.679 284.542 531.872 278.457 520.22 273.501C508.261 268.452 494.886 264.741 480.466 262.474C467.769 260.477 453.877 259.128 436.747 258.226L422.08 257.463C412.131 256.938 402.019 256.364 392.164 255.596C376.337 254.365 362.542 252.276 349.988 249.209C336.303 245.868 323.878 240.894 313.051 234.426L312.814 234.283C302.085 227.836 291.918 219.318 282.592 208.961C273.987 199.401 265.66 188.302 257.137 175.028C250.975 165.428 244.892 155.417 238.978 145.633L233.936 137.287L232.649 135.167C224.757 122.224 217.768 111.722 210.838 102.391L209.826 101.033C201.125 89.4411 191.697 79.4432 181.801 71.3166C172.169 63.4281 161.91 56.7927 149.471 49.2552C138.395 42.5487 127.329 35.8848 116.289 29.2431L5.10368 -37.2536L5.40603 -54.5925L124.008 16.3384L141.032 26.6025C146.408 29.8472 151.789 33.0994 157.171 36.3625L159.955 38.0604C169.745 44.0565 179.947 50.6255 189.377 58.1079C199.399 66.1084 208.819 75.8177 217.374 86.9654L218.66 88.654C225.958 98.3143 233.428 109.538 241.447 122.89C242.93 125.358 244.409 127.833 245.887 130.311L248.104 134.029C253.42 142.944 258.916 152.162 264.448 161.051C272.973 174.741 281.243 186.127 289.733 195.858C298.852 206.314 308.817 214.888 319.365 221.362L320.472 222.033C331.433 228.584 344.113 233.529 358.162 236.731C370.798 239.611 384.819 241.515 401.026 242.553C408.657 243.041 416.44 243.433 424.117 243.794L431.749 244.146C436.461 244.363 441.172 244.578 445.874 244.812L448.618 244.954C464.042 245.795 477.367 247.186 489.276 249.196C503.232 251.548 516.344 255.387 528.245 260.606C539.981 265.785 551.157 272.118 560.893 277.828L563.031 279.086C569.317 282.793 575.592 286.509 581.858 290.226L596.876 299.137L714.287 369.358L699.085 377.784ZM681.874 387.347L546.632 306.462L543.203 304.479C533.549 298.909 522.826 292.899 511.45 288.171C499.594 283.245 486.196 279.577 471.628 277.27L469.873 276.998C458.112 275.204 445.13 273.865 429.289 272.811L419.724 272.184C407.828 271.396 395.713 270.538 383.96 269.374C368.433 267.835 354.802 265.472 342.286 262.15C328.801 258.57 316.448 253.458 305.572 246.959L305.314 246.804C294.543 240.332 284.298 231.948 274.858 221.881C266.037 212.472 257.545 201.645 248.897 188.779C242.086 178.642 235.491 168.182 229.082 157.907L225.26 151.769C216.226 137.256 208.512 125.835 200.982 115.827C192.204 104.161 182.803 94.1209 173.041 85.9895C162.525 77.2295 150.856 69.9729 140.743 63.8579C129.667 57.1604 118.6 50.5063 107.551 43.863L4.76558 -17.6088L5.06775 -34.9396L115.266 30.9651C126.302 37.6052 137.366 44.2686 148.439 50.9734L150.806 52.4128C162.116 59.3211 171.611 65.56 180.537 72.8692C190.32 80.9103 199.637 90.7916 208.232 102.242L208.771 102.964L209.312 103.692C216.562 113.469 223.874 124.523 232.219 138.316L235.302 143.414C237.324 146.763 239.374 150.149 241.435 153.542C244.369 158.372 247.333 163.22 250.331 168.016C251.073 169.203 251.822 170.369 252.567 171.548L254.489 174.594L255.458 176.114C264.034 189.477 272.425 200.66 281.112 210.307C290.302 220.513 300.303 228.962 310.857 235.439L312.031 236.151C323.026 242.72 335.639 247.77 349.517 251.16C362.182 254.253 376.082 256.359 392.014 257.598C401.882 258.366 411.998 258.941 421.949 259.466L436.648 260.232C453.668 261.123 467.494 262.466 480.16 264.457C494.418 266.7 507.637 270.365 519.445 275.35C531.939 280.664 543.511 287.324 554.293 293.69C565.603 300.371 576.882 307.072 588.14 313.768L697.07 378.915L681.874 387.347ZM664.633 396.884L537.888 321.082L534.463 319.089C524.818 313.491 514.106 307.45 502.747 302.711C490.959 297.791 477.611 294.046 463.074 291.581L461.442 291.308C450.221 289.459 437.656 287.948 422.222 286.588L419.942 286.39C414.813 285.951 409.728 285.509 404.687 285.048L402.005 284.801C399.768 284.592 397.543 284.377 395.324 284.157C393.393 283.965 391.468 283.768 389.549 283.565C388.151 283.418 386.755 283.267 385.364 283.113C383.733 282.931 382.105 282.745 380.483 282.553L376.396 282.061C361.158 280.153 347.714 277.478 335.295 273.883C322.009 270.037 309.737 264.778 298.818 258.255C287.899 251.719 277.469 243.43 267.83 233.592C258.812 224.389 250.134 213.871 241.301 201.439C240.091 199.736 238.888 198.02 237.69 196.297C231.784 187.801 225.975 179.025 220.401 170.497L215.737 163.35C209.493 153.813 203.922 145.693 198.665 138.478L198.103 137.709C196.171 135.068 194.281 132.55 192.414 130.128C183.494 118.552 174.047 108.593 164.338 100.531C154.361 92.2478 143.819 85.5963 132.057 78.3687L4.4225 2.03644L4.72639 -15.2933L106.534 45.5939C117.567 52.2285 128.632 58.8802 139.708 65.5786L141.808 66.852C151.35 72.6561 162.067 79.461 171.76 87.5345C181.396 95.5606 190.689 105.487 199.384 117.039L200.427 118.433C207.569 128.026 214.954 139.01 223.56 152.834L227.401 159.001C233.838 169.32 240.454 179.815 247.238 189.903C255.948 202.863 264.505 213.773 273.398 223.257C282.674 233.152 292.724 241.443 303.29 247.924L304.546 248.685C315.579 255.279 328.104 260.462 341.772 264.091C354.39 267.443 368.124 269.824 383.761 271.372C396.764 272.661 410.192 273.574 423.282 274.432L427.965 274.737L431.499 274.975C446.994 276.054 459.723 277.424 471.314 279.255C485.711 281.531 498.956 285.155 510.681 290.027C523.301 295.271 535.166 302.143 545.621 308.197L679.832 388.466L664.633 396.884ZM647.426 406.443L529.147 335.704L524.561 333.025C515.227 327.594 504.936 321.809 494.12 317.166C482.281 312.085 469.417 308.262 454.792 305.477L453.242 305.186C441.831 303.065 429.398 301.286 413.331 299.474L407.617 298.832C395.636 297.476 382.261 295.877 369.369 293.886C354.422 291.578 341.172 288.577 328.86 284.71C315.786 280.607 303.593 275.204 292.622 268.647L292.348 268.482L290.996 267.643C290.161 267.13 289.327 266.619 288.497 266.088C280.759 261.114 273.253 255.337 266.109 248.851C265.748 248.523 265.383 248.207 265.023 247.876L264.779 247.644C263.63 246.579 262.488 245.499 261.359 244.396C252.146 235.412 243.271 225.219 234.226 213.233L232.718 211.226C225.447 201.504 218.364 191.423 210.182 179.561L208.087 176.524C198.83 163.146 191.389 153.052 184.107 143.986C174.866 132.484 165.572 122.992 155.693 114.967C145.588 106.759 134.613 99.8891 123.313 92.99L4.08543 21.6853L4.38846 4.34926L131.025 80.0865L134.877 82.4621C145.033 88.7562 154.287 94.7884 163.066 102.078C172.663 110.048 182.005 119.899 190.835 131.357C193.342 134.611 195.891 138.037 198.527 141.698L199.409 142.927C204.141 149.547 209.166 156.943 214.733 165.469L218.296 170.936C224.129 179.869 230.242 189.116 236.531 198.135C237.577 199.635 238.625 201.126 239.675 202.604C248.566 215.121 257.31 225.717 266.406 234.999C275.782 244.566 285.893 252.695 296.481 259.181L297.798 259.979C308.863 266.591 321.292 271.917 334.743 275.811C347.262 279.436 360.808 282.131 376.153 284.052L377.801 284.244C380.245 284.542 382.701 284.828 385.172 285.103C386.535 285.254 387.904 285.402 389.273 285.547C391.23 285.754 393.194 285.955 395.165 286.15L398.436 286.47L403.16 286.917L404.604 287.049C408.371 287.393 412.151 287.73 415.959 288.062L422.047 288.588C438.169 290.007 451.151 291.595 462.743 293.561C477.132 296.001 490.332 299.702 501.982 304.563C514.611 309.833 526.447 316.735 536.88 322.82L662.621 398.021L647.426 406.443ZM612.965 425.53L511.673 364.951L508.204 362.901C505.911 361.549 503.656 360.224 501.423 358.923L498.732 357.357L497.156 356.448L494.485 354.916C488.748 351.643 483.081 348.518 477.261 345.503L477.195 345.471C464.644 340.054 451.728 335.633 438.804 332.331L436.57 331.768C426.329 329.217 415.12 326.867 400.904 324.291L391.449 322.596C389.911 322.319 388.397 322.045 386.902 321.772L383.169 321.085L380.654 320.616L377.063 319.939L375.267 319.595L371.992 318.96L370.041 318.575L366.744 317.917L364.956 317.551L361.431 316.823C360.482 316.624 359.537 316.419 358.59 316.215C357.855 316.058 357.117 315.903 356.384 315.742C341.997 312.598 329.131 308.945 317.049 304.579C313.868 303.43 310.73 302.213 307.64 300.933C298.468 297.13 289.714 292.751 281.507 287.866L281.228 287.704C271.308 281.724 261.618 274.724 252.441 266.81L251.297 265.815C250.692 265.285 250.081 264.763 249.479 264.225C239.926 255.674 230.661 246.122 221.154 235.023C212.682 225.137 204.299 214.684 196.433 204.739L193.403 200.905C183.571 188.503 175.702 179.146 168.048 170.745C159.137 160.97 149.29 151.721 138.727 143.21C128.87 136.347 118.593 129.973 109.377 124.383L105.644 122.126L3.39601 60.9775L3.69836 43.6386L113.54 109.33L116.896 111.371C126.461 117.204 136.46 123.468 146.103 130.415C156.299 139.086 165.846 148.632 174.483 158.789L175.962 160.54C182.883 168.779 190.112 178.051 199.024 190.124L200.309 191.868C208.39 202.854 217.093 214.548 225.991 225.618C235.315 237.221 244.448 247.158 253.916 255.999C263.816 265.246 274.413 273.285 285.419 279.898L285.779 280.113C296.909 286.763 309.155 292.367 322.181 296.768C334.47 300.922 347.616 304.274 362.371 307.015C375.094 309.377 387.898 311.332 403.053 313.503L404.576 313.721C421.684 316.166 434.551 318.405 446.297 320.978C459.437 323.857 472.458 327.87 485.001 332.907C496.573 338.686 507.871 345.262 519.383 352.05L628.16 417.108L612.965 425.53ZM593.703 436.214L578.507 444.635L494.181 394.204C483.894 388.048 473.785 382.031 463.507 376.227L460.032 374.276C448.27 368.457 435.914 363.136 423.265 358.446C411.562 354.692 399.209 351.129 385.557 347.568L377.297 345.427C366.335 342.58 355.14 339.628 344.095 336.454C330.184 332.455 317.685 328.177 305.883 323.378C293.944 318.52 282.503 312.885 271.85 306.615L269.971 305.498C259.082 298.956 248.41 291.381 238.245 282.979C228.434 274.873 218.792 265.935 208.764 255.654L206.885 253.723C199.082 245.676 191.546 237.579 182.863 228.184L180.757 225.904C170.764 215.085 161.5 205.548 152.403 196.718C142.433 187.848 132.054 179.517 121.513 171.926C111.219 165.256 100.596 158.824 90.4924 152.771L2.70266 100.268L3.00517 82.939L98.5844 140.103C109.874 146.878 119.505 152.807 128.985 159.146C139.219 166.914 149.314 175.574 158.956 184.854L160.731 186.755C168.449 195.049 176.49 204.116 185.221 214.369L191.103 221.278C199.037 230.57 206.125 238.712 213.451 246.735C223.287 257.5 232.798 266.802 242.53 275.169C247.629 279.553 252.875 283.696 258.231 287.576C259.109 288.211 259.993 288.829 260.878 289.452L262.182 290.374C263.116 291.022 264.056 291.651 264.996 292.281L266.275 293.146L267.205 293.749L268.136 294.349C268.946 294.873 269.755 295.399 270.568 295.911L271.004 296.179C272.118 296.877 273.233 297.57 274.355 298.244L274.808 298.515C285.98 305.185 298.064 311.033 310.723 315.896C322.759 320.523 335.518 324.51 349.726 328.084C362.519 331.304 375.763 334.224 387.476 336.752L390.371 337.375C405.225 340.569 418.407 343.729 430.62 347.019C443.531 351.242 456.034 356.155 467.781 361.622C478.868 367.611 489.676 373.995 499.862 380.088L593.703 436.214ZM559.253 455.3L544.054 463.726L466.599 417.406C458.383 412.5 450.587 407.866 442.743 403.263C431.165 396.89 419.231 390.887 407.241 385.408C395.449 380.497 383.183 375.752 369.73 370.898L356.71 366.356C348.381 363.444 339.932 360.469 331.633 357.455C318.062 352.522 305.927 347.621 294.535 342.472C282.327 336.953 270.534 330.806 259.483 324.204C248.4 317.561 237.441 310.137 226.833 302.029C216.9 294.441 206.879 286.113 196.197 276.57C188.147 269.379 180.057 261.974 172.172 254.739L166.522 249.552C156.029 240.115 146.147 231.612 136.284 223.534C125.938 215.626 115.15 207.992 104.193 200.834L101.198 199.002C90.7112 192.599 80.2077 186.317 70.846 180.722L2.02113 139.563L2.32399 122.223L78.6261 167.855C86.5369 172.585 94.3135 177.253 101.993 181.967L104.917 183.771L107.832 185.582C109.143 186.396 110.461 187.206 111.766 188.027C122.38 195.293 132.926 203.225 143.082 211.575C152.657 220.082 162.484 229.328 172.287 239.055L181.493 248.192C187.967 254.609 194.571 261.115 201.171 267.432L202.198 268.409L203.223 269.377C211.865 277.567 220.18 284.89 228.491 291.625L229.738 292.631C230.283 293.068 230.827 293.513 231.372 293.946C241.412 301.928 251.85 309.246 262.503 315.675L264.03 316.59C275.152 323.235 287.086 329.309 299.498 334.643C311.136 339.643 323.51 344.253 337.325 348.737C340.069 349.628 342.831 350.51 345.601 351.386C347.08 351.853 348.564 352.314 350.046 352.776C351.282 353.163 352.518 353.553 353.755 353.937C357.162 354.993 360.566 356.04 363.947 357.076L376.26 360.839C389.577 364.917 402.478 369.257 414.568 373.729C426.799 378.802 438.88 384.454 450.443 390.51C460.439 396.245 470.225 402.059 480.84 408.405L559.253 455.3ZM2.36678 119.919L2.66981 102.589L87.301 153.202C97.9273 159.558 109.24 166.367 120.378 173.581C130.818 181.101 141.144 189.389 151.035 198.187C160.068 206.958 169.307 216.469 179.281 227.265L183.846 232.205C191.222 240.175 199.25 248.784 207.325 257.055C217.408 267.39 227.102 276.376 236.962 284.526C247.203 292.989 257.951 300.619 268.919 307.209L269.431 307.515C280.561 314.167 292.57 320.128 305.122 325.237C316.989 330.065 329.554 334.366 343.535 338.38C356.932 342.227 370.959 345.86 383.333 349.065L386.501 349.891C399.601 353.334 411.452 356.765 422.604 360.341C435.15 364.993 447.441 370.286 459.093 376.05C470.533 382.433 481.728 389.092 493.142 395.923L576.48 445.763L561.288 454.182L477.887 404.309C468.934 398.969 460.871 394.2 452.568 389.423L451.4 388.754C439.792 382.669 427.656 376.991 415.295 371.865C403.133 367.367 390.196 363.014 376.842 358.924L364.155 355.047C360.932 354.06 357.688 353.063 354.441 352.055C348.922 350.343 343.395 348.603 337.939 346.832C324.182 342.367 311.866 337.778 300.285 332.802C287.953 327.505 276.101 321.472 265.052 314.871C254.033 308.296 243.094 300.704 232.619 292.382L231.734 291.673L230.849 290.958C222.401 284.16 213.956 276.765 205.173 268.47L203.432 266.823C203.141 266.547 202.849 266.269 202.557 265.989C195.945 259.656 189.322 253.133 182.83 246.698L173.7 237.637C163.865 227.88 154.012 218.611 144.385 210.058C134.152 201.643 123.559 193.677 112.867 186.358L111.52 185.52C102.211 179.691 92.7938 174.005 83.1968 168.259L71.3618 161.18L2.36678 119.919ZM3.35837 63.2846L104.612 123.839L108.335 126.091C117.524 131.663 127.765 138.015 137.524 144.808C147.95 153.21 157.721 162.389 166.567 172.09L167.581 173.207C174.691 181.067 182.093 189.885 191.203 201.354L196.558 208.121C203.941 217.432 211.745 227.118 219.631 236.323C229.202 247.491 238.528 257.106 248.141 265.713C248.663 266.181 249.195 266.634 249.721 267.096C250.468 267.751 251.21 268.412 251.963 269.056L252.25 269.295C260.674 276.469 269.503 282.894 278.579 288.441L280.02 289.313L280.484 289.585C288.762 294.515 297.603 298.938 306.873 302.78C309.993 304.074 313.161 305.302 316.372 306.462C328.51 310.854 341.459 314.528 355.96 317.698L357.059 317.935L361.018 318.779L362.723 319.132C363.932 319.383 365.143 319.633 366.362 319.88L369.61 320.529L372.288 321.055L375.467 321.67L378.718 322.287L381.716 322.85L386.695 323.767L391.764 324.686L400.548 326.261C415.763 329.017 427.513 331.512 438.313 334.271C451.093 337.535 463.897 341.916 476.372 347.296L478.276 348.296C479.07 348.714 479.867 349.127 480.657 349.549L481.763 350.148C482.832 350.721 483.9 351.295 484.963 351.877L486.053 352.481C487.109 353.063 488.165 353.645 489.218 354.235L490.828 355.145C491.705 355.638 492.581 356.131 493.456 356.631L496.5 358.379L498.579 359.581C502.592 361.91 506.604 364.279 510.639 366.672L610.937 426.656L595.743 435.079L502.934 379.574C492.068 373.071 480.474 366.191 468.66 359.814C456.814 354.302 444.227 349.355 431.202 345.094C418.905 341.782 405.69 338.614 390.802 335.412L385.877 334.35C374.304 331.845 362.19 329.152 350.224 326.138C336.116 322.586 323.432 318.624 311.449 314.02C298.876 309.191 286.895 303.394 275.842 296.789C264.832 290.234 254.038 282.41 243.842 273.644C234.148 265.308 224.693 256.062 214.936 245.379C206.62 236.276 198.59 226.963 190.994 218.048L185.741 211.879C176.691 201.289 168.387 191.974 160.387 183.442C150.622 174.046 140.466 165.333 130.155 157.509C119.852 150.622 109.474 144.272 97.0845 136.858L3.05585 80.6257L3.35837 63.2846ZM122.284 94.7093C133.53 101.576 144.451 108.41 154.437 116.528C164.21 124.472 173.408 133.866 182.553 145.246L183.52 146.456C190.461 155.168 197.623 164.92 206.446 177.669L211.053 184.34C218.765 195.48 225.572 205.089 232.634 214.446C241.741 226.512 250.682 236.779 259.966 245.835C261.945 247.768 263.964 249.626 266.001 251.443C266.493 251.881 266.98 252.332 267.476 252.764L268.4 253.548C274.506 258.805 280.849 263.558 287.374 267.744C288.385 268.395 289.406 269.019 290.427 269.644L291.599 270.371C302.707 277.009 315.043 282.477 328.266 286.625C340.673 290.522 354.02 293.546 369.068 295.869C380.87 297.693 393.066 299.187 404.231 300.467L414.2 301.592C430.442 303.442 442.923 305.26 454.423 307.45C468.893 310.202 481.622 313.983 493.335 319.011C505.876 324.394 517.704 331.326 528.133 337.439L645.38 407.561L630.185 415.983L520.406 350.327L516.821 348.218C506.156 341.957 496.261 336.289 485.782 331.059C473.124 325.974 459.982 321.923 446.724 319.02L445.205 318.69C434.527 316.395 422.898 314.361 408.082 312.2L399.262 310.932C387.844 309.28 375.16 307.353 362.735 305.044C348.074 302.319 335.016 298.991 322.817 294.868C309.928 290.511 297.811 284.969 286.804 278.391L286.552 278.24C285.959 277.882 285.37 277.507 284.78 277.142L283.347 276.261C283.109 276.113 282.871 275.964 282.634 275.812C276.616 271.971 270.734 267.702 265.033 263.045L262.789 261.199C262.414 260.884 262.047 260.555 261.673 260.235C259.515 258.387 257.378 256.494 255.279 254.533C245.902 245.779 236.831 235.91 227.549 224.36C219.3 214.096 211.168 203.229 203.545 192.885L201.919 190.677C191.736 176.83 183.744 166.595 176.005 157.489C167.314 147.26 157.689 137.638 147.335 128.837C136.434 120.981 125.174 114.046 114.57 107.611L3.73635 41.327L4.04058 23.9928L122.284 94.7093ZM3.70334 -70.7864L3.48384 -58.0725L3.4667 -58.0828L3.0834 -36.1319L3.08769 -36.1294L2.4036 3.15779L2.40788 3.16037L2.10537 20.5014L2.10108 20.4989L1.71693 42.4492L1.71864 42.4503L1.37488 62.0986L1.37831 62.1007L1.07527 79.4543L1.0667 79.4491L0.683747 101.401L0.691461 101.406L0.388436 118.736L0.385008 118.734L0 140.684L80.9464 189.097C88.1294 193.405 95.6646 197.95 103.123 202.523C114.014 209.64 124.763 217.244 135.044 225.103C144.855 233.139 154.716 241.622 165.176 251.031L167.873 253.508C176.686 261.597 185.798 269.962 194.865 278.062C205.585 287.639 215.644 295.998 225.619 303.62C235.518 311.183 245.745 318.189 256.054 324.47L258.456 325.921C269.573 332.562 281.434 338.744 293.711 344.293C305.15 349.464 317.331 354.385 330.95 359.335C339.259 362.352 347.713 365.33 356.047 368.243L369.061 372.784C382.473 377.623 394.711 382.356 406.441 387.241C418.354 392.686 430.243 398.666 441.756 405.001L444.741 406.756C452.206 411.151 459.693 415.609 467.601 420.333L544.016 466.034L561.239 456.487L561.247 456.492L580.495 445.824L580.492 445.823L597.71 436.279L597.706 436.277L614.953 426.718L614.95 426.717L632.168 417.173L632.166 417.172L647.364 408.747L647.379 408.757L666.628 398.087L666.611 398.076L681.817 389.652L681.828 389.659L701.076 378.98L701.065 378.973L716.284 370.538L716.299 370.547L727.697 364.228L727.856 355.279L727.824 355.259L728.125 337.933L728.146 337.945L728.53 315.994L728.512 315.983L728.816 298.636L728.833 298.646L729.216 276.694L729.211 276.691L729.513 259.357L729.517 259.359L729.899 237.407L729.888 237.401L730.232 217.765L600.198 139.994C597.316 138.408 594.439 136.809 591.565 135.206L581.905 129.815C577.418 127.315 572.864 124.794 568.311 122.329L565.578 120.858C554.323 114.831 542.337 108.889 529.956 103.197L526.346 101.554C517.587 97.5908 508.079 93.45 496.321 88.4784L489.943 85.786C480.337 81.7186 468.5 76.6084 456.849 71.1409C444.232 65.2277 432.802 59.1846 421.906 52.668C411.472 46.4535 401.227 39.5819 390.594 31.7347L389.141 30.6585C379.151 23.2332 369.394 15.5113 361.439 9.1178L353.501 2.72118C345.681 -3.56506 336.235 -11.0648 326.651 -18.3293C315.911 -26.4733 305.109 -34.17 294.547 -41.2057C289.394 -44.6382 284.141 -48.0353 278.961 -51.3608L273.812 -54.6612C269.764 -57.2543 265.72 -59.8453 261.662 -62.4781L130.37 -141L95.9215 -121.904L95.9198 -121.905L42.2116 -92.1344L42.2176 -92.1308L27.0105 -83.7022L27.0053 -83.7053L3.70334 -70.7864Z" fill="url(#paint0_linear_7_24)"/>
<defs>
<linearGradient id="paint0_linear_7_24" x1="3.8608" y1="189.138" x2="311.153" y2="538.031" gradientUnits="userSpaceOnUse">
<stop stop-color="#5D5DFF" stop-opacity="0.01"/>
<stop offset="0.538482" stop-color="#5D5DFF" stop-opacity="0.32"/>
<stop offset="1" stop-color="#5D5DFF" stop-opacity="0.01"/>
</linearGradient>
</defs>
</svg>
