<svg width="248" height="240" viewBox="0 0 248 240" fill="none" xmlns="http://www.w3.org/2000/svg">
<path fill-rule="evenodd" clip-rule="evenodd" d="M430.809 -119.497C430.336 -112.73 428.947 -106.145 426.919 -99.7408C427.758 -103.787 428.346 -107.911 428.621 -112.124C429.379 -123.698 427.751 -135.258 423.781 -146.487C420.344 -156.164 414.869 -159.568 407.963 -158.358C416.413 -162.147 422.934 -160.374 426.434 -150.463C430.107 -140.064 431.538 -129.934 430.809 -119.497ZM415.559 50.5759C418.409 52.0668 419.351 53.8643 419.292 54.9502C419.217 56.3339 418.566 57.9299 417.435 59.6901C416.804 55.364 413.665 53.6935 412.528 53.0914C389.496 40.9297 377.668 28.0237 376.368 13.6355C376.247 12.3066 376.226 10.9601 376.281 9.60278C376.489 9.13428 376.697 8.66357 376.905 8.19287C378.772 24.269 391.086 37.764 415.559 50.5759ZM379.5 122.714C379.313 122.412 379.103 122.127 378.86 121.867C380.783 120.29 382.564 118.742 384.192 117.23C383.137 118.806 381.572 120.643 379.5 122.714ZM376.432 130.665C376.408 130.587 376.39 130.506 376.363 130.425C376.58 130.232 376.794 130.039 377.003 129.851C376.83 130.112 376.64 130.383 376.432 130.665ZM214.848 235.1C206.141 236.445 202.733 216.316 199.093 195.036C196.377 179.161 193.585 162.923 188.314 157.003C194.045 159.862 197.143 175.415 200.379 191.73C204.327 211.635 208.404 232.193 217.761 232.193C218.068 232.193 218.381 232.171 218.7 232.125C235.568 229.741 269.617 213.735 298.997 197.385C268.749 214.694 232.203 232.458 214.848 235.1ZM116.333 172.12C115.369 172.385 114.465 172.698 113.594 173.029C115.205 172.243 116.985 171.544 118.997 171.061C122.411 170.248 125.659 169.572 128.786 168.974C124.866 169.894 120.733 170.921 116.333 172.12ZM92.5165 165.986C88.4525 149.167 82.8405 146.711 76.9005 144.11C72.1275 142.019 67.1945 139.858 62.1705 130.297C49.0035 105.238 10.7805 -3.95605 2.52754 -33.4835C2.48354 -33.6432 2.44254 -33.7943 2.40454 -33.9344C2.86654 -33.5119 3.45454 -32.8726 4.12154 -32.0954C4.22354 -30.425 4.72654 -28.691 5.02654 -27.6599C13.9755 3.07166 51.1755 103.677 64.4465 128.828C69.8195 139.017 75.0795 141.373 79.7215 143.451C85.4575 146.019 89.9885 148.048 93.5215 163.102C96.5635 176.061 98.9785 179.662 102.29 179.246C97.9065 181.619 95.9595 180.236 92.5165 165.986ZM118.932 -109.034C121.054 -117.603 120.197 -133.021 117.502 -152.788C120.502 -132.513 121.691 -116.732 119.808 -108.691C117.421 -98.4972 112.601 -92.5904 106.613 -88.4701C112.013 -92.9188 116.487 -99.1562 118.932 -109.034ZM75.2815 -505.098C89.0665 -511.184 132.648 -473.896 164.472 -446.658C180.232 -433.168 193.843 -421.518 200.63 -417.788C201.181 -417.486 201.713 -417.363 202.232 -417.391C201.416 -416.643 200.582 -416.441 199.716 -416.916C193.071 -420.57 179.65 -432.031 164.109 -445.303C130.787 -473.76 89.3195 -509.168 75.0425 -503.064C74.1175 -502.668 73.3175 -501.912 72.6365 -500.833C73.1965 -503.132 74.0555 -504.555 75.2815 -505.098ZM271.539 -545.147C287.766 -538.146 291.401 -496.662 290.943 -448.296C290.906 -494.583 286.585 -533.559 270.122 -540.753C255.428 -547.212 244.534 -539.58 236.16 -525.566C244.531 -542.259 255.707 -551.98 271.539 -545.147ZM289.354 -275.344C289.703 -274.648 290.079 -274.184 290.482 -273.912C289.782 -273.393 289.232 -273.413 288.872 -274.142C287.329 -277.282 286.507 -283.639 286.168 -292.211C286.674 -284.485 287.669 -278.703 289.354 -275.344ZM381.165 -303.711C389.424 -288.727 393.341 -271.692 392.807 -253.077C392.398 -238.82 389.425 -224.033 384.664 -209.108C388.381 -222.233 390.668 -235.304 391.026 -248.12C391.575 -267.791 387.488 -285.689 378.88 -301.314C361.594 -332.704 346.279 -337.759 333.357 -331.445C333.663 -331.645 333.963 -331.87 334.272 -332.058C350.025 -341.645 365.364 -332.372 381.165 -303.711ZM426.642 -112.746C426.187 -105.805 424.786 -99.0405 422.736 -92.455C423.612 -96.7089 424.217 -101.044 424.485 -105.468C425.188 -117.087 423.527 -128.651 419.548 -139.841C415.966 -149.914 410.429 -153.576 403.539 -152.565C411.949 -156.164 418.531 -154.135 422.201 -143.803C425.876 -133.408 427.33 -123.248 426.642 -112.746ZM385.716 108.129C385.371 107.816 384.999 107.524 384.571 107.273C384.461 107.209 384.362 107.143 384.253 107.08C387.423 104.748 390.425 102.386 393.133 100.033C393.194 100.197 393.213 100.322 393.209 100.398C393.204 100.516 393.177 100.646 393.16 100.77C391.35 102.92 388.872 105.385 385.716 108.129ZM374.134 127.631C374.12 127.622 374.109 127.611 374.094 127.602C373.605 127.3 373.143 126.992 372.669 126.687C373.753 125.882 374.808 125.08 375.831 124.286C376.24 124.54 376.631 124.8 377.05 125.054C376.148 125.884 375.174 126.742 374.134 127.631ZM371.984 135.673C371.756 135.362 371.475 135.073 371.154 134.806C372.24 133.937 373.251 133.102 374.203 132.299C374.447 132.52 374.59 132.706 374.671 132.831C373.899 133.711 373.013 134.655 371.984 135.673ZM203.555 186.907C207.83 205.569 212.245 224.846 221.511 224.843C221.806 224.843 222.108 224.822 222.413 224.782C239.763 222.521 274.686 206.285 304.32 189.867C273.863 207.228 236.43 225.231 218.571 227.755C209.945 228.964 206.191 210.037 202.214 189.987C199.281 175.198 196.267 160.088 191.046 154.45C196.747 157.174 200.071 171.698 203.555 186.907ZM121.417 165.649C126.05 164.709 130.327 164.064 134.4 163.569C129.556 164.385 124.373 165.377 118.781 166.708C117.683 166.971 116.662 167.304 115.687 167.667C117.376 166.82 119.259 166.089 121.417 165.649ZM8.59954 -26.475C8.77854 -25.7021 8.99654 -24.9162 9.23454 -24.1324C18.5245 6.53778 54.6455 98.7717 68.0375 124.052C73.3595 134.099 78.4495 136.43 82.9395 138.486C88.4765 141.023 92.8495 143.027 96.2985 158.161C99.1425 170.645 101.412 174.314 104.447 174.08C100.386 176.376 98.5555 174.967 95.3005 161.102C91.3285 144.18 85.8855 141.741 80.1225 139.162C75.5065 137.094 70.7335 134.957 65.7545 125.521C52.8195 101.003 16.9705 4.21271 7.24554 -28.2286C7.68954 -27.6572 8.14154 -27.0727 8.59954 -26.475ZM32.2975 -16.0475C32.2485 -15.8023 32.1945 -15.5659 32.1605 -15.2988C31.6175 -15.6228 31.0695 -15.9775 30.5155 -16.3628C30.6045 -16.4613 30.7045 -16.5554 30.8265 -16.643C31.3115 -16.4307 31.8015 -16.2314 32.2975 -16.0475ZM198.323 -411.811C191.694 -415.454 178.405 -426.777 163.017 -439.887C130.212 -467.836 89.3855 -502.609 75.2085 -496.748C74.2595 -496.356 73.4395 -495.596 72.7465 -494.491C73.3115 -496.811 74.1825 -498.234 75.4275 -498.766C89.1085 -504.64 132.044 -467.987 163.382 -441.224C178.986 -427.898 192.461 -416.389 199.23 -412.669C199.797 -412.356 200.346 -412.229 200.88 -412.262C200.05 -411.52 199.203 -411.329 198.323 -411.811ZM288.914 -440.456C288.86 -486.226 284.598 -524.876 268.322 -532.081C253.783 -538.599 242.982 -531.153 234.667 -517.417C242.985 -533.806 254.063 -543.341 269.73 -536.46C285.77 -529.45 289.351 -488.295 288.914 -440.456ZM287.049 -269.722C285.544 -272.846 284.736 -279.086 284.394 -287.469C284.899 -279.933 285.872 -274.267 287.51 -270.935C287.872 -270.199 288.264 -269.718 288.682 -269.435C287.974 -268.923 287.415 -268.958 287.049 -269.722ZM387.253 -243.446C387.775 -262.698 383.76 -280.235 375.322 -295.565C357.66 -327.675 342.124 -331.855 329.161 -324.619C342.515 -334.412 358.716 -332.244 377.603 -297.944C385.693 -283.258 389.538 -266.587 389.03 -248.387C388.602 -233.051 385.24 -217.231 379.875 -201.327C384.201 -215.508 386.879 -229.638 387.253 -243.446ZM422.502 -106.044C422.082 -99.1039 420.731 -92.3214 418.744 -85.7074C421.677 -100.496 421.359 -116.253 415.319 -133.187C411.544 -143.768 405.869 -147.672 398.896 -146.75C407.376 -150.292 414.098 -148.04 417.97 -137.15C421.659 -126.777 423.141 -116.601 422.502 -106.044ZM408.586 69.1959C407.525 67.7137 406.182 66.976 405.539 66.6278C384.122 55.112 373.03 42.5891 371.628 28.3454C371.35 25.5146 371.465 22.605 371.898 19.6253C371.927 20.3697 371.97 21.1162 372.04 21.8606C373.584 38.2367 385.189 51.6616 408.558 64.1101C410.08 64.9246 410.972 65.8243 411.426 66.6147C410.542 67.4576 409.599 68.3158 408.586 69.1959ZM373.113 117.919C372.315 117.366 371.542 116.805 370.792 116.236C374.183 114.079 377.569 111.833 380.831 109.539C381.431 109.922 382.066 110.294 382.689 110.671C379.913 112.932 376.731 115.351 373.113 117.919ZM367.95 132.634C367.334 132.209 366.734 131.78 366.148 131.346C367.257 130.582 368.337 129.823 369.4 129.063C369.94 129.444 370.477 129.825 371.038 130.199C370.056 130.994 369.029 131.804 367.95 132.634ZM366.444 140.712C365.901 140.355 365.356 139.998 364.834 139.635C365.882 138.864 366.911 138.1 367.897 137.347C367.937 137.317 367.974 137.288 368.015 137.257C368.458 137.557 368.912 137.853 369.369 138.148C368.469 138.965 367.491 139.823 366.444 140.712ZM206.748 182.103C211.345 199.511 216.092 217.494 225.261 217.494C225.543 217.494 225.832 217.476 226.123 217.441C243.915 215.318 279.589 198.928 309.41 182.493C278.794 199.87 240.618 218.024 222.293 220.412C213.728 221.529 209.654 203.758 205.343 184.945C202.22 171.308 199.012 157.386 193.89 151.972C199.498 154.68 203.042 168.065 206.748 182.103ZM123.833 160.239C129.532 159.289 134.713 158.84 139.624 158.612C133.964 159.155 127.961 159.926 121.233 161.288C120.054 161.529 118.962 161.859 117.928 162.236C119.657 161.353 121.593 160.618 123.833 160.239ZM13.7016 -19.7738C23.3036 10.2549 58.1356 93.9241 71.6256 119.281C76.8956 129.188 81.8156 131.495 86.1556 133.531C91.4926 136.036 95.7076 138.013 99.0706 153.231C101.716 165.202 103.836 168.967 106.605 168.939C105.197 169.762 104.04 170.086 103.047 169.403C101.424 168.282 99.9406 164.337 98.0876 156.208C94.2066 139.173 88.9326 136.758 83.3486 134.199C78.8876 132.156 74.2746 130.044 69.3436 120.735C57.0496 97.5278 23.7466 12.95 12.5836 -21.2385C12.9546 -20.7502 13.3266 -20.262 13.7016 -19.7738ZM67.9215 -60.3835C67.9155 -60.3923 67.9115 -60.401 67.9065 -60.412C68.0035 -60.563 68.0995 -60.7141 68.1995 -60.863C68.1065 -60.7053 68.0125 -60.5455 67.9215 -60.3835ZM196.928 -406.701C190.318 -410.335 177.164 -421.514 161.934 -434.459C129.647 -461.9 89.4706 -496.047 75.3736 -490.434C74.4055 -490.046 73.5676 -489.282 72.8625 -488.161C73.4335 -490.5 74.3166 -491.923 75.5796 -492.446C89.1906 -498.079 131.445 -462.087 162.292 -435.806C177.743 -422.642 191.085 -411.275 197.836 -407.564C198.433 -407.235 199.011 -407.1 199.574 -407.141C198.715 -406.381 197.838 -406.202 196.928 -406.701ZM286.89 -432.664C286.814 -477.893 282.605 -516.191 266.523 -523.407C252.743 -529.695 242.434 -523.676 234.393 -511.596C242.511 -526.253 253.167 -534.398 267.923 -527.792C283.774 -520.773 287.302 -479.96 286.89 -432.664ZM285.227 -265.299C283.75 -268.426 282.955 -274.606 282.615 -282.888C283.114 -275.467 284.071 -269.871 285.672 -266.545C286.051 -265.759 286.461 -265.258 286.9 -264.967C286.178 -264.454 285.605 -264.498 285.227 -265.299ZM383.482 -238.756C383.977 -257.595 380.035 -274.77 371.765 -289.807C354.378 -321.456 339.122 -325.606 326.417 -318.557C339.509 -328.164 355.429 -326.042 374.044 -292.195C381.966 -277.805 385.739 -261.49 385.257 -243.704C384.852 -228.736 381.565 -213.268 376.315 -197.706C380.523 -211.538 383.128 -225.311 383.482 -238.756ZM414.567 -78.4385C417.507 -93.4704 417.193 -109.439 411.082 -126.52C406.881 -138.268 400.622 -142.246 393.015 -140.755C402.109 -144.952 409.403 -142.66 413.743 -130.492C420.344 -111.983 419.31 -94.6833 414.567 -78.4385ZM364.227 120.306C365.315 119.647 366.411 118.977 367.51 118.296C368.271 118.931 369.058 119.559 369.871 120.181C368.827 120.897 367.745 121.626 366.636 122.364C365.798 121.689 365 121.002 364.227 120.306ZM359.733 135.633C360.826 134.922 361.907 134.212 362.965 133.507C363.572 134.007 364.196 134.497 364.834 134.983C363.823 135.734 362.775 136.496 361.692 137.271C361.018 136.732 360.365 136.187 359.733 135.633ZM323.237 161.252C292.535 178.368 252.868 196.487 233.46 198.376C225.081 199.202 219.863 184.288 214.811 169.878C210.385 157.254 205.832 144.318 199.187 142.26C199.276 142.214 199.362 142.177 199.451 142.128C207.913 137.612 213.709 149.951 219.847 163.023C225.635 175.354 231.614 188.093 240.298 188.093C240.522 188.093 240.748 188.084 240.975 188.067C262.888 186.414 318.616 161.725 356.722 137.564C357.35 138.185 358.001 138.796 358.675 139.401C349.233 145.966 337.394 153.357 323.237 161.252ZM69.5385 -57.4367C69.5185 -57.4761 69.4975 -57.5133 69.4775 -57.5527C69.7715 -58.0584 70.0765 -58.5467 70.3885 -59.0196C70.0975 -58.5095 69.8145 -57.9818 69.5385 -57.4367ZM195.531 -401.576C188.937 -405.201 175.918 -416.24 160.844 -429.019C129.075 -455.954 89.5245 -489.486 75.5375 -484.1C74.5435 -483.719 73.6855 -482.951 72.9655 -481.804C73.5425 -484.179 74.4435 -485.613 75.7325 -486.125C89.2675 -491.524 130.85 -456.182 161.21 -430.379C176.502 -417.381 189.709 -406.156 196.442 -402.454C197.071 -402.106 197.679 -401.977 198.27 -402.031C197.382 -401.252 196.474 -401.059 195.531 -401.576ZM284.854 -423.493C284.831 -468.727 280.75 -507.338 264.717 -514.713C250.769 -521.128 240.398 -514.829 232.335 -502.447C240.468 -517.452 251.184 -525.936 266.118 -519.118C281.932 -512.025 285.32 -470.826 284.854 -423.493ZM283.4 -260.855C281.929 -264.034 281.143 -270.287 280.812 -278.648C281.3 -271.169 282.245 -265.523 283.836 -262.151C284.231 -261.315 284.66 -260.792 285.118 -260.487C284.377 -259.968 283.788 -260.019 283.4 -260.855ZM379.705 -234.043C380.175 -252.47 376.305 -269.291 368.203 -284.033C351.082 -315.24 336.098 -319.345 323.647 -312.466C336.482 -321.907 352.13 -319.855 370.487 -286.437C378.241 -272.34 381.942 -256.382 381.485 -239.008C381.101 -224.407 377.888 -209.292 372.754 -194.074C376.842 -207.552 379.371 -220.966 379.705 -234.043ZM402.619 -113.223C396.437 -130.413 386.897 -132.657 375.654 -126.12C390.549 -139.396 402.959 -142.128 409.508 -123.821C417.883 -100.409 414.122 -78.7453 406.153 -58.6627C405.597 -57.7935 405.04 -56.9288 404.485 -56.0684C409.122 -73.8872 409.934 -92.8862 402.619 -113.223ZM357.97 124.01C359.008 123.408 360.062 122.79 361.127 122.16C361.887 122.924 362.672 123.679 363.502 124.422C362.471 125.089 361.415 125.764 360.334 126.447C359.508 125.648 358.714 124.837 357.97 124.01ZM354.365 130.136C353.598 129.21 352.874 128.264 352.205 127.296C353.169 126.755 354.159 126.197 355.165 125.623C355.875 126.523 356.64 127.397 357.431 128.262C356.429 128.881 355.407 129.505 354.365 130.136ZM223.234 158.268C229.284 169.322 235.534 180.744 244.069 180.744C244.273 180.744 244.48 180.737 244.687 180.724C264.76 179.437 304.445 162.244 334.99 145.728C333.663 146.468 332.315 147.214 330.94 147.965C300.391 164.672 260.705 182.2 240.907 183.691C232.688 184.315 226.878 171.892 221.242 159.886C217.355 151.608 213.382 143.175 208.648 139.18C213.982 141.404 218.517 149.647 223.234 158.268ZM33.1066 0.762085C42.3186 22.8611 59.1796 52.5986 73.0096 76.9876C77.9116 85.6289 82.5396 93.7928 85.9916 100.175C91.0426 109.514 95.4836 111.828 99.0516 113.687C103.755 116.135 107.153 117.906 110.177 133.477C111.832 142.002 113.285 146.277 115.032 147.775C116.946 149.417 118.848 147.541 121.257 145.17C124.032 142.44 127.832 138.7 133.508 138.589C143.627 138.391 152.292 140.721 160.669 142.958C168.285 144.992 175.651 146.943 183.313 146.617C174.298 148.62 165.826 147.536 156.427 146.312C147.897 145.202 139.074 144.055 128.586 145.036C122.78 145.588 118.783 149.034 115.864 151.549C111.077 155.674 109.636 156.911 106.446 141.535C102.841 124.163 98.2986 121.923 93.0386 119.331C89.2206 117.448 84.8926 115.312 80.1056 106.39C67.6016 83.0761 41.6786 29.9567 28.6096 -2.47156C30.2016 -1.05505 31.7136 0.0593262 33.1066 0.762085ZM58.4115 -50.5271C58.1805 -49.4937 57.9735 -48.4209 57.7825 -47.3153C55.9975 -49.5791 54.3175 -51.2845 52.7915 -52.0049C52.8565 -53.1893 52.9265 -54.3912 53.0075 -55.6107C54.4185 -55.4027 56.3145 -53.3951 58.4115 -50.5271ZM192.739 -391.352C186.179 -394.96 173.43 -405.712 158.668 -418.162C127.935 -444.086 89.6786 -476.361 75.8646 -471.463C75.0206 -471.166 74.2766 -470.579 73.6236 -469.74C73.3816 -471.558 73.1626 -473.313 72.9666 -475.012C72.9786 -475.069 72.9855 -475.139 72.9976 -475.194C73.5786 -477.764 74.5216 -479.266 75.8816 -479.787C89.3166 -484.939 130.247 -450.264 160.122 -424.936C175.258 -412.104 188.33 -401.02 195.044 -397.331C196.616 -396.464 198.058 -396.873 199.423 -398.303C197.263 -392.891 195.105 -390.058 192.739 -391.352ZM344.284 -136.6C359.852 -165.558 371.463 -195.681 372.159 -224.626C372.581 -242.242 368.855 -258.357 361.083 -272.522C338.832 -313.186 320.453 -306.551 306.779 -290.569C321.254 -312.031 341.379 -327.229 366.923 -280.669C374.512 -266.858 378.141 -251.255 377.708 -234.288C376.906 -202.799 362.521 -168.737 344.284 -136.6ZM398.388 -106.565C393.801 -119.285 387.741 -124.414 380.689 -124.125C389.178 -127.173 396.281 -123.764 401.048 -110.514C408.023 -91.1234 406.788 -72.6981 401.851 -55.2798C405.041 -71.4655 404.888 -88.54 398.388 -106.565ZM350.122 123.942C350.173 123.913 350.223 123.887 350.274 123.861C350.224 123.887 350.173 123.916 350.123 123.942H350.122ZM342.501 128.076C312.163 144.18 272.435 160.808 252.075 161.655C251.93 161.662 251.788 161.666 251.645 161.666C244.011 161.664 237.535 153.174 231.269 144.96C227.156 139.567 222.965 134.083 218.466 131.121C223.719 132.833 228.719 138.258 233.905 143.909C240.58 151.182 247.477 158.698 255.441 158.698C255.568 158.698 255.697 158.695 255.825 158.691C276.515 158.063 316.44 141.665 346.829 125.691C347.14 125.527 347.458 125.359 347.784 125.188C347.788 125.199 347.794 125.208 347.799 125.221C346.078 126.16 344.323 127.11 342.501 128.076ZM230.241 148.716C236.742 157.237 243.458 166.045 251.637 166.045C251.794 166.045 251.954 166.04 252.113 166.034H252.112C272.624 165.18 312.526 148.491 342.973 132.331C344.953 131.278 347.214 130.061 349.671 128.704C350.297 129.739 350.984 130.744 351.703 131.734C346.529 134.814 340.906 138.015 334.793 141.325C304.315 157.833 264.616 175.065 244.628 176.348C236.501 176.884 230.422 165.701 224.515 154.906C219.377 145.518 214.102 135.907 207.599 134.407C215.983 130.068 222.916 139.112 230.241 148.716ZM135.686 133.17C135.764 133.17 135.843 133.17 135.921 133.172C145.906 133.378 154.506 136.27 162.823 139.066C163.083 139.154 163.341 139.239 163.601 139.326C162.711 139.092 161.817 138.854 160.912 138.613C152.472 136.358 143.732 134.059 133.491 134.21C132.085 134.238 130.802 134.486 129.606 134.862C131.351 133.866 133.345 133.17 135.686 133.17ZM36.2895 1.6051C44.2695 20.7091 58.6015 44.021 71.3705 64.7845C78.3215 76.0858 84.8865 86.7609 89.5775 95.3956C94.5715 104.591 98.8425 106.881 102.276 108.72C106.764 111.126 110.007 112.864 112.949 128.535C114.544 137.041 115.953 141.282 117.657 142.716C117.882 142.904 118.109 143.04 118.334 143.132C117.303 143.961 116.462 144.301 115.761 143.699C114.594 142.698 113.405 138.906 112.017 131.765C108.598 114.158 104.389 111.964 99.5145 109.427C95.9785 107.586 91.9685 105.497 87.2825 96.8296C83.8125 90.4149 79.3875 82.6122 74.2645 73.5768C61.2645 50.6525 45.5715 22.975 36.2065 1.6095C36.2345 1.6095 36.2625 1.6073 36.2895 1.6051ZM60.5186 -47.4753C60.3246 -46.4638 60.1546 -45.4063 59.9966 -44.3248C59.8366 -44.5525 59.6766 -44.778 59.5186 -44.9969C59.6906 -46.0741 59.8886 -47.1031 60.1026 -48.1036C60.2406 -47.8978 60.3796 -47.6854 60.5186 -47.4753ZM78.3735 -40.8611C78.2515 -41.0865 78.1295 -41.3099 78.0065 -41.5354C78.9565 -45.29 80.2795 -48.3419 81.8925 -50.8509C80.4275 -48.1121 79.2355 -44.8172 78.3735 -40.8611ZM191.346 -386.242C184.803 -389.839 172.19 -400.451 157.585 -412.735C127.371 -438.151 89.7595 -469.802 76.0335 -465.143C75.4465 -464.946 74.9115 -464.602 74.4145 -464.144C74.3555 -464.549 74.3055 -464.928 74.2465 -465.329C74.7695 -466.244 75.4025 -466.868 76.1815 -467.142C89.4875 -471.833 129.051 -438.451 157.95 -414.077C172.773 -401.576 185.574 -390.778 192.252 -387.107C192.965 -386.713 193.65 -386.61 194.318 -386.693C193.354 -385.892 192.37 -385.684 191.346 -386.242ZM278.78 -400.212C278.676 -443.736 274.742 -481.212 259.315 -488.678C245.605 -495.314 235.406 -489.221 227.455 -477.274C235.475 -491.763 246.005 -500.065 260.689 -493.081C275.898 -485.845 279.148 -445.783 278.78 -400.212ZM277.929 -247.572C276.543 -250.753 275.791 -256.807 275.46 -264.831C275.937 -257.718 276.83 -252.29 278.317 -248.947C278.768 -247.931 279.266 -247.323 279.8 -247.005C279.002 -246.471 278.364 -246.574 277.929 -247.572ZM368.389 -219.899C368.789 -237.114 365.135 -252.879 357.529 -266.758C341.305 -296.449 327.215 -300.567 315.574 -294.369C327.585 -303.113 342.336 -301.077 359.803 -269.157C367.166 -255.736 370.554 -241.245 370.161 -224.856C369.831 -211.129 366.847 -197.012 362.076 -182.808C365.802 -195.272 368.105 -207.701 368.389 -219.899ZM393.237 -38.7374C396.744 -56.0528 396.812 -74.2504 389.922 -93.2646C383.226 -111.742 374.288 -115.703 364.149 -110.889C377.788 -122.65 389.603 -123.863 396.818 -103.852C404.379 -82.8851 402.429 -62.8944 396.635 -44.0356C395.477 -42.2491 394.342 -40.4845 393.237 -38.7374ZM356.451 111.432C357.377 110.948 358.35 110.436 359.366 109.898L359.367 109.9C358.417 110.423 357.455 110.946 356.479 111.474C356.47 111.461 356.459 111.445 356.451 111.432ZM351.362 114.195C351.342 114.153 351.326 114.112 351.306 114.07C352.171 113.632 353.028 113.197 353.878 112.761C353.895 112.789 353.912 112.816 353.927 112.844C353.085 113.293 352.223 113.744 351.362 114.195ZM353.266 117.7C353.785 117.424 354.318 117.142 354.864 116.851C354.338 117.14 353.812 117.431 353.279 117.722C353.275 117.715 353.27 117.707 353.266 117.7ZM237.725 139.061C244.526 145.104 251.555 151.35 259.267 151.35C259.357 151.35 259.448 151.35 259.538 151.348C279.378 150.973 316.48 136.382 346.162 121.372C346.178 121.417 346.194 121.466 346.211 121.509C315.949 137.404 276.299 153.69 255.797 154.312C248.152 154.623 241.364 147.146 234.796 139.987C230.626 135.444 226.382 130.834 221.932 128.257C227.211 129.722 232.375 134.306 237.725 139.061ZM62.6475 -44.145C62.4915 -43.1554 62.3555 -42.1242 62.2325 -41.0711C62.0665 -41.3185 61.9005 -41.5659 61.7355 -41.8089C61.8715 -42.862 62.0295 -43.8735 62.2025 -44.8565C62.3505 -44.62 62.4985 -44.3814 62.6475 -44.145ZM188.554 -376.018C182.042 -379.6 169.702 -389.92 155.412 -401.871C126.23 -426.276 89.9285 -456.67 76.3615 -452.502C76.3395 -452.495 76.3215 -452.484 76.2995 -452.475C75.8565 -455.046 75.4525 -457.52 75.0685 -459.939C75.4495 -460.335 75.8595 -460.655 76.3365 -460.815C89.5535 -465.272 128.455 -432.548 156.869 -408.647C171.534 -396.311 184.199 -385.657 190.86 -381.997C192.722 -380.97 194.415 -381.642 196.022 -383.553C193.596 -377.686 191.198 -374.571 188.554 -376.018ZM332.731 -124.45C348.243 -152.657 360.224 -182.243 360.842 -210.444C361.202 -226.862 357.691 -241.935 350.41 -255.244C329.529 -293.575 312.843 -288.732 300.188 -274.392C313.579 -293.829 332.258 -307.302 356.246 -263.397C363.446 -250.263 366.763 -236.109 366.391 -220.123C365.668 -189.098 351.024 -155.917 332.731 -124.45ZM262.366 5.8678C262.037 5.07306 261.854 4.21704 261.783 3.26471C261.925 4.2915 262.161 5.24823 262.497 6.12836C262.455 6.03638 262.406 5.96631 262.366 5.8678ZM385.297 -25.2495C388.46 -42.7924 388.319 -61.0952 381.457 -79.943C374.079 -100.212 364.867 -104.575 354.753 -99.6119C368.279 -111.951 380.247 -112.921 388.356 -90.5415C395.599 -70.553 394.356 -51.16 389.507 -32.6865C388.008 -30.1776 386.598 -27.7015 385.297 -25.2495ZM359.678 105.136C361.136 104.387 362.719 103.561 364.405 102.668C362.881 103.505 361.318 104.35 359.722 105.199C359.707 105.179 359.693 105.157 359.678 105.136ZM354.333 107.833C355.228 107.391 356.115 106.946 356.995 106.502C357.017 106.537 357.037 106.574 357.058 106.609C356.185 107.067 355.308 107.526 354.414 107.988C354.387 107.936 354.36 107.886 354.333 107.833ZM349.706 110.099C350.46 109.735 351.207 109.372 351.953 109.006C351.982 109.072 352.007 109.14 352.038 109.203C351.294 109.582 350.546 109.959 349.793 110.335C349.766 110.256 349.734 110.178 349.706 110.099ZM345.967 112.229C345.947 112.12 345.928 112.01 345.909 111.901C346.479 111.634 347.046 111.365 347.613 111.095C347.641 111.192 347.667 111.286 347.697 111.38C347.122 111.664 346.546 111.947 345.967 112.229ZM241.766 134.157C248.626 139 255.717 144.007 263.128 144.005H263.248H263.249C282.102 143.863 316.178 131.134 344.854 117.256C344.876 117.339 344.904 117.42 344.926 117.503C315.49 132.318 279.038 146.599 259.52 146.969C259.436 146.971 259.353 146.971 259.27 146.971C251.946 146.971 245.1 140.89 238.477 135.005C234.316 131.307 230.085 127.557 225.736 125.361C231.016 126.589 236.302 130.3 241.766 134.157ZM143.171 116.923C152.732 118.263 161.137 122.832 169.266 127.252C171.339 128.38 173.393 129.49 175.442 130.536C172.826 129.428 170.203 128.191 167.548 126.933C159.274 123.009 150.718 118.95 140.846 117.967C139.38 117.821 138.046 117.967 136.818 118.307C138.604 117.208 140.688 116.575 143.171 116.923ZM76.7645 50.1639C85.7046 60.2786 94.1476 69.8328 100.347 81.0618C105.16 89.8432 108.938 92.0632 111.975 93.8475C115.956 96.1879 118.587 97.7313 121.277 113.718C122.723 122.306 123.967 126.322 125.57 127.578C125.622 127.62 125.672 127.627 125.723 127.662C124.862 128.539 124.169 128.955 123.618 128.509C122.635 127.718 121.573 123.986 120.369 117.096C117.226 99.1063 113.703 97.0986 109.241 94.5568C106.114 92.7747 102.57 90.7584 98.0386 82.4849C92.0406 71.5339 83.8115 60.7844 75.0985 49.4043C72.7795 46.3743 70.4455 43.3223 68.1385 40.2485C70.9836 43.6201 73.8856 46.9062 76.7645 50.1639ZM56.4125 -36.3339C55.0585 -37.8577 53.7115 -39.2545 52.4175 -40.2025C52.4275 -41.3124 52.4435 -42.4377 52.4685 -43.5828C53.7615 -42.7005 55.2345 -41.0738 56.7545 -39.1472C56.6475 -38.1401 56.5335 -37.1965 56.4125 -36.3339ZM60.7976 -33.667C60.9346 -33.4743 61.0696 -33.2882 61.2046 -33.0978C61.0756 -32.4454 60.9346 -31.8542 60.7866 -31.3157C60.6656 -31.447 60.5466 -31.5784 60.4266 -31.7119C60.5476 -32.3337 60.6636 -32.9971 60.7756 -33.6998C60.7826 -33.6889 60.7896 -33.6779 60.7976 -33.667ZM64.8185 -40.6052C64.7095 -39.736 64.6135 -38.8449 64.5305 -37.9276C64.5225 -37.8422 64.5125 -37.7656 64.5045 -37.6802C64.3355 -37.932 64.1695 -38.1794 64.0025 -38.4312C64.1005 -39.447 64.2185 -40.4234 64.3495 -41.3758C64.5055 -41.1175 64.6625 -40.8613 64.8185 -40.6052ZM84.7925 -30.0394C84.7855 -29.954 84.7755 -29.8927 84.7675 -29.8095C84.6015 -30.0679 84.4385 -30.3174 84.2695 -30.5867C84.9455 -37.586 86.6135 -42.6543 88.9985 -46.3739C86.9055 -42.35 85.4225 -37.0627 84.7925 -30.0394ZM185.758 -365.783C179.28 -369.345 167.215 -379.374 153.247 -390.986C126.304 -413.383 93.0745 -441.008 78.5435 -440.125C78.0165 -442.906 77.5215 -445.607 77.0475 -448.254C90.4005 -451.519 126.018 -421.768 154.698 -397.782C169.047 -385.78 181.44 -375.416 188.068 -371.773C190.13 -370.641 191.997 -371.422 193.767 -373.649C191.156 -367.534 188.591 -364.226 185.758 -365.783ZM353.292 -200.942C353.615 -216.57 350.247 -230.96 343.288 -243.708C323.114 -280.857 307.161 -276.233 295.142 -262.659C307.852 -281.257 325.781 -294.737 349.126 -251.885C355.997 -239.325 359.176 -225.837 358.844 -210.654C358.222 -182.272 345.152 -151.812 328.664 -122.794C342.499 -148.578 352.76 -175.086 353.292 -200.942ZM381.09 -16.3803C381.015 -16.1986 380.941 -16.0147 380.867 -15.833C384.339 -34.3152 384.419 -53.5812 377.226 -73.2982C371.242 -89.7028 364.302 -96.1394 356.807 -95.8833C365.611 -99.2264 373.552 -94.6332 379.893 -77.2149C387.459 -56.4273 386.053 -35.9528 381.09 -16.3803ZM348.049 103.141C347.425 98.8482 347.454 94.301 347.972 89.5414C347.987 91.9912 348.15 94.4061 348.483 96.7836C348.899 99.7524 349.571 102.568 350.484 105.261C349.865 105.567 349.244 105.869 348.622 106.174C348.399 105.177 348.199 104.17 348.049 103.141ZM345.364 107.75C345.073 104.175 345.175 100.431 345.584 96.545C345.592 99.2313 345.766 101.876 346.144 104.47C346.276 105.377 346.433 106.272 346.612 107.152C346.197 107.354 345.78 107.553 345.364 107.75ZM145.589 111.509C155.007 113.212 163.346 118.326 171.41 123.272C173.991 124.855 176.544 126.416 179.092 127.843C175.995 126.394 172.893 124.713 169.748 123.003C161.534 118.537 153.038 113.917 143.298 112.553C141.815 112.345 140.46 112.472 139.212 112.809C140.997 111.675 143.087 111.054 145.589 111.509ZM79.8025 47.9025C88.4995 56.1344 97.4945 64.6465 103.94 76.2892C108.687 84.9042 112.302 87.1045 115.207 88.8713C119.097 91.238 121.445 92.6654 124.055 108.781C125.441 117.335 126.643 121.324 128.199 122.53C127.393 123.417 126.747 123.85 126.244 123.456C125.317 122.729 124.306 119.049 123.154 112.205C120.106 94.0906 116.747 92.118 112.494 89.6179C109.497 87.8577 106.102 85.8632 101.625 77.6948C95.2565 66.1593 86.3225 56.0512 77.6825 46.2737C76.9615 45.4593 76.2405 44.6426 75.5175 43.8217C76.9455 45.1987 78.3765 46.554 79.8025 47.9025ZM45.5675 -21.2711C45.7125 -21.3586 45.8595 -21.4374 46.0085 -21.4987C45.5475 -11.3994 46.3805 -1.87805 50.1085 8.15344C49.5755 7.01062 49.0585 5.85681 48.5735 4.68115C44.3745 -5.48822 44.2235 -12.667 45.5675 -21.2711ZM55.2256 -30.4814C55.0666 -30.6171 54.9066 -30.7507 54.7466 -30.8864C53.9916 -31.5345 53.2306 -32.1825 52.4726 -32.7583C52.4506 -33.68 52.4306 -34.6061 52.4196 -35.5519C53.4586 -34.674 54.5626 -33.5005 55.6816 -32.2328C55.5356 -31.5936 55.3836 -31.0003 55.2256 -30.4814ZM57.2375 -28.8724C57.1986 -28.9031 57.1605 -28.9272 57.1216 -28.9578C57.2266 -29.3431 57.3236 -29.7919 57.4235 -30.2189C57.5096 -30.1182 57.5956 -30.0197 57.6815 -29.9189C57.5376 -29.5292 57.3905 -29.1812 57.2375 -28.8724ZM63.1925 -30.3482C63.0595 -29.9542 62.9185 -29.6061 62.7725 -29.2952C62.7175 -29.3455 62.6625 -29.4003 62.6075 -29.4506C62.7115 -29.8557 62.8085 -30.2979 62.9045 -30.7401C63.0005 -30.6088 63.0965 -30.4796 63.1925 -30.3482ZM66.4916 -37.0718C66.5116 -37.2928 66.5386 -37.5009 66.5606 -37.7198C67.4786 -36.2026 68.3876 -34.7051 69.2806 -33.2689C69.1776 -32.5815 69.0616 -31.9641 68.9356 -31.397C68.0676 -32.5245 67.1746 -33.7703 66.2786 -35.0685C66.3546 -35.7122 66.4276 -36.3712 66.4916 -37.0718ZM91.3866 -44.9377C89.3656 -41.0254 87.9386 -35.8739 87.3276 -29.0476C87.2326 -27.988 87.1056 -27.2195 86.9696 -26.6284C86.8196 -26.8254 86.6726 -27.0115 86.5186 -27.2239C86.6096 -27.8435 86.6926 -28.4894 86.7556 -29.1943C87.3856 -36.2155 89.0256 -41.2618 91.3866 -44.9377ZM184.367 -360.677C177.903 -364.23 165.976 -374.113 152.166 -385.557C126.359 -406.942 94.6635 -433.209 79.7675 -433.8C79.6355 -434.47 79.5085 -435.127 79.3795 -435.79C93.8035 -435.716 126.199 -408.785 152.537 -386.892C166.564 -375.232 178.679 -365.159 185.272 -361.535C186.139 -361.058 186.973 -360.916 187.782 -361.047C186.673 -360.228 185.544 -360.031 184.367 -360.677ZM268.668 -359.283C268.534 -400.81 264.968 -437.509 250.311 -445.277C236.082 -452.812 225.719 -445.818 217.707 -433.201C225.739 -448.454 236.284 -457.677 251.644 -449.686C266.096 -442.172 268.979 -402.8 268.668 -359.283ZM268.803 -225.425C267.518 -228.679 266.816 -234.623 266.493 -242.384C266.943 -235.586 267.767 -230.321 269.125 -226.949C269.675 -225.585 270.285 -224.786 270.946 -224.431C270.035 -223.853 269.326 -224.107 268.803 -225.425ZM349.524 -196.2C349.828 -211.44 346.533 -225.491 339.734 -237.957C325.651 -263.931 313.705 -269.172 303.772 -265.304C314.12 -271.532 326.825 -268.303 342.003 -240.354C348.551 -228.359 351.591 -215.532 351.294 -201.139C351.061 -189.816 348.696 -178.114 344.883 -166.305C347.651 -176.317 349.327 -186.311 349.524 -196.2ZM372.992 -66.6362C367.918 -80.5143 361.904 -88.3477 355.114 -89.924C354.094 -90.1604 353.063 -90.248 352.024 -90.2108C360.86 -93.6786 368.972 -88.9081 375.663 -70.566C383.651 -48.6706 381.806 -26.9329 376.41 -6.1781C380.204 -25.6761 380.538 -45.993 372.992 -66.6362ZM65.3306 -27.5522C65.1636 -27.6135 64.9946 -27.6901 64.8206 -27.7798C64.8516 -27.8762 64.8806 -27.9857 64.9126 -28.0842C65.0516 -27.9069 65.1926 -27.7252 65.3306 -27.5522ZM73.0535 -27.5369C72.9905 -27.4581 72.9275 -27.3705 72.8615 -27.3093C72.8445 -27.2939 72.8265 -27.2896 72.8095 -27.2742C72.1525 -27.7493 71.4415 -28.4302 70.6935 -29.2665C70.7895 -29.6912 70.8785 -30.1488 70.9645 -30.6195C71.6745 -29.5248 72.3715 -28.4937 73.0535 -27.5369ZM93.7495 -43.462C91.8125 -39.6591 90.4475 -34.6566 89.8575 -28.0513C89.6345 -25.5533 89.2245 -24.6973 88.9545 -24.3602C88.8815 -24.428 88.8095 -24.4959 88.7355 -24.5681C88.9775 -25.6059 89.1645 -26.8122 89.2895 -28.2046C89.8985 -35.0024 91.4755 -39.9 93.7495 -43.462ZM182.968 -355.556C176.522 -359.103 164.738 -368.835 151.092 -380.105C126.404 -400.497 96.2225 -425.411 81.0595 -427.333C80.9215 -428.014 80.7865 -428.691 80.6505 -429.365C95.4185 -427.883 126.268 -402.336 151.458 -381.46C165.327 -369.969 177.303 -360.045 183.88 -356.43C184.82 -355.913 185.718 -355.797 186.591 -355.968C185.417 -355.084 184.22 -354.871 182.968 -355.556ZM266.655 -350.405C266.544 -391.801 263.09 -428.71 248.506 -436.585C234.311 -444.254 223.976 -437.284 215.98 -424.8C223.999 -439.911 234.506 -449.148 249.84 -441.019C264.218 -433.402 266.983 -393.775 266.655 -350.405ZM266.976 -220.988C265.676 -224.339 264.981 -230.491 264.67 -238.496C265.108 -231.485 265.919 -226.032 267.291 -222.562C267.867 -221.108 268.503 -220.276 269.194 -219.915C268.251 -219.313 267.519 -219.586 266.976 -220.988ZM345.747 -191.434C346.035 -206.286 342.812 -220 336.171 -232.19C322.311 -257.799 310.604 -262.944 300.902 -259.16C311.01 -265.315 323.475 -262.221 338.447 -234.605C344.835 -222.892 347.805 -210.391 347.525 -196.393C347.304 -185.348 344.981 -173.919 341.243 -162.377C343.932 -172.113 345.561 -181.825 345.747 -191.434ZM259.863 9.66187C259.224 8.22565 258.909 6.62311 258.872 4.81909C259.013 6.69971 259.384 8.42053 260.01 9.94867C259.962 9.84796 259.91 9.76477 259.863 9.66187ZM354.904 -85.5693C361.231 -84.1025 366.636 -77.0135 371.431 -63.8994C379.641 -41.4414 377.647 -18.9373 372.157 2.56177C376.075 -17.6851 376.541 -38.7485 368.763 -59.9805C363.365 -74.7212 357.091 -82.9531 350.119 -84.4484C349.154 -84.6542 348.184 -84.7286 347.21 -84.6936C349.839 -85.7992 352.411 -86.1451 354.904 -85.5693ZM258.195 12.2144C257.34 10.3644 256.929 8.30865 256.896 5.99017C257.034 8.39404 257.519 10.5681 258.34 12.4924C258.292 12.3939 258.242 12.3151 258.195 12.2144ZM265.451 -218.155C266.046 -216.62 266.705 -215.753 267.419 -215.379C266.46 -214.781 265.714 -215.09 265.154 -216.561C263.919 -219.81 263.243 -225.653 262.916 -233.193C263.361 -226.623 264.155 -221.498 265.451 -218.155ZM264.64 -342.845C264.486 -383.573 261.066 -420.006 246.709 -427.911C232.564 -435.701 222.258 -428.791 214.279 -416.481C222.287 -431.39 232.754 -440.579 248.028 -432.336C262.184 -424.691 264.918 -385.539 264.64 -342.845ZM81.9835 -422.819C97.0245 -420.082 126.326 -395.882 150.386 -376.009C164.089 -364.69 175.923 -354.917 182.482 -351.311C183.494 -350.753 184.463 -350.668 185.409 -350.906C184.165 -349.95 182.899 -349.722 181.575 -350.447C175.141 -353.984 163.495 -363.569 150.007 -374.671C126.429 -394.075 97.7505 -417.67 82.4125 -420.754C82.2685 -421.444 82.1245 -422.134 81.9835 -422.819ZM150.543 -115.438C153.457 -98.2497 154.884 -84.8926 154.137 -77.1665C153.096 -66.3951 149.534 -60.6678 144.561 -57.5962C149.028 -61.4122 152.3 -67.7874 153.438 -78.5983C154.267 -86.4711 153.116 -99.1889 150.543 -115.438ZM96.1776 -42.0958C94.2945 -38.3892 92.9675 -33.5136 92.3935 -27.0704C92.1265 -24.082 91.5695 -23.6617 91.3856 -23.5237C91.3375 -23.4866 91.2756 -23.4931 91.2245 -23.4669C91.4905 -24.5112 91.6906 -25.759 91.8205 -27.2128C92.4126 -33.8552 93.9525 -38.6345 96.1776 -42.0958ZM332.617 -226.43C318.996 -251.64 307.546 -256.693 298.084 -253.033C307.942 -259.06 320.145 -256.072 334.884 -228.841C341.113 -217.406 344.012 -205.231 343.748 -191.62C343.525 -180.069 341.03 -168.229 337.001 -156.304C339.977 -166.478 341.788 -176.636 341.977 -186.672C342.248 -201.139 339.099 -214.516 332.617 -226.43ZM148.062 -117.697C150.923 -100.566 152.296 -87.2549 151.489 -79.5835C150.362 -68.8733 146.718 -63.1526 141.68 -60.0219C146.211 -63.8685 149.564 -70.2198 150.788 -80.9496C151.683 -88.7852 150.584 -101.481 148.062 -117.697ZM216.486 120.623C201.889 130.341 189.476 121 176.334 111.104C168.306 105.057 160.004 98.8065 150.66 96.3303C143.845 94.5132 139.772 100.897 137.073 105.112C135.815 107.076 134.725 108.759 134.132 108.341C133.615 107.969 132.74 105.793 131.507 97.5454C128.856 79.7966 126.508 77.5131 122.247 74.7195C119.771 73.0972 116.688 71.0765 112.389 63.3614C105.286 50.6108 96.0936 45.5665 87.2046 40.6865C77.2676 35.2308 67.8816 30.0771 61.1326 15.1197C58.7266 9.7865 54.5496 -2.01831 53.0026 -22.0353C53.2086 -22.1426 53.4146 -22.2739 53.6186 -22.425C54.5706 -22.2805 55.5226 -22.379 56.4266 -22.9702C57.3566 -22.7271 58.2596 -22.7928 59.1216 -23.2854C60.5266 -22.795 61.8646 -22.9548 63.0616 -24.356C65.0136 -22.8563 66.8156 -22.379 68.3686 -23.986C68.4146 -24.0341 68.4556 -24.0998 68.5006 -24.1501C70.0676 -22.7993 71.5126 -22.1863 72.7886 -22.7337C74.0786 -21.9959 75.2556 -21.9324 76.2806 -22.8475C76.3966 -22.9504 76.5036 -23.0862 76.6136 -23.2131C78.2116 -21.6653 79.6566 -20.945 80.8856 -21.4354C81.8556 -20.8027 82.7466 -20.5991 83.5456 -20.9166C84.5376 -20.2422 85.4366 -20.043 86.2396 -20.3714C87.2326 -19.6752 88.1286 -19.4584 88.9206 -19.7869C90.1066 -18.933 91.1596 -18.7184 92.0386 -19.384C93.2536 -20.3035 94.0336 -22.6067 94.3566 -26.2322C96.3966 -49.1281 109.879 -49.3339 124.154 -49.5529C138.609 -49.774 153.555 -50.0038 156.094 -76.2603C158.763 -103.87 137.54 -190.241 115.072 -281.684C103.486 -328.836 91.7116 -376.762 83.3746 -416.161C98.5666 -412.308 126.366 -389.449 149.304 -370.573C162.847 -359.425 174.544 -349.798 181.088 -346.201C187.9 -342.449 193.066 -357.4 199.042 -374.704C208.729 -402.756 220.783 -437.673 246.221 -423.664C265.456 -413.074 263.295 -343.408 261.559 -287.431C260.509 -253.567 259.602 -224.322 263.617 -213.761C266.494 -206.188 270.719 -213.465 276.067 -222.689C287.502 -242.412 304.783 -272.211 331.329 -223.083C337.398 -211.926 340.227 -200.075 339.979 -186.852C339.249 -147.98 311.923 -105.602 287.814 -68.2146C268.842 -38.7924 252.456 -13.3809 251.83 6.09088C251.671 11.041 252.512 15.4568 254.329 19.2115C257.154 25.0548 260.304 27.5813 263.719 27.5813C273.87 27.5769 286.337 5.23926 299.392 -18.7907C300.403 -20.5903 301.415 -22.4009 302.433 -24.218C302.634 -24.5793 302.837 -24.9405 303.038 -25.3018C303.382 -25.8994 303.726 -26.4949 304.071 -27.0948C305.033 -28.7653 305.999 -30.4467 306.969 -32.1281C309.485 -36.3863 312.03 -40.6817 314.59 -44.9247C319.431 -52.6902 324.338 -60.4338 329.226 -67.7089C329.413 -67.9869 329.601 -68.2606 329.788 -68.5364C336.684 -76.7442 343.451 -81.4819 349.923 -80.0895C356.43 -78.6949 362.082 -71.2206 367.203 -57.2417C380.398 -21.2208 367.731 15.459 356.555 47.8215C349.007 69.6797 341.854 90.3973 343.407 108.685C315.22 122.011 285.641 132.283 267.163 132.283H266.965C260.198 132.257 253.29 128.524 246.61 124.916C236.682 119.552 226.416 114.005 216.486 120.623ZM144.082 101.768C145.84 100.588 147.913 100.013 150.419 100.676C159.553 103.097 167.753 109.273 175.684 115.244C179.158 117.86 182.581 120.428 186.011 122.641C182.069 120.5 178.14 117.821 174.144 115.093C166.051 109.565 157.683 103.851 148.206 101.742C146.704 101.405 145.337 101.46 144.082 101.768ZM148.003 106.097C157.281 108.161 165.55 113.81 173.548 119.272C176.567 121.335 179.546 123.358 182.526 125.162C179.017 123.377 175.51 121.238 171.95 119.056C163.795 114.055 155.363 108.882 145.753 107.143C144.265 106.876 142.91 106.966 141.661 107.288C143.431 106.139 145.508 105.543 148.003 106.097ZM83.1545 46.2407C91.8795 52.8087 100.904 59.5978 107.53 71.523C112.209 79.9694 115.661 82.15 118.433 83.9058C122.208 86.2922 124.288 87.6079 126.83 103.846C128.117 112.155 129.251 116.111 130.704 117.387C129.951 118.278 129.331 118.758 128.872 118.412C128.001 117.746 127.041 114.116 125.94 107.316C122.983 89.0573 119.788 87.1132 115.744 84.6523C112.879 82.9097 109.634 80.9349 105.214 72.9154C99.1005 61.8725 90.9185 53.6932 82.7955 45.9714C82.9155 46.0612 83.0355 46.1509 83.1545 46.2407ZM48.0405 -21.7484C48.2005 -21.7374 48.3615 -21.7264 48.5245 -21.7111C48.7905 -10.3157 50.2685 0.779724 53.9715 10.8484C53.5545 9.96832 53.1475 9.07507 52.7575 8.15997C48.4465 -1.97662 47.5155 -11.3557 48.0405 -21.7484ZM56.9445 11.6429C52.5715 1.66406 50.7925 -9.23004 50.5165 -21.5253C50.6825 -21.5231 50.8495 -21.5274 51.0165 -21.534C52.2985 -4.70905 55.3565 6.71478 57.8565 13.598C57.5485 12.9543 57.2395 12.3151 56.9445 11.6429ZM131.492 113.387C130.687 112.789 129.756 109.107 128.724 102.434C125.842 84.0328 122.967 82.2156 118.988 79.6979C116.392 78.056 113.162 76.0133 108.8 68.1449C103.378 58.3827 96.5395 52.0206 89.5465 46.4969C97.3115 50.8492 105.096 55.9329 111.122 66.7481C115.73 75.0193 119.026 77.1802 121.674 78.9141C125.209 81.2327 127.157 82.5068 129.607 98.907C130.809 106.953 131.881 110.883 133.236 112.229C132.504 113.175 131.909 113.705 131.492 113.387ZM145.351 -121.457C148.331 -103.651 149.745 -89.8537 148.849 -82.0115C147.636 -71.3846 143.922 -65.6661 138.834 -62.4718C143.411 -66.3535 146.828 -72.6763 148.137 -83.2967C149.129 -91.3358 147.99 -104.548 145.351 -121.457ZM263.242 139.626H263.129C256.033 139.626 249.092 134.729 242.379 129.989C238.174 127.02 233.903 124.019 229.576 122.226C234.967 123.136 240.46 126.103 246.13 129.166C252.926 132.837 259.953 136.634 266.961 136.662H267.135C285.114 136.662 316.441 125.567 343.929 112.827C343.949 112.947 343.972 113.068 343.993 113.188C315.521 126.933 281.858 139.486 263.242 139.626ZM350.821 89.1495C351.493 94.1302 352.891 98.7147 355.024 102.979C354.24 103.378 353.454 103.776 352.664 104.173C351.581 101.405 350.819 98.522 350.395 95.4986C349.82 91.3979 349.861 87.0719 350.369 82.5597C350.387 84.7841 350.528 86.9821 350.821 89.1495ZM272.804 -235.759C273.812 -233.355 275.004 -232.799 276.384 -233.524C273.528 -228.992 271.68 -227.229 270.625 -229.846C266.868 -239.17 268.017 -271.044 269.234 -304.793C271.447 -366.126 274.2 -442.459 252.107 -453.949C232.647 -464.063 220.382 -447.344 211.515 -425.831C220.384 -452.9 232.974 -478.231 255.265 -467.054C276.488 -456.414 273.462 -379.087 271.032 -316.952C269.494 -277.623 268.278 -246.559 272.804 -235.759ZM142.8 -124.219C145.781 -106.236 147.175 -92.2946 146.205 -84.4372C144.908 -73.9131 141.138 -68.1968 136.017 -64.9304C140.622 -68.8492 144.09 -75.1435 145.483 -85.6282C146.557 -93.7177 145.447 -107.084 142.8 -124.219ZM59.0335 -36.1216C58.9135 -35.259 58.7885 -34.4643 58.6565 -33.744C58.5475 -33.871 58.4395 -33.9958 58.3315 -34.1205C58.2875 -34.1731 58.2435 -34.2256 58.1985 -34.2782C58.3205 -35.0707 58.4405 -35.8895 58.5495 -36.785C58.7105 -36.566 58.8715 -36.3449 59.0335 -36.1216ZM42.0535 -10.397C42.3985 -11.4019 42.6475 -12.6213 42.8505 -13.9371C42.7005 -7.81799 43.6095 -1.46893 46.4445 5.94629C45.7185 4.37872 45.0215 2.80243 44.3865 1.21515C42.9125 -2.46729 42.0515 -5.45135 41.6605 -8.09167C41.8205 -8.79663 41.9485 -9.57166 42.0535 -10.397ZM349.127 115.358C348.418 115.725 347.708 116.091 346.99 116.457C346.968 116.387 346.947 116.316 346.926 116.246C347.64 115.896 348.352 115.546 349.058 115.195C349.08 115.25 349.105 115.305 349.127 115.358ZM355.516 73.9644C356.608 82.7085 360.03 90.3383 366.009 97.1865C363.205 98.7168 360.348 100.234 357.452 101.732C354.967 97.4339 353.404 92.8363 352.739 87.9081C351.69 80.1339 352.913 71.5802 355.397 62.4945C355.04 66.3828 355.047 70.2075 355.516 73.9644ZM274.818 -328.755C273.1 -287.784 271.743 -255.421 276.482 -244.549C277.434 -242.368 278.566 -241.861 279.876 -242.526C277.275 -238.397 275.288 -236.306 274.278 -238.719C270.346 -248.1 271.647 -281.365 273.025 -316.58C275.521 -380.403 278.628 -459.834 255.712 -471.321C236.356 -481.028 224.056 -464.792 215.183 -443.046C224.049 -470.623 236.713 -495.136 258.883 -484.402C280.898 -473.749 277.527 -393.353 274.818 -328.755ZM109.197 -61.8612C122.682 -64.4337 136.628 -67.0937 140.174 -90.318C144.031 -115.559 125.895 -193.433 106.694 -275.88C95.1365 -325.51 83.3485 -376.145 77.0625 -412.958C84.0805 -375.262 95.6835 -326.408 107.662 -275.981C126.903 -194.983 146.799 -111.224 143.562 -86.8523C140.738 -65.594 127.774 -63.8885 114.049 -62.0802C100.069 -60.2411 85.6275 -58.3386 82.5245 -33.468C81.6885 -34.8888 80.8335 -36.3907 79.9705 -37.9473C83.6865 -56.9834 96.1065 -59.3654 109.197 -61.8612ZM118.373 138.626C117.264 137.696 116.128 133.961 114.798 126.872C111.471 109.14 107.43 106.975 102.751 104.468C99.3525 102.647 95.5005 100.582 90.8645 92.0461C86.1275 83.3239 79.5385 72.6115 72.5625 61.2687C60.2985 41.3283 46.5905 19.0236 38.6055 0.61792C39.4365 -0.161499 40.0655 -1.41595 40.5355 -3.03168C41.0835 -0.844543 41.8455 1.51117 42.8825 4.10333C49.8625 21.5391 62.1705 37.6174 74.0745 53.1638C82.7175 64.4541 90.8805 75.1183 96.7575 85.8481C101.633 94.7477 105.572 96.9918 108.737 98.7958C112.946 101.193 115.726 102.776 118.501 118.662C120.002 127.255 121.286 131.298 122.928 132.621C124.672 134.015 126.329 132.023 128.43 129.499C131.149 126.232 134.862 121.744 140.756 122.342C150.459 123.307 158.931 127.327 167.125 131.213C175.539 135.202 183.657 139.027 192.242 138.97C182.353 141.179 173.269 138.149 163.126 134.738C154.74 131.918 146.068 129.004 135.94 128.794C135.853 128.794 135.767 128.792 135.682 128.792C129.607 128.792 125.655 132.949 122.758 135.995C120.819 138.033 119.42 139.5 118.373 138.626ZM348.39 120.356L348.349 120.26C349.132 119.857 349.913 119.456 350.685 119.053C350.731 119.031 350.779 119.005 350.824 118.981C350.834 119.001 350.843 119.021 350.853 119.04C350.043 119.476 349.218 119.914 348.39 120.356ZM360.227 58.93C361.607 70.8925 367.621 80.9305 378.871 89.852C375.693 91.7457 372.4 93.6439 369.016 95.5289C362.313 88.7136 358.492 81.191 357.445 72.8081C356.549 65.6381 357.711 57.8507 360.08 49.621C359.843 52.7583 359.872 55.8628 360.227 58.93ZM135.145 -132.743C138.146 -114.092 139.49 -99.6356 138.279 -91.7081C136.694 -81.3285 132.655 -75.5947 127.314 -72.118C132.122 -76.1573 135.852 -82.3969 137.527 -92.6583C138.872 -100.901 137.82 -114.851 135.145 -132.743ZM362.585 51.4516C364.065 64.7933 371.469 75.8384 385.678 85.6838C384.559 86.3888 383.428 87.0938 382.273 87.8009C370.068 78.9582 363.462 69.0997 362.165 57.8575C361.787 54.5714 361.873 51.1604 362.327 47.6487C362.363 48.9164 362.445 50.184 362.585 51.4516ZM280.489 -346.453C278.498 -303.008 276.927 -268.693 281.995 -257.742C282.866 -255.859 283.88 -255.342 285.059 -255.874C282.566 -251.892 280.685 -249.902 279.75 -252.001C275.547 -261.453 277.078 -296.808 278.698 -334.241C281.622 -401.797 285.259 -485.871 261.113 -497.359C241.779 -506.554 229.381 -490.758 220.466 -468.613C229.365 -496.914 242.178 -520.607 264.305 -510.429C287.51 -499.754 283.617 -414.753 280.489 -346.453ZM102.677 -272.314C92.7755 -316.324 82.6755 -361.216 77.0995 -394.71C83.3365 -360.555 93.2965 -317.322 103.562 -272.763C121.184 -196.275 139.406 -117.181 135.644 -94.1319C132.36 -74.0076 119.809 -71.2381 106.522 -68.3066C94.1465 -65.5765 81.4175 -62.7523 76.4595 -44.4233C75.7585 -45.7413 75.0685 -47.0483 74.3925 -48.3269C79.5725 -61.9292 90.4225 -64.9876 101.778 -68.1753C114.761 -71.8205 128.188 -75.5883 132.216 -97.3414C136.654 -121.297 120.15 -194.652 102.677 -272.314ZM367.298 36.7129C368.899 52.3096 379.115 64.9836 399.378 76.4556C396.259 78.7281 392.843 81.0663 389.196 83.433C374.008 73.6949 365.908 62.8534 364.529 50.418C363.858 44.369 364.797 37.9236 366.775 31.1739C366.886 30.9068 366.999 30.6375 367.113 30.3704C367.03 32.4853 367.081 34.598 367.298 36.7129ZM100.045 -269.691C91.1835 -310.152 82.1565 -351.392 77.0605 -382.699C82.7755 -350.876 91.6925 -311.225 100.882 -270.379C117.392 -197.001 134.463 -121.124 130.363 -98.9876C126.774 -79.6055 114.508 -76.1639 101.523 -72.5187C90.2135 -69.342 78.6065 -66.0799 72.8755 -51.1947C72.2665 -52.3463 71.6625 -53.4826 71.0685 -54.5948C76.7395 -65.5742 86.5905 -68.9479 96.8525 -72.453C109.493 -76.7704 122.562 -81.2344 126.901 -102.013C131.717 -125.08 116.333 -195.322 100.045 -269.691ZM105.584 164.254C104.067 163.192 102.613 159.203 100.872 151.324C97.0825 134.181 91.9785 131.784 86.5745 129.249C82.2665 127.228 77.8125 125.14 72.9285 115.958C60.5905 92.7682 30.3015 20.5338 18.0955 -14.1253C20.1665 -11.5266 22.2485 -9.02637 24.2735 -6.81079C36.4535 25.532 65.7705 85.4165 78.8085 109.722C83.9715 119.347 88.5555 121.608 92.5995 123.603C97.5345 126.035 101.432 127.957 104.625 143.348C108.431 161.697 111.196 160.28 116.596 155.624C119.538 153.086 123.201 149.929 128.672 149.41C139.052 148.44 147.827 149.581 156.309 150.685C163.388 151.606 169.948 152.445 176.62 151.976C168.403 153.855 160.526 153.916 151.855 153.975C143.257 154.032 134.368 154.093 123.681 155.873C118.219 156.793 114.286 159.777 111.413 161.955C108.872 163.882 107.037 165.268 105.584 164.254ZM315.816 174.388C284.852 192.001 245.076 210.792 226.014 213.069C217.51 214.096 213.121 197.486 208.48 179.912C204.552 165.035 200.507 149.78 193.713 147.405C193.948 147.291 194.179 147.195 194.415 147.076C202.824 142.869 207.876 157.29 213.224 172.545C218.44 187.421 223.827 202.79 232.773 202.79C233.029 202.79 233.288 202.777 233.55 202.751C253.099 200.848 292.929 182.668 323.731 165.495C338.325 157.36 351.279 149.303 361.677 141.916C362.241 142.354 362.828 142.785 363.418 143.212C353.462 151.232 338.08 161.723 315.816 174.388ZM369.673 29.2693C371.274 45.5359 382.519 58.7573 405.061 70.8795C405.382 71.0547 405.667 71.2364 405.934 71.4203C404.935 72.2347 403.892 73.0601 402.801 73.8964C402.555 73.7322 402.312 73.5659 402.04 73.4169C381.428 62.223 370.702 49.9015 369.249 35.7519C368.946 32.7897 369.056 29.7357 369.504 26.6027C369.536 27.4916 369.585 28.3782 369.673 29.2693ZM122.526 -146.927C125.526 -127.171 126.753 -111.837 125.082 -103.835C122.95 -93.6216 118.381 -87.7914 112.61 -83.8813C117.814 -88.1898 122.044 -94.4031 124.247 -104.36C126.121 -112.828 125.214 -127.753 122.526 -146.927ZM34.5225 -15.3843C36.3205 -14.9792 38.0925 -14.9661 39.6985 -15.6623C39.6355 -15.2069 39.5855 -14.745 39.5425 -14.2786C38.1285 -13.1796 36.2365 -13.3394 34.1205 -14.2677C34.1935 -14.6574 34.3265 -15.0296 34.5225 -15.3843ZM119.914 -150.494C122.984 -130.179 124.241 -114.377 122.447 -106.27C120.203 -96.1221 115.55 -90.2613 109.716 -86.2505C114.973 -90.6225 119.28 -96.838 121.587 -106.694C123.604 -115.305 122.676 -130.72 119.914 -150.494ZM374.406 14.485C375.894 30.9509 387.858 44.5707 412.058 57.3475C414.72 58.7552 415.601 60.4323 415.547 61.4394C415.53 61.759 415.464 62.1049 415.377 62.464C414.77 63.1865 414.087 63.9352 413.353 64.6971C412.348 61.6342 409.972 60.36 409.032 59.8565C386.809 48.0189 375.35 35.3011 373.999 20.9764C373.803 18.8987 373.829 16.7794 374.037 14.623C374.146 14.3799 374.255 14.1348 374.365 13.8917C374.38 14.0887 374.388 14.2858 374.406 14.485ZM428.016 -153.143C413.791 -193.426 359.703 -118.352 316.245 -58.0299C303.5 -40.338 291.462 -23.6292 282.584 -13.0328C270.29 1.64001 267.875 -0.164001 267.409 -1.62207C267.32 -1.90009 267.228 -2.32483 267.303 -3.1524C268.164 -12.6037 283.971 -34.6042 302.273 -60.0791C340.515 -113.304 392.889 -186.201 394.802 -252.801C395.38 -272.892 391.221 -291.155 382.441 -307.083C345.173 -374.684 316.767 -321.755 301.506 -293.321C296.667 -284.303 292.097 -275.802 290.7 -278.58C285.931 -288.088 287.924 -327.669 290.035 -369.575C293.813 -444.6 298.515 -537.971 271.926 -549.443C237.028 -564.501 223.39 -501.137 214.37 -459.208C213.491 -455.12 212.646 -451.195 211.823 -447.521C211.798 -447.411 211.774 -447.302 211.749 -447.195C208.129 -431.075 204.93 -419.946 201.117 -422.033C194.453 -425.698 180.897 -437.301 165.201 -450.735C131.36 -479.702 89.2455 -515.749 74.8845 -509.389C72.9425 -508.529 71.5375 -506.133 70.7085 -502.267C69.9205 -498.593 69.7185 -493.527 69.9895 -487.334C69.9525 -485.383 69.9965 -483.24 70.0945 -480.963C70.0585 -479.01 70.1065 -476.858 70.2045 -474.583C70.1685 -472.597 70.2095 -470.426 70.3135 -468.105C70.2605 -465.134 70.3685 -461.782 70.6215 -458.084C70.4655 -455.365 70.4645 -452.281 70.6185 -448.828C70.5705 -445.905 70.6655 -442.643 70.9065 -439.037C70.6955 -435.458 70.7615 -431.219 71.0735 -426.401C70.9055 -423.688 70.8975 -420.597 71.0335 -417.164C70.9915 -415.228 71.0165 -413.135 71.1005 -410.898C71.0515 -408.86 71.0795 -406.638 71.1715 -404.264C70.5795 -377.59 82.1725 -322.027 94.3615 -263.633C107.983 -198.372 122.069 -130.89 117.174 -111.121C112.838 -93.6107 101.328 -88.6147 89.1405 -83.3253C80.1705 -79.4305 71.0145 -75.4482 64.6925 -65.9684C60.4725 -72.9217 56.9425 -77.0748 54.5375 -75.3584C53.3275 -74.4936 52.5205 -72.3196 52.1295 -68.9108C51.7355 -67.8315 51.4415 -66.4413 51.2405 -64.7686C50.8535 -63.6827 50.5615 -62.2969 50.3545 -60.6483C49.9715 -59.5449 49.6785 -58.1525 49.4655 -56.5083C49.0045 -55.14 48.6605 -53.382 48.4385 -51.2386C48.3845 -50.7263 48.3155 -50.2644 48.2565 -49.7696C47.6345 -48.4297 47.1505 -46.6017 46.8185 -44.2613C46.3255 -42.6609 45.9495 -40.6423 45.6995 -38.1969C45.6945 -38.1487 45.6865 -38.1093 45.6815 -38.0611C45.0275 -36.4979 44.5145 -34.405 44.1425 -31.7405C42.2875 -27.2218 39.8215 -24.9756 37.5895 -23.165C36.3825 -22.6812 35.1605 -22.4097 34.0085 -22.1535C32.7875 -21.8842 31.6915 -21.6215 30.7765 -21.1311C29.7245 -21.6062 28.7035 -22.1229 27.7575 -22.6045C24.7075 -24.1567 22.6155 -25.1989 21.4015 -24.1392C21.4005 -24.1414 21.3985 -24.1414 21.3975 -24.1436C17.3305 -27.9574 15.1215 -29.9278 13.8125 -29.814C11.6585 -31.9814 10.3505 -32.9425 9.49253 -32.717C7.37553 -35.0355 6.10053 -36.0141 5.27153 -35.7186C2.39853 -39.0923 1.15353 -39.6812 0.391533 -38.002C-0.519467 -35.9944 0.386533 -32.7542 0.822533 -31.1976C9.11853 -1.51044 47.5885 108.345 60.8585 133.604C66.2825 143.924 71.7145 146.304 76.5075 148.403C82.2065 150.899 87.1285 153.053 90.7485 168.035C95.6135 188.157 98.9665 186.018 105.646 181.755C108.452 179.967 111.943 177.738 116.581 176.466C127.205 173.57 136.352 171.641 144.422 169.942C157.469 167.192 168.737 164.819 181.831 159.442C190.274 155.972 193.649 175.695 197.22 196.573C200.836 217.711 204.571 239.542 214.012 239.542C214.33 239.542 214.656 239.518 214.987 239.468C233.457 236.657 273.27 216.975 304.533 198.716C322.139 188.433 338.02 178.047 349.248 169.469C365.636 156.95 368.638 151.041 369.252 148.051C370.904 145.936 372.079 143.948 372.663 142.135C375.087 139.167 376.057 137.071 376.455 135.576C380.229 130.876 380.36 128.354 380.43 126.933C380.436 126.803 380.428 126.687 380.43 126.563C386.498 120.349 387.665 116.595 387.8 113.889C387.804 113.81 387.797 113.74 387.8 113.663C391.225 110.027 393.582 106.653 394.611 103.662C397.134 100.413 398.687 97.333 398.887 94.5613C402.154 91.0978 404.548 87.735 405.657 84.6152C407.34 82.4325 408.603 80.3067 409.338 78.2728C411.013 76.101 412.274 73.9796 413.023 71.9413C414.698 69.7673 415.963 67.6415 416.725 65.5923C419.44 62.0652 421.105 58.6434 421.278 55.4667C421.616 49.2446 417.407 47.0399 416.024 46.3174C392.196 33.8427 380.004 20.7528 378.753 6.29889C378.693 5.60486 378.667 4.9043 378.658 4.19934C378.782 3.91473 378.907 3.63226 379.03 3.34766C379.309 2.77844 379.588 2.21143 379.869 1.64221C382.277 -3.25751 384.735 -8.25793 387.116 -13.3634C389.48 -18.0376 391.823 -22.8038 394.041 -27.6663C396.671 -32.4652 399.273 -37.3649 401.721 -42.3719C403.379 -45.4238 404.997 -48.5151 406.546 -51.6502C408.046 -54.3737 409.513 -57.1389 410.918 -59.9456C412.524 -62.7961 414.084 -65.6925 415.572 -68.6394C424.291 -83.8792 431.506 -100.505 432.787 -118.836C433.591 -130.358 431.986 -141.901 428.016 -153.143Z" fill="url(#paint0_linear_7_595)"/>
<defs>
<linearGradient id="paint0_linear_7_595" x1="379.483" y1="-185.289" x2="106.508" y2="-247.849" gradientUnits="userSpaceOnUse">
<stop stop-color="white" stop-opacity="0.01"/>
<stop offset="1" stop-color="white" stop-opacity="0.24"/>
</linearGradient>
</defs>
</svg>
