<svg width="566" height="450" viewBox="0 0 440 359" fill="none" xmlns="http://www.w3.org/2000/svg">
<path fill-rule="evenodd" clip-rule="evenodd" d="M28.9994 -190.518L44.2028 -198.944L150.289 -135.498L167.059 -125.381V-125.381L174.43 -120.923V-120.923L183.394 -115.49V-115.49C192.678 -109.842 202.5 -103.758 212.075 -97.2315C213.421 -96.3152 214.763 -95.3876 216.101 -94.4509C221.573 -90.582 226.831 -86.4915 231.84 -82.2078C236.843 -77.929 241.602 -73.4538 246.08 -68.8124C254.966 -59.5706 263.551 -49.0284 272.324 -36.5819C277.704 -28.9497 283.047 -21.0037 288.271 -13.1646L292.164 -7.312C293.645 -5.08399 295.126 -2.85512 296.61 -0.630013L298.039 1.50088C306.58 14.1627 314.545 24.6103 322.344 33.3843C331.541 43.7332 341.537 52.2489 352.074 58.7159L353.183 59.3883C364.13 65.9339 376.773 70.9372 390.762 74.2587C403.022 77.1711 416.485 79.2707 433.13 80.8654L447.667 82.2466C457.298 83.1686 467.084 84.1504 476.607 85.3314C491.827 87.2179 505.281 89.8655 517.736 93.4223C530.229 97.0063 542.71 101.931 554.829 108.055C565.451 113.465 575.843 119.382 585.618 125.101L589.315 127.271V127.271C599.548 133.304 609.755 139.355 619.947 145.4L726.51 209.115L726.205 226.455L615.318 160.136C610.458 157.251 605.592 154.366 600.722 151.482L589.27 144.707V144.707L581.532 140.137V140.137L578.947 138.62C567.429 131.882 557.398 126.266 546.824 121.14C534.532 115.219 521.672 110.664 508.604 107.601C495.976 104.643 482.077 102.56 466.109 101.233C458.874 100.632 451.493 100.118 444.214 99.6358L430.416 98.7294V98.7294L421.753 98.1451V98.1451C419.71 98.0023 417.706 97.8468 415.737 97.6811C401.94 96.5155 389.935 94.7761 379.189 92.3911C365.658 89.3885 353.444 84.7338 342.87 78.5503L341.831 77.9343C331.142 71.5118 321.05 62.8394 311.833 52.1563C303.643 42.6634 295.44 31.3493 286.751 17.5668C284.838 14.5336 282.933 11.4887 281.032 8.4407L274.508 -2.02538C270.807 -7.95069 267.038 -13.9471 263.266 -19.7804C254.638 -33.1254 246.338 -44.3178 237.893 -53.9977C229.133 -64.0377 219.196 -73.1816 208.359 -81.1761C197.636 -89.0286 186.323 -96.0988 175.695 -102.57C167.582 -107.501 159.471 -112.401 151.374 -117.286L142.533 -122.618L28.9994 -190.518ZM61.4223 -208.497L159.022 -150.126C167.286 -145.146 175.568 -140.156 183.857 -135.142L192.148 -130.119C202.081 -124.088 213.755 -116.901 225.015 -109.323C236.177 -101.77 246.525 -93.5561 255.772 -84.9076C265.168 -76.0887 274.428 -65.9593 283.297 -54.7994C290.702 -45.4825 297.996 -35.6149 305.099 -25.9099L308.78 -20.8718C318.505 -7.5598 326.944 2.80731 335.338 11.7544C344.701 21.7351 354.76 30.0491 365.258 36.4871L366.463 37.2171C377.404 43.7547 389.934 48.9304 403.704 52.5996C415.567 55.7597 428.759 58.2999 445.222 60.5959L451.202 61.4315C463.211 63.1165 475.478 64.9015 487.461 67.0939C501.593 69.681 515.003 73.1208 527.313 77.3173C539.567 81.5167 551.471 86.7057 563.703 93.1837C575.739 99.5793 587.302 106.298 598.006 112.606L607.031 117.942C611.84 120.786 616.647 123.631 621.446 126.478L630.652 131.941V131.941L665.084 152.529L726.836 189.461L726.532 206.799L635.414 152.303L634.409 151.704C630.977 149.651 627.553 147.603 624.117 145.546C616.619 141.098 609.119 136.648 601.607 132.205L590.262 125.508V125.508L586.617 123.369C576.818 117.635 566.397 111.701 555.726 106.267C543.497 100.087 530.899 95.1179 518.279 91.4949C505.725 87.9096 492.172 85.2423 476.846 83.3427C466.111 82.0111 455.055 80.9337 444.263 79.9095L433.314 78.8715C416.764 77.2851 403.389 75.2003 391.217 72.3087C377.812 69.1208 365.668 64.3776 355.106 58.2012L354.016 57.555C343.315 51.1252 333.163 42.5478 323.846 32.0601C315.657 22.8441 307.295 11.7895 298.281 -1.73529L296.057 -5.07425V-5.07425L293.836 -8.41541C287.381 -18.1263 280.706 -28.1682 273.966 -37.7302C265.133 -50.2568 256.485 -60.8756 247.527 -70.1957C243.253 -74.6256 238.716 -78.8997 233.961 -83.0085C228.651 -87.5991 223.071 -91.9752 217.246 -96.0912C215.886 -97.0436 214.521 -97.9879 213.15 -98.9213C203.5 -105.497 193.694 -111.568 184.44 -117.195L183.105 -118.003V-118.003C178.096 -121.044 173.086 -124.077 168.081 -127.1L151.269 -137.244L46.2184 -200.069L61.4223 -208.497ZM78.6544 -218.049L167.766 -164.756C176.035 -159.777 184.32 -154.789 192.613 -149.778L203.966 -142.904C212.632 -137.636 223.327 -131.054 233.926 -124.183C240.346 -119.993 246.349 -115.792 252.046 -111.514L254.317 -109.801V-109.801L254.868 -109.372C258.487 -106.585 261.99 -103.762 265.388 -100.879C275.158 -92.5797 284.869 -83.1864 294.248 -72.9581C296.437 -70.5671 298.603 -68.1541 300.773 -65.6941L302.401 -63.8392C307.293 -58.2451 312.246 -52.3757 317.599 -45.9314L321.988 -40.6312V-40.6312L322.74 -39.7261C332.512 -27.9701 340.864 -18.7423 348.9 -10.8143C350.463 -9.27024 352.045 -7.77754 353.637 -6.31687L354.834 -5.22707C355.385 -4.72904 355.931 -4.21745 356.485 -3.72816L357.397 -2.94607V-2.94607C364.43 3.18186 371.694 8.56427 379.105 13.1061L380.428 13.9068C391.349 20.4339 403.72 25.8466 417.2 29.9962C419.321 30.6501 421.498 31.2903 423.739 31.923L425.521 32.4209C434.503 34.9009 444.533 37.2446 456.374 39.6388L457.564 39.8784C470.674 42.5074 484.682 45.4199 498.276 48.8946C499.967 49.33 501.65 49.7762 503.323 50.2321C515.034 53.4294 526.282 57.1524 536.826 61.3227C548.549 65.9854 560.242 71.5456 572.572 78.3197C579.014 81.8818 585.476 85.5574 591.844 89.2104L600.702 94.304V94.304L606.832 97.8332L727.195 169.82L726.893 187.156L632.894 130.936L622.469 124.76C617.667 121.911 612.857 119.064 608.043 116.217C605.036 114.438 602.041 112.655 599.028 110.878L595.422 108.757C585.725 103.067 575.379 97.1146 564.647 91.4112C552.322 84.8851 540.324 79.6533 527.967 75.4213C515.562 71.1915 502.058 67.7273 487.828 65.1223C474.808 62.7396 461.473 60.8403 448.494 59.0276L445.506 58.6106C429.123 56.3267 416.007 53.7996 404.226 50.6606C390.636 47.0412 378.279 41.9377 367.498 35.495L367.244 35.3426C356.561 28.9237 346.321 20.5273 336.803 10.382C328.874 1.92895 320.896 -7.80956 311.81 -20.1388L310.334 -22.1504L306.783 -27.0088C299.649 -36.7595 292.321 -46.6744 284.871 -56.0486C275.933 -67.2919 266.605 -77.4929 257.146 -86.3719C247.821 -95.0933 237.39 -103.374 226.142 -110.986C214.952 -118.52 203.693 -125.458 193.192 -131.834C185.092 -136.75 176.995 -141.637 168.911 -146.511L160.023 -151.868L63.4519 -209.622L78.6544 -218.049ZM80.6777 -219.17L95.8816 -227.597L209.719 -159.512L214.495 -156.559V-156.559L225.108 -150.009C230.976 -146.384 236.932 -142.69 242.798 -138.996C254.815 -131.373 265.309 -124.067 274.881 -116.661C284.9 -108.906 295.022 -100.183 304.966 -90.7375L306.646 -89.1313C315.864 -80.2835 324.652 -71.2498 331.671 -63.9237L336.075 -59.3249C343.484 -51.6218 352.766 -42.2229 362.519 -33.4557C364.417 -31.7484 366.333 -30.1034 368.258 -28.4873C376.366 -21.6638 384.664 -15.6336 393.019 -10.526L394.523 -9.61274V-9.61274C405.379 -3.12031 417.563 2.57446 430.738 7.31393C443.153 11.7817 455.875 15.5297 466.204 18.4248L472.886 20.2834C487.306 24.3069 498.505 27.6739 508.859 31.0928C521.917 35.414 534.491 40.2689 546.23 45.5223C557.359 50.5323 568.87 56.4153 581.423 63.5077C587.341 66.8736 593.31 70.3175 599.179 73.7165L612.061 81.1809C613.235 81.8602 614.408 82.5386 615.579 83.2154L727.533 150.172L727.231 167.507L607.851 96.1072L601.442 92.4223L595.326 88.9007C588.147 84.7733 580.831 80.5986 573.537 76.5684C561.111 69.7408 549.344 64.1461 537.563 59.4622C536.047 58.8629 534.517 58.2723 532.973 57.6923C522.164 53.6253 510.683 50.0207 498.773 46.9577C489.679 44.6331 480.414 42.5648 471.352 40.6616C468.33 40.0269 465.33 39.4093 462.368 38.808L456.718 37.6669V37.6669L454.31 37.1746C442.795 34.7986 433.034 32.469 424.295 30.0024C422.066 29.3733 419.902 28.7345 417.789 28.083C404.449 23.9749 392.224 18.6277 381.454 12.1904L381.194 12.0343C370.521 5.62104 360.129 -2.54354 350.304 -12.2372L349.132 -13.4016C341.299 -21.2287 333.099 -30.3602 323.495 -41.9469L320.878 -45.1105C311.809 -56.0608 303.945 -65.3325 295.722 -74.3102C286.29 -84.5959 276.52 -94.0481 266.682 -102.403C265.003 -103.828 263.297 -105.237 261.566 -106.635L259.334 -108.426V-108.426C257.671 -109.744 255.97 -111.051 254.253 -112.352C248.222 -116.92 241.856 -121.396 235.016 -125.86L233.128 -127.081C221.8 -134.381 210.579 -141.238 201.944 -146.47C190.881 -153.174 179.824 -159.83 168.766 -166.488L80.6777 -219.17ZM113.109 -237.143L218.465 -174.131L225.397 -169.873V-169.873L232.34 -165.619C238.773 -161.68 245.211 -157.736 251.639 -153.76L253.863 -152.373C265.598 -145.034 275.298 -138.598 284.234 -132.224C294.6 -124.824 305.075 -116.676 315.369 -108.006L317.121 -106.526C327.026 -98.1257 336.546 -89.5839 344.058 -82.7675L347.942 -79.2432C355.695 -72.2262 365.424 -63.5955 375.648 -55.2869C385.982 -46.8915 396.063 -39.724 406.41 -33.4221L407.928 -32.5052V-32.5052L408.151 -32.3714C419.107 -25.8201 430.761 -19.9946 443.777 -14.5619L445.904 -13.6797C457.607 -8.85829 469.381 -4.54851 478.897 -1.15836L485.726 1.27118C495.508 4.7664 507.414 9.1158 519.141 13.7887C531.757 18.8185 543.988 24.2581 555.491 29.9579L557.358 30.8889C567.342 35.8965 577.85 41.6038 590.236 48.7429C594.628 51.2848 599.011 53.8367 603.39 56.3918L609.957 60.2259C614.747 63.0237 619.534 65.8208 624.315 68.599L727.88 130.539L727.578 147.868L616.597 81.4925L611.454 78.5166V78.5166L597.425 70.3866C592.446 67.5068 587.413 64.6094 582.413 61.7646C569.806 54.6421 558.24 48.7324 547.055 43.696C535.254 38.4149 522.616 33.535 509.493 29.1924L507.319 28.4797C495.001 24.4695 482.728 20.9474 472.843 18.1921L466.645 16.4667C456.34 13.5751 443.686 9.84319 431.42 5.4313C418.821 0.898067 407.138 -4.5155 396.671 -10.6689L395.189 -11.5496V-11.5496C384.575 -17.9268 374.037 -25.7963 363.862 -34.9435C354.111 -43.7162 344.874 -53.0683 337.511 -60.7253L331.909 -66.5722C324.661 -74.1199 315.698 -83.29 306.35 -92.188C296.353 -101.684 286.178 -110.451 276.111 -118.245C266.52 -125.668 255.976 -133.01 243.872 -140.689C237.025 -145.001 230.061 -149.308 223.257 -153.507L220.352 -155.299C217.158 -157.27 213.965 -159.24 210.765 -161.221L97.9096 -228.72L113.109 -237.143ZM130.332 -246.692L260.603 -168.782C263.29 -167.038 265.985 -165.304 268.684 -163.573L272.733 -160.977C279.542 -156.617 286.583 -152.107 293.438 -147.542C303.309 -140.966 313.391 -133.812 323.435 -126.253L325.443 -124.736C335.008 -117.484 344.44 -109.995 352.25 -103.718L360.09 -97.401C368.077 -90.9809 377.892 -83.2108 387.949 -75.7366C399.157 -67.3988 409.955 -60.1385 420.879 -53.6156C431.832 -47.0645 443.322 -40.9903 456.001 -35.0464L458.07 -34.0804C468.419 -29.2705 478.796 -24.7731 487.528 -21.0653L497.476 -16.8604C509.932 -11.5794 519.846 -7.23018 529.122 -2.98338C541.466 2.69057 553.414 8.61329 564.634 14.6222C570.083 17.542 575.557 20.5685 580.935 23.5648L592.747 30.1544C594.902 31.3532 597.054 32.5462 599.203 33.7286L728.212 110.887L727.909 128.217L625.342 66.8731V66.8731L618.29 62.7664V62.7664L611.241 58.6515C606.803 56.0597 602.364 53.4667 597.919 50.8811L591.242 47.0083L588.933 45.6816C576.731 38.6937 566.335 33.1004 556.387 28.165C544.878 22.4598 532.598 16.9981 519.887 11.9294L517.784 11.0954C506.569 6.67014 495.453 2.61552 486.267 -0.664423L476.938 -3.98614C467.361 -7.42141 455.863 -11.6852 444.553 -16.4081C432.339 -21.5061 420.882 -27.1927 410.479 -33.3209L408.741 -34.3541V-34.3541C398.45 -40.5375 388.439 -47.5678 378.196 -55.8055L376.915 -56.8416C368.835 -63.4056 360.385 -70.7025 349.856 -80.215L342.525 -86.8586C334.989 -93.665 325.89 -101.765 316.663 -109.536C306.293 -118.267 295.777 -126.448 285.401 -133.854L283.712 -135.053C274.653 -141.454 264.74 -147.976 252.698 -155.461C248.409 -158.114 244.117 -160.752 239.825 -163.383L233.391 -167.326C228.761 -170.161 224.135 -172.994 219.508 -175.842L115.133 -238.268L130.332 -246.692ZM725.843 246.075L606.672 174.801L598.643 170.046C592.903 166.644 587.161 163.242 581.412 159.844L572.783 154.751L570.562 153.448C560.825 147.745 549.653 141.395 537.928 135.97C525.683 130.364 512.59 126.187 499.013 123.553C486.302 121.087 472.16 119.418 455.777 118.45C450.641 118.146 445.425 117.873 440.273 117.613L427.57 116.979C422.067 116.701 416.496 116.407 411.016 116.076C394.733 115.093 380.764 113.287 368.311 110.556C354.385 107.501 341.869 102.69 331.11 96.258L330.894 96.1282C320.217 89.7124 310.144 81.0308 300.959 70.3222C292.658 60.6486 284.502 49.2614 276.022 35.5116C272.437 29.706 268.844 23.7543 265.336 17.9258L260.084 9.19927C257.728 5.29052 255.341 1.34687 252.965 -2.52627C244.453 -16.4103 236.402 -28.0074 228.352 -37.9801C219.701 -48.6988 209.99 -58.2248 199.486 -66.2981C188.862 -74.4174 177.575 -81.5084 166.96 -87.9633C159.498 -92.4937 152.038 -96.9996 144.589 -101.494L133.793 -108.003L11.7768 -180.977L26.968 -189.397L141.494 -120.905L142.24 -120.455C153.021 -113.953 163.833 -107.434 174.647 -100.862L178.008 -98.8094C187.589 -92.936 197.609 -86.5675 207.165 -79.5646C217.868 -71.6706 227.696 -62.6263 236.377 -52.6831C244.75 -43.094 252.993 -31.9763 261.578 -18.6962C265.37 -12.8304 269.163 -6.79715 272.886 -0.834633L276.583 5.0955C279.4 9.61472 282.217 14.1362 285.052 18.6326L286.465 20.8598C294.686 33.7267 302.502 44.4104 310.311 53.4628C319.41 64.0155 329.36 72.6377 339.903 79.1085L340.981 79.7613C351.934 86.3066 364.641 91.213 378.748 94.3435C389.581 96.7474 401.673 98.4994 415.56 99.6725C417.544 99.8402 419.564 99.996 421.623 100.14L430.309 100.727V100.727L444.116 101.634C451.373 102.116 458.729 102.627 465.935 103.225C481.803 104.544 495.609 106.612 508.139 109.548C521.083 112.585 533.803 117.091 545.944 122.941C556.811 128.203 567.163 134.029 579.211 141.098L584.103 143.979V143.979L592.367 148.861V148.861L601.305 154.156C605.74 156.785 610.11 159.38 614.36 161.906L726.145 228.763L725.843 246.075ZM725.718 255.039L716.337 260.239L597.926 189.421V189.421L593.218 186.626C586.75 182.787 580.277 178.945 573.795 175.108L564.064 169.358C553.791 163.304 541.767 156.377 529.067 150.77C517.011 145.485 503.741 141.6 489.625 139.221C476.95 137.083 462.677 135.641 445.99 134.809C442.864 134.654 439.734 134.507 436.603 134.362L424.269 133.793C416.587 133.433 408.8 133.041 401.171 132.553C385.093 131.524 371.175 129.634 358.624 126.778C345.157 123.708 332.973 119.017 322.392 112.832L321.291 112.179C310.607 105.759 300.503 97.133 291.257 86.54C282.831 76.8876 274.623 65.5861 266.163 51.9909C260.658 43.144 255.184 33.9646 249.89 25.0856C247.655 21.336 245.419 17.5893 243.178 13.8566C234.641 -0.35005 226.726 -12.1631 218.978 -22.2572C210.319 -33.5314 200.785 -43.3559 190.639 -51.4615C180.228 -59.7163 168.908 -66.8602 158.225 -73.35C150.46 -78.0612 142.697 -82.7468 134.946 -87.4187L125.053 -93.3797L5.46271 -164.902L5.68254 -177.597L9.74351 -179.849L132.751 -106.283L133.65 -105.741C144.38 -99.2703 155.141 -92.7812 165.907 -86.2476C176.503 -79.8018 187.755 -72.7305 198.256 -64.7051C208.632 -56.7297 218.231 -47.3128 226.782 -36.7163C234.772 -26.8168 242.776 -15.2903 251.248 -1.47573C253.617 2.38917 256 6.32551 258.352 10.2275L265.364 21.8765C268.314 26.7696 271.312 31.7184 274.306 36.5682C282.862 50.4363 291.079 61.9045 299.427 71.6312C308.516 82.2203 318.466 90.8642 329.02 97.3428L330.071 97.9797C341.025 104.526 353.742 109.416 367.869 112.514C380.416 115.268 394.488 117.088 410.883 118.08C417.454 118.475 424.153 118.818 430.708 119.146L440.123 119.615C445.282 119.875 450.507 120.149 455.648 120.452C471.946 121.416 486.002 123.075 498.62 125.523C512.062 128.132 525.003 132.26 537.078 137.794C548.426 143.043 559.148 149.061 571.757 156.481C583.039 163.13 594.29 169.807 605.521 176.471L725.836 248.428L725.718 255.039ZM699.085 269.784L589.157 204.041C577.895 197.344 566.616 190.642 555.304 183.961L552.791 182.48C542.679 176.542 531.872 170.457 520.22 165.501C508.261 160.452 494.886 156.741 480.466 154.474C467.769 152.477 453.877 151.128 436.747 150.226L422.08 149.463C412.131 148.938 402.019 148.364 392.164 147.596C376.337 146.365 362.542 144.276 349.988 141.209C336.303 137.868 323.878 132.894 313.051 126.426L312.814 126.283C302.085 119.836 291.918 111.318 282.592 100.961C273.987 91.4014 265.66 80.3024 257.137 67.028C250.975 57.4276 244.892 47.4173 238.978 37.6327L233.936 29.287L232.649 27.1666C224.757 14.2239 217.768 3.72187 210.838 -5.60886L209.826 -6.96707V-6.96707C201.125 -18.5589 191.697 -28.5568 181.801 -36.6834C172.169 -44.5719 161.91 -51.2073 149.471 -58.7448C138.395 -65.4513 127.329 -72.1152 116.289 -78.7569L5.10368 -145.254L5.40603 -162.592L124.008 -91.6616L141.032 -81.3975C146.408 -78.1528 151.789 -74.9006 157.171 -71.6375L159.955 -69.9396C169.745 -63.9435 179.947 -57.3745 189.377 -49.8921C199.399 -41.8916 208.819 -32.1823 217.374 -21.0346L218.66 -19.346C225.958 -9.68574 233.428 1.53773 241.447 14.89C242.93 17.3581 244.409 19.833 245.887 22.3106L248.104 26.0286C253.42 34.9437 258.916 44.1622 264.448 53.051C272.973 66.741 281.243 78.1267 289.733 87.8581C298.852 98.314 308.817 106.888 319.365 113.362L320.472 114.033C331.433 120.584 344.113 125.529 358.162 128.731C370.798 131.611 384.819 133.515 401.026 134.553C408.657 135.041 416.44 135.433 424.117 135.794L431.749 136.146C436.461 136.363 441.172 136.578 445.874 136.812L448.618 136.954C464.042 137.795 477.367 139.186 489.276 141.196C503.232 143.548 516.344 147.387 528.245 152.606C539.981 157.785 551.157 164.118 560.893 169.828L563.031 171.086C569.317 174.793 575.592 178.509 581.858 182.226L596.876 191.137L714.287 261.358L699.085 269.784ZM681.874 279.347L546.632 198.462L543.203 196.479C533.549 190.909 522.826 184.899 511.45 180.171C499.594 175.245 486.196 171.577 471.628 169.27L469.873 168.998C458.112 167.204 445.13 165.865 429.289 164.811L419.724 164.184C407.828 163.396 395.713 162.538 383.96 161.374C368.433 159.835 354.802 157.472 342.286 154.15C328.801 150.57 316.448 145.458 305.572 138.959L305.314 138.804C294.543 132.332 284.298 123.948 274.858 113.881C266.037 104.472 257.545 93.6447 248.897 80.779C242.086 70.6423 235.491 60.1819 229.082 49.9071L225.26 43.7686C216.226 29.2559 208.512 17.8349 200.982 7.82715C192.204 -3.83928 182.803 -13.8791 173.041 -22.0105C162.525 -30.7705 150.856 -38.0271 140.743 -44.1421C129.667 -50.8396 118.6 -57.4937 107.551 -64.137L4.76558 -125.609L5.06775 -142.94L115.266 -77.0349C126.302 -70.3948 137.366 -63.7314 148.439 -57.0266L150.806 -55.5872C162.116 -48.6789 171.611 -42.44 180.537 -35.1308C190.32 -27.0897 199.637 -17.2084 208.232 -5.7585L208.771 -5.03561V-5.03561L209.312 -4.30797C216.562 5.46947 223.874 16.5225 232.219 30.3156L235.302 35.4144C237.324 38.7631 239.374 42.1486 241.435 45.5416C244.369 50.3719 247.333 55.2201 250.331 60.0163C251.073 61.2028 251.822 62.3688 252.567 63.548L254.489 66.5943V66.5943L255.458 68.1142V68.1142C264.034 81.4767 272.425 92.6601 281.112 102.307C290.302 112.513 300.303 120.962 310.857 127.439L312.031 128.151C323.026 134.72 335.639 139.77 349.517 143.16C362.182 146.253 376.082 148.359 392.014 149.598C401.882 150.366 411.998 150.941 421.949 151.466L436.648 152.232C453.668 153.123 467.494 154.466 480.16 156.457C494.418 158.7 507.637 162.365 519.445 167.35C531.939 172.664 543.511 179.324 554.293 185.69C565.603 192.371 576.882 199.072 588.14 205.768L697.07 270.915L681.874 279.347ZM664.633 288.884L537.888 213.082L534.463 211.089C524.818 205.491 514.106 199.45 502.747 194.711C490.959 189.791 477.611 186.046 463.074 183.581L461.442 183.308C450.221 181.459 437.656 179.948 422.222 178.588L419.942 178.39C414.813 177.951 409.728 177.509 404.687 177.048L402.005 176.801V176.801C399.768 176.592 397.543 176.377 395.324 176.157C393.393 175.965 391.468 175.768 389.549 175.565C388.151 175.418 386.755 175.267 385.364 175.113C383.733 174.931 382.105 174.745 380.483 174.553L376.396 174.061V174.061C361.158 172.153 347.714 169.478 335.295 165.883C322.009 162.037 309.737 156.778 298.818 150.255C287.899 143.719 277.469 135.43 267.83 125.592C258.812 116.389 250.134 105.871 241.301 93.4389C240.091 91.7356 238.888 90.0199 237.69 88.2969C231.784 79.8007 225.975 71.0248 220.401 62.4973L215.737 55.3495C209.493 45.8134 203.922 37.6933 198.665 30.4783L198.103 29.7087C196.171 27.0685 194.281 24.5504 192.414 22.1278C183.494 10.5522 174.047 0.593101 164.338 -7.46867C154.361 -15.7522 143.819 -22.4037 132.057 -29.6313L4.4225 -105.964L4.72638 -123.293L106.534 -62.4061C117.567 -55.7715 128.632 -49.1198 139.708 -42.4214L141.808 -41.148C151.35 -35.3439 162.067 -28.539 171.76 -20.4655C181.396 -12.4394 190.689 -2.51285 199.384 9.03897L200.427 10.4331C207.569 20.026 214.954 31.0102 223.56 44.8344L227.401 51.0006C233.838 61.3204 240.454 71.8149 247.238 81.9032C255.948 94.8633 264.505 105.773 273.398 115.257C282.674 125.152 292.724 133.443 303.29 139.924L304.546 140.685C315.579 147.279 328.104 152.462 341.772 156.091C354.39 159.443 368.124 161.824 383.761 163.372C396.764 164.661 410.192 165.574 423.282 166.432L427.965 166.737L431.499 166.975C446.994 168.054 459.723 169.424 471.314 171.255C485.711 173.531 498.956 177.155 510.681 182.027C523.301 187.271 535.166 194.143 545.621 200.197L679.832 280.466L664.633 288.884ZM647.426 298.443L529.147 227.704L524.561 225.025C515.227 219.594 504.936 213.809 494.12 209.166C482.281 204.085 469.417 200.262 454.792 197.477L453.242 197.186C441.831 195.065 429.398 193.286 413.331 191.474L407.617 190.832C395.636 189.476 382.261 187.877 369.369 185.886C354.422 183.578 341.172 180.577 328.86 176.71C315.786 172.607 303.593 167.204 292.622 160.647L292.348 160.482L290.996 159.643V159.643C290.161 159.13 289.327 158.619 288.497 158.088C280.759 153.114 273.253 147.337 266.109 140.851C265.748 140.524 265.383 140.207 265.023 139.876L264.779 139.644V139.644C263.63 138.579 262.488 137.499 261.359 136.396C252.146 127.412 243.271 117.219 234.226 105.233L232.718 103.226C225.447 93.5041 218.364 83.4235 210.182 71.5611L208.086 68.5242C198.83 55.1464 191.389 45.0515 184.107 35.9858C174.866 24.4844 165.572 14.9921 155.693 6.96691C145.588 -1.2414 134.613 -8.11086 123.313 -15.01L4.08543 -86.3147L4.38846 -103.651L131.025 -27.9135L134.877 -25.5379C145.033 -19.2438 154.287 -13.2116 163.066 -5.92204C172.663 2.04809 182.005 11.8991 190.835 23.3573C193.342 26.611 195.891 30.0369 198.527 33.6977L199.409 34.9267C204.141 41.5467 209.166 48.9426 214.733 57.4695L218.296 62.9359C224.129 71.8688 230.242 81.1157 236.531 90.1354C237.577 91.6353 238.625 93.1259 239.675 94.6042C248.566 107.121 257.31 117.717 266.406 126.999C275.782 136.566 285.893 144.695 296.481 151.181L297.798 151.979C308.863 158.591 321.292 163.917 334.743 167.811C347.262 171.436 360.808 174.131 376.153 176.052L377.801 176.244V176.244C380.245 176.542 382.701 176.828 385.172 177.103C386.535 177.254 387.904 177.402 389.273 177.547C391.23 177.754 393.194 177.955 395.165 178.15L398.436 178.47V178.47L403.16 178.917V178.917L404.604 179.049C408.371 179.393 412.151 179.73 415.959 180.062L422.047 180.588C438.169 182.007 451.151 183.595 462.743 185.561C477.132 188.001 490.332 191.702 501.982 196.563C514.611 201.833 526.447 208.735 536.88 214.82L662.621 290.021L647.426 298.443ZM612.965 317.53L511.673 256.951L508.204 254.901C505.911 253.549 503.656 252.224 501.423 250.923L498.731 249.357V249.357L497.156 248.448V248.448L494.485 246.916V246.916C488.748 243.643 483.081 240.518 477.261 237.503L477.195 237.471C464.644 232.054 451.728 227.633 438.804 224.331L436.57 223.768C426.329 221.217 415.12 218.867 400.904 216.291L391.449 214.596C389.911 214.319 388.397 214.045 386.902 213.772L383.169 213.085V213.085L380.654 212.616V212.616L377.063 211.939V211.939L375.267 211.595V211.595L371.992 210.96V210.96L370.041 210.575V210.575L366.744 209.917V209.917L364.956 209.551V209.551L361.431 208.823V208.823C360.482 208.624 359.537 208.419 358.59 208.215C357.855 208.058 357.117 207.903 356.384 207.742C341.997 204.598 329.131 200.945 317.049 196.579C313.869 195.43 310.73 194.213 307.64 192.933C298.468 189.13 289.714 184.751 281.507 179.866L281.227 179.704C271.308 173.724 261.618 166.724 252.441 158.81L251.297 157.815C250.692 157.285 250.081 156.763 249.479 156.225C239.926 147.674 230.661 138.122 221.154 127.023C212.682 117.137 204.299 106.684 196.433 96.7385L193.403 92.9052C183.571 80.5034 175.702 71.1457 168.048 62.745C159.137 52.9701 149.29 43.7207 138.727 35.2104C128.87 28.3467 118.593 21.9727 109.377 16.3835L105.644 14.1263L3.39601 -47.0225V-47.0225L3.69836 -64.3614L113.54 1.32999L116.896 3.37109C126.461 9.20383 136.46 15.4685 146.103 22.4151C156.299 31.0856 165.846 40.6321 174.483 50.7895L175.962 52.5398C182.883 60.7786 190.112 70.051 199.024 82.1237L200.309 83.8677C208.39 94.8538 217.093 106.549 225.991 117.618C235.315 129.221 244.448 139.158 253.916 147.999C263.816 157.246 274.413 165.285 285.419 171.898L285.779 172.113C296.909 178.763 309.155 184.367 322.181 188.768C334.47 192.922 347.616 196.274 362.371 199.015C375.094 201.377 387.898 203.332 403.053 205.503L404.576 205.721C421.684 208.166 434.551 210.405 446.297 212.978C459.437 215.857 472.458 219.87 485.001 224.907C496.573 230.686 507.871 237.262 519.383 244.05L628.16 309.108L612.965 317.53ZM593.703 328.214L578.507 336.636L494.181 286.204C483.894 280.048 473.785 274.031 463.507 268.227L460.032 266.277C448.27 260.457 435.914 255.136 423.265 250.446C411.562 246.692 399.209 243.129 385.557 239.568L377.297 237.427C366.335 234.58 355.14 231.628 344.095 228.454C330.184 224.455 317.685 220.177 305.883 215.378C293.944 210.52 282.503 204.885 271.85 198.615L269.971 197.498V197.498C259.082 190.956 248.41 183.381 238.245 174.979C228.434 166.873 218.792 157.935 208.764 147.654L206.885 145.723C199.082 137.676 191.546 129.579 182.863 120.184L180.757 117.904C170.764 107.085 161.5 97.5476 152.403 88.7177C142.433 79.848 132.054 71.5167 121.513 63.9264C111.219 57.2564 100.596 50.8238 90.4924 44.7715L2.70266 -7.7316V-7.7316L3.00517 -25.061L98.5844 32.1032C109.874 38.8776 119.505 44.8072 128.985 51.1461C139.219 58.9135 149.314 67.5741 158.956 76.8543L160.731 78.7548C168.449 87.0489 176.49 96.1164 185.221 106.369L191.103 113.278C199.037 122.57 206.125 130.712 213.451 138.735C223.287 149.5 232.798 158.802 242.53 167.169C247.629 171.553 252.875 175.696 258.231 179.576C259.109 180.211 259.993 180.829 260.878 181.452L262.182 182.374V182.374C263.116 183.022 264.056 183.651 264.996 184.281L266.275 185.146V185.146L267.205 185.749V185.749L268.136 186.349C268.946 186.873 269.755 187.399 270.568 187.911L271.004 188.179V188.179C272.118 188.877 273.233 189.57 274.355 190.244L274.808 190.515V190.515C285.98 197.185 298.064 203.033 310.723 207.896C322.759 212.523 335.518 216.51 349.726 220.084C362.519 223.304 375.763 226.224 387.476 228.752L390.371 229.375C405.225 232.569 418.407 235.729 430.62 239.019C443.531 243.242 456.034 248.155 467.781 253.622C478.868 259.611 489.676 265.995 499.862 272.088L593.703 328.214ZM559.253 347.3L544.054 355.726L466.599 309.406C458.383 304.5 450.587 299.866 442.743 295.263C431.165 288.89 419.231 282.887 407.241 277.408C395.449 272.497 383.183 267.752 369.73 262.898L356.71 258.356C348.381 255.444 339.932 252.469 331.633 249.455C318.062 244.522 305.927 239.621 294.535 234.472C282.327 228.953 270.534 222.806 259.483 216.204C248.4 209.561 237.441 202.137 226.833 194.029C216.9 186.441 206.879 178.113 196.197 168.57C188.147 161.379 180.057 153.974 172.172 146.739L166.522 141.552C156.029 132.115 146.147 123.612 136.284 115.534C125.938 107.626 115.15 99.9925 104.193 92.8337L101.198 91.0015C90.7112 84.5988 80.2077 78.3175 70.846 72.7222L2.02113 31.5629L2.32399 14.2232L78.6261 59.8555C86.5369 64.5855 94.3135 69.2534 101.993 73.9668L104.917 75.7713V75.7713L107.832 77.5815C109.143 78.396 110.461 79.2064 111.766 80.0272C122.38 87.2934 132.926 95.2251 143.082 103.575C152.657 112.082 162.484 121.328 172.287 131.055L181.493 140.192C187.967 146.609 194.571 153.115 201.171 159.432L202.198 160.409V160.409L203.223 161.377C211.865 169.567 220.18 176.89 228.491 183.625L229.738 184.631C230.283 185.068 230.827 185.513 231.372 185.946C241.412 193.928 251.85 201.246 262.503 207.675L264.03 208.59C275.152 215.235 287.086 221.309 299.498 226.643C311.136 231.643 323.51 236.253 337.325 240.737C340.069 241.628 342.831 242.51 345.601 243.386C347.08 243.853 348.564 244.314 350.046 244.776C351.282 245.163 352.518 245.553 353.755 245.937C357.162 246.993 360.566 248.04 363.947 249.076L376.26 252.839C389.577 256.917 402.478 261.257 414.568 265.729C426.799 270.802 438.88 276.454 450.443 282.51C460.439 288.245 470.225 294.059 480.84 300.405L559.253 347.3ZM2.36678 11.9192L2.66981 -5.41109L87.301 45.2025C97.9273 51.5582 109.24 58.3674 120.378 65.581C130.818 73.1011 141.144 81.3893 151.035 90.1869C160.068 98.9584 169.307 108.469 179.281 119.265L183.846 124.205C191.222 132.175 199.25 140.784 207.325 149.055C217.408 159.39 227.102 168.376 236.962 176.526C247.203 184.989 257.951 192.619 268.919 199.209L269.431 199.515V199.515C280.561 206.167 292.57 212.128 305.122 217.237C316.989 222.065 329.554 226.366 343.535 230.38C356.932 234.227 370.959 237.86 383.333 241.065L386.501 241.891C399.601 245.334 411.452 248.765 422.604 252.341C435.15 256.994 447.441 262.286 459.093 268.05C470.533 274.433 481.728 281.092 493.142 287.923L576.48 337.763L561.288 346.182L477.887 296.309C468.934 290.969 460.871 286.2 452.568 281.423L451.4 280.754C439.792 274.669 427.656 268.991 415.295 263.865C403.133 259.367 390.196 255.014 376.842 250.924L364.155 247.047C360.932 246.06 357.688 245.063 354.441 244.055C348.922 242.343 343.395 240.603 337.939 238.832C324.182 234.367 311.866 229.778 300.285 224.802C287.953 219.505 276.101 213.472 265.052 206.871C254.033 200.296 243.094 192.704 232.619 184.382L231.734 183.673V183.673L230.849 182.958C222.401 176.16 213.956 168.765 205.173 160.47L203.432 158.823C203.141 158.547 202.849 158.269 202.557 157.989C195.945 151.656 189.322 145.133 182.83 138.698L173.7 129.637C163.865 119.88 154.012 110.611 144.385 102.058C134.152 93.6434 123.559 85.6768 112.867 78.3578L111.52 77.5204C102.211 71.6912 92.7938 66.005 83.1968 60.2589L71.3618 53.1796L2.36678 11.9192ZM3.35837 -44.7154L104.612 15.8391V15.8391L108.335 18.0906C117.524 23.6634 127.765 30.0148 137.524 36.8082C147.95 45.21 157.721 54.3886 166.567 64.0902L167.581 65.2068C174.691 73.0672 182.093 81.8849 191.203 93.3541L196.558 100.121C203.941 109.432 211.745 119.118 219.631 128.323C229.202 139.491 238.528 149.106 248.141 157.713C248.663 158.181 249.195 158.634 249.722 159.096C250.468 159.751 251.21 160.412 251.963 161.056L252.25 161.295C260.674 168.469 269.503 174.894 278.579 180.441L280.02 181.313V181.313L280.484 181.585C288.762 186.515 297.603 190.938 306.873 194.78C309.993 196.074 313.161 197.302 316.372 198.462C328.51 202.854 341.459 206.528 355.96 209.698L357.059 209.935V209.935L361.018 210.779V210.779L362.723 211.132C363.932 211.383 365.143 211.633 366.362 211.88L369.61 212.529V212.529L372.288 213.055V213.055L375.467 213.67V213.67L378.718 214.287V214.287L381.716 214.85V214.85L386.695 215.767V215.767L391.764 216.686V216.686L400.548 218.261C415.763 221.017 427.513 223.512 438.313 226.271C451.093 229.535 463.897 233.916 476.372 239.296L478.276 240.296C479.07 240.714 479.867 241.127 480.657 241.549L481.763 242.148V242.148C482.832 242.721 483.9 243.295 484.963 243.877L486.053 244.481C487.109 245.063 488.165 245.645 489.218 246.235L490.828 247.145V247.145C491.705 247.638 492.581 248.131 493.456 248.631L496.5 250.379V250.379L498.579 251.581V251.581C502.592 253.91 506.604 256.279 510.639 258.672L610.937 318.656L595.743 327.079L502.934 271.574C492.068 265.071 480.474 258.191 468.66 251.814C456.814 246.302 444.227 241.355 431.202 237.094C418.905 233.782 405.69 230.614 390.802 227.412L385.877 226.35C374.304 223.845 362.19 221.152 350.224 218.138C336.116 214.586 323.432 210.624 311.449 206.02C298.876 201.191 286.895 195.394 275.842 188.789C264.832 182.234 254.038 174.41 243.842 165.644C234.148 157.308 224.693 148.062 214.936 137.379C206.62 128.276 198.59 118.963 190.994 110.048L185.741 103.879C176.691 93.2892 168.387 83.9743 160.387 75.4415C150.622 66.0463 140.466 57.3331 130.155 49.509C119.852 42.6221 109.474 36.2716 97.0845 28.8578L3.05585 -27.3743L3.35837 -44.7154ZM122.284 -13.2907C133.53 -6.424 144.451 0.40992 154.437 8.52778C164.21 16.4721 173.408 25.8659 182.553 37.2464L183.52 38.4555C190.461 47.1682 197.623 56.9196 206.446 69.6695L211.053 76.3399C218.765 87.4798 225.572 97.0888 232.634 106.446C241.741 118.512 250.682 128.779 259.966 137.835C261.945 139.768 263.964 141.626 266.001 143.443C266.493 143.881 266.98 144.332 267.476 144.764L268.4 145.548V145.548C274.506 150.805 280.848 155.558 287.374 159.744C288.385 160.395 289.406 161.019 290.427 161.644L291.599 162.371V162.371C302.707 169.009 315.043 174.477 328.266 178.625C340.673 182.522 354.02 185.546 369.068 187.869C380.87 189.693 393.066 191.187 404.231 192.467L414.2 193.592C430.442 195.442 442.923 197.26 454.423 199.45C468.893 202.202 481.622 205.983 493.335 211.011C505.876 216.394 517.704 223.326 528.133 229.439L645.38 299.561V299.561L630.185 307.983L520.406 242.327L516.821 240.218C506.156 233.958 496.261 228.289 485.782 223.059C473.124 217.974 459.982 213.923 446.724 211.02L445.205 210.69C434.527 208.395 422.898 206.361 408.082 204.2L399.262 202.932C387.844 201.28 375.16 199.353 362.735 197.044C348.074 194.319 335.016 190.991 322.817 186.868C309.928 182.511 297.811 176.969 286.804 170.391L286.552 170.24C285.959 169.882 285.37 169.507 284.78 169.142L283.347 168.261C283.109 168.113 282.871 167.964 282.634 167.812C276.616 163.972 270.734 159.702 265.033 155.045L262.789 153.199V153.199C262.414 152.884 262.047 152.555 261.673 152.235C259.515 150.387 257.378 148.494 255.279 146.533C245.902 137.779 236.831 127.91 227.549 116.36C219.3 106.096 211.168 95.2287 203.545 84.885L201.919 82.6769C191.736 68.83 183.744 58.5949 176.005 49.4888C167.314 39.2604 157.689 29.6379 147.335 20.8371C136.434 12.9807 125.174 6.04552 114.57 -0.388786L3.73635 -66.673L4.04058 -84.0072L122.284 -13.2907ZM3.70334 -178.786L3.48384 -166.073L3.4667 -166.083L3.0834 -144.132L3.08769 -144.129L2.4036 -104.842L2.40788 -104.84L2.10537 -87.4986L2.10108 -87.5011L1.71693 -65.5508L1.71864 -65.5497L1.37488 -45.9014L1.37831 -45.8993L1.07527 -28.5457L1.0667 -28.5509L0.683747 -6.59859L0.691461 -6.59396L0.388436 10.7363L0.385008 10.7343L0 32.6841L80.9464 81.0973C88.1294 85.4053 95.6645 89.9502 103.123 94.523C114.014 101.64 124.763 109.244 135.044 117.103C144.855 125.139 154.716 133.622 165.176 143.031L167.873 145.508C176.686 153.597 185.798 161.962 194.865 170.062C205.585 179.639 215.644 187.998 225.619 195.62C235.518 203.183 245.745 210.189 256.054 216.47L258.456 217.921V217.921C269.573 224.562 281.434 230.744 293.711 236.293C305.15 241.464 317.331 246.385 330.95 251.335C339.259 254.352 347.713 257.33 356.047 260.243L369.061 264.784C382.473 269.623 394.711 274.356 406.441 279.241C418.354 284.686 430.243 290.666 441.756 297.001L444.741 298.756C452.206 303.151 459.693 307.609 467.601 312.333L544.016 358.034L561.239 348.487L561.247 348.492L580.495 337.824L580.492 337.823L597.71 328.279L597.706 328.277L614.953 318.718L614.95 318.717L632.168 309.173L632.166 309.172L647.364 300.747L647.379 300.757L666.628 290.087L666.611 290.076L681.817 281.652L681.828 281.659L701.076 270.98L701.065 270.973L716.284 262.538L716.299 262.547L727.697 256.228L727.856 247.279L727.824 247.259L728.125 229.933L728.146 229.945L728.53 207.994L728.512 207.983L728.816 190.636L728.833 190.646L729.216 168.694L729.211 168.691L729.513 151.357L729.517 151.359L729.899 129.407L729.888 129.401L730.232 109.765L600.198 31.9945V31.9945C597.316 30.4079 594.439 28.809 591.565 27.2062L581.905 21.8153C577.418 19.3154 572.864 16.794 568.311 14.3295L565.578 12.8577C554.323 6.8308 542.337 0.889011 529.956 -4.80263L526.346 -6.44563C517.587 -10.4092 508.079 -14.55 496.321 -19.5216L489.943 -22.214C480.337 -26.2814 468.5 -31.3916 456.849 -36.8591C444.232 -42.7723 432.802 -48.8154 421.906 -55.332C411.472 -61.5465 401.227 -68.4181 390.594 -76.2653L389.141 -77.3415C379.151 -84.7668 369.394 -92.4887 361.439 -98.8822L353.501 -105.279C345.681 -111.565 336.235 -119.065 326.651 -126.329C315.911 -134.473 305.109 -142.17 294.547 -149.206C289.394 -152.638 284.141 -156.035 278.961 -159.361L273.812 -162.661C269.764 -165.254 265.72 -167.845 261.662 -170.478L130.37 -249L95.9215 -229.904L95.9198 -229.905L42.2116 -200.134L42.2176 -200.131L27.0105 -191.702L27.0053 -191.705L3.70334 -178.786Z" fill="url(#paint0_linear_876_640)" fill-opacity="0.8"/>
<defs>
<linearGradient id="paint0_linear_876_640" x1="3.8608" y1="81.1379" x2="311.153" y2="430.031" gradientUnits="userSpaceOnUse">
<stop stop-opacity="0.01"/>
<stop offset="0.538482" stop-opacity="0.15"/>
<stop offset="1" stop-opacity="0.01"/>
</linearGradient>
</defs>
</svg>
