<svg width="109" height="17" viewBox="0 0 109 17" fill="none" xmlns="http://www.w3.org/2000/svg">
<path d="M8.83319 0.208495L11.2589 5.1397L16.6813 5.93065C16.7501 5.94088 16.8147 5.97012 16.8678 6.01508C16.9209 6.06004 16.9604 6.11893 16.9818 6.18512C17.0033 6.25131 17.0058 6.32218 16.9891 6.38973C16.9725 6.45728 16.9373 6.51884 16.8875 6.56747L12.9646 10.405L13.8908 15.8248C13.9027 15.8934 13.8952 15.9638 13.8692 16.0283C13.8431 16.0928 13.7995 16.1487 13.7432 16.1896C13.687 16.2305 13.6205 16.2549 13.5511 16.2599C13.4817 16.265 13.4124 16.2505 13.3508 16.2181L8.50055 13.6597L3.65029 16.2188C3.58879 16.2513 3.51941 16.2659 3.45002 16.261C3.38064 16.256 3.31404 16.2317 3.25779 16.1908C3.20154 16.1498 3.1579 16.094 3.13183 16.0295C3.10576 15.965 3.0983 15.8945 3.1103 15.826L4.03652 10.405L0.112475 6.56747C0.0627202 6.51884 0.0275312 6.45728 0.010871 6.38973C-0.00578921 6.32218 -0.00325878 6.25131 0.0181773 6.18512C0.0396134 6.11893 0.0791038 6.06004 0.132201 6.01508C0.185298 5.97012 0.249894 5.94088 0.318712 5.93065L5.74112 5.1397L8.16791 0.208495C8.19818 0.146007 8.24543 0.0933064 8.30426 0.0564319C8.3631 0.0195574 8.43112 0 8.50055 0C8.56999 0 8.63801 0.0195574 8.69685 0.0564319C8.75568 0.0933064 8.80293 0.146007 8.83319 0.208495Z" fill="#FDB241"/>
<path d="M31.8332 0.208495L34.2589 5.1397L39.6813 5.93065C39.7501 5.94088 39.8147 5.97012 39.8678 6.01508C39.9209 6.06004 39.9604 6.11893 39.9818 6.18512C40.0033 6.25131 40.0058 6.32218 39.9891 6.38973C39.9725 6.45728 39.9373 6.51884 39.8875 6.56747L35.9646 10.405L36.8908 15.8248C36.9027 15.8934 36.8952 15.9638 36.8692 16.0283C36.8431 16.0928 36.7995 16.1487 36.7432 16.1896C36.687 16.2305 36.6205 16.2549 36.5511 16.2599C36.4817 16.265 36.4124 16.2505 36.3508 16.2181L31.5006 13.6597L26.6503 16.2188C26.5888 16.2513 26.5194 16.2659 26.45 16.261C26.3806 16.256 26.314 16.2317 26.2578 16.1908C26.2015 16.1498 26.1579 16.094 26.1318 16.0295C26.1058 15.965 26.0983 15.8945 26.1103 15.826L27.0365 10.405L23.1125 6.56747C23.0627 6.51884 23.0275 6.45728 23.0109 6.38973C22.9942 6.32218 22.9967 6.25131 23.0182 6.18512C23.0396 6.11893 23.0791 6.06004 23.1322 6.01508C23.1853 5.97012 23.2499 5.94088 23.3187 5.93065L28.7411 5.1397L31.1679 0.208495C31.1982 0.146007 31.2454 0.0933064 31.3043 0.0564319C31.3631 0.0195574 31.4311 0 31.5006 0C31.57 0 31.638 0.0195574 31.6968 0.0564319C31.7557 0.0933064 31.8029 0.146007 31.8332 0.208495Z" fill="#FDB241"/>
<path d="M54.8332 0.208495L57.2589 5.1397L62.6813 5.93065C62.7501 5.94088 62.8147 5.97012 62.8678 6.01508C62.9209 6.06004 62.9604 6.11893 62.9818 6.18512C63.0033 6.25131 63.0058 6.32218 62.9891 6.38973C62.9725 6.45728 62.9373 6.51884 62.8875 6.56747L58.9646 10.405L59.8908 15.8248C59.9027 15.8934 59.8952 15.9638 59.8692 16.0283C59.8431 16.0928 59.7995 16.1487 59.7432 16.1896C59.687 16.2305 59.6205 16.2549 59.5511 16.2599C59.4817 16.265 59.4124 16.2505 59.3508 16.2181L54.5006 13.6597L49.6503 16.2188C49.5888 16.2513 49.5194 16.2659 49.45 16.261C49.3806 16.256 49.314 16.2317 49.2578 16.1908C49.2015 16.1498 49.1579 16.094 49.1318 16.0295C49.1058 15.965 49.0983 15.8945 49.1103 15.826L50.0365 10.405L46.1125 6.56747C46.0627 6.51884 46.0275 6.45728 46.0109 6.38973C45.9942 6.32218 45.9967 6.25131 46.0182 6.18512C46.0396 6.11893 46.0791 6.06004 46.1322 6.01508C46.1853 5.97012 46.2499 5.94088 46.3187 5.93065L51.7411 5.1397L54.1679 0.208495C54.1982 0.146007 54.2454 0.0933064 54.3043 0.0564319C54.3631 0.0195574 54.4311 0 54.5006 0C54.57 0 54.638 0.0195574 54.6968 0.0564319C54.7557 0.0933064 54.8029 0.146007 54.8332 0.208495Z" fill="#FDB241"/>
<path d="M77.8332 0.208495L80.2589 5.1397L85.6813 5.93065C85.7501 5.94088 85.8147 5.97012 85.8678 6.01508C85.9209 6.06004 85.9604 6.11893 85.9818 6.18512C86.0033 6.25131 86.0058 6.32218 85.9891 6.38973C85.9725 6.45728 85.9373 6.51884 85.8875 6.56747L81.9646 10.405L82.8908 15.8248C82.9027 15.8934 82.8952 15.9638 82.8692 16.0283C82.8431 16.0928 82.7995 16.1487 82.7432 16.1896C82.687 16.2305 82.6205 16.2549 82.5511 16.2599C82.4817 16.265 82.4124 16.2505 82.3508 16.2181L77.5006 13.6597L72.6503 16.2188C72.5888 16.2513 72.5194 16.2659 72.45 16.261C72.3806 16.256 72.314 16.2317 72.2578 16.1908C72.2015 16.1498 72.1579 16.094 72.1318 16.0295C72.1058 15.965 72.0983 15.8945 72.1103 15.826L73.0365 10.405L69.1125 6.56747C69.0627 6.51884 69.0275 6.45728 69.0109 6.38973C68.9942 6.32218 68.9967 6.25131 69.0182 6.18512C69.0396 6.11893 69.0791 6.06004 69.1322 6.01508C69.1853 5.97012 69.2499 5.94088 69.3187 5.93065L74.7411 5.1397L77.1679 0.208495C77.1982 0.146007 77.2454 0.0933064 77.3043 0.0564319C77.3631 0.0195574 77.4311 0 77.5006 0C77.57 0 77.638 0.0195574 77.6968 0.0564319C77.7557 0.0933064 77.8029 0.146007 77.8332 0.208495Z" fill="#FDB241"/>
<path d="M100.833 0.208495L103.259 5.1397L108.681 5.93065C108.75 5.94088 108.815 5.97012 108.868 6.01508C108.921 6.06004 108.96 6.11893 108.982 6.18512C109.003 6.25131 109.006 6.32218 108.989 6.38973C108.972 6.45728 108.937 6.51884 108.888 6.56747L104.965 10.405L105.891 15.8248C105.903 15.8934 105.895 15.9638 105.869 16.0283C105.843 16.0928 105.799 16.1487 105.743 16.1896C105.687 16.2305 105.62 16.2549 105.551 16.2599C105.482 16.265 105.412 16.2505 105.351 16.2181L100.501 13.6597L95.6503 16.2188C95.5888 16.2513 95.5194 16.2659 95.45 16.261C95.3806 16.256 95.314 16.2317 95.2578 16.1908C95.2015 16.1498 95.1579 16.094 95.1318 16.0295C95.1058 15.965 95.0983 15.8945 95.1103 15.826L96.0365 10.405L92.1125 6.56747C92.0627 6.51884 92.0275 6.45728 92.0109 6.38973C91.9942 6.32218 91.9967 6.25131 92.0182 6.18512C92.0396 6.11893 92.0791 6.06004 92.1322 6.01508C92.1853 5.97012 92.2499 5.94088 92.3187 5.93065L97.7411 5.1397L100.168 0.208495C100.198 0.146007 100.245 0.0933064 100.304 0.0564319C100.363 0.0195574 100.431 0 100.501 0C100.57 0 100.638 0.0195574 100.697 0.0564319C100.756 0.0933064 100.803 0.146007 100.833 0.208495Z" fill="#FDB241"/>
</svg>
