<?xml version="1.0" standalone="no"?>
<!DOCTYPE svg PUBLIC "-//W3C//DTD SVG 20010904//EN"
 "http://www.w3.org/TR/2001/REC-SVG-20010904/DTD/svg10.dtd">
<svg version="1.0" xmlns="http://www.w3.org/2000/svg"
 width="99.000000pt" height="100.000000pt" viewBox="0 0 99.000000 100.000000"
 preserveAspectRatio="xMidYMid meet">
<metadata>
Created by potrace 1.10, written by Peter Selinger 2001-2011
</metadata>
<g transform="translate(0.000000,100.000000) scale(0.100000,-0.100000)"
fill="#000000" stroke="none">
<path d="M435 979 c-123 -18 -219 -48 -275 -87 -158 -108 -191 -269 -94 -462
25 -49 57 -104 71 -121 26 -30 26 -32 15 -103 -6 -40 -14 -80 -18 -89 -4 -12
8 -8 44 15 156 101 139 96 248 90 116 -5 284 17 370 49 38 14 74 38 104 68 41
41 49 56 61 117 8 38 14 119 14 179 0 106 -1 113 -35 180 -29 58 -45 76 -92
108 -91 61 -241 81 -413 56z m307 -48 c76 -24 131 -71 166 -144 30 -61 34 -77
34 -150 -1 -107 -26 -219 -59 -258 -63 -75 -195 -110 -418 -113 l-151 -2 -52
-32 c-29 -18 -54 -32 -57 -32 -3 0 -5 19 -5 43 0 32 -9 55 -36 96 -53 78 -100
178 -113 239 -19 90 15 181 93 250 63 55 120 77 296 112 58 12 255 6 302 -9z"/>
<path d="M403 829 c-23 -11 -54 -36 -68 -55 -29 -37 -71 -134 -86 -197 -5 -20
-18 -46 -29 -57 -43 -43 -33 -98 26 -137 21 -14 31 -14 58 -5 27 10 40 8 86
-9 37 -14 68 -19 95 -16 161 21 198 39 241 113 34 58 40 133 15 189 -23 50
-117 162 -153 181 -41 21 -135 18 -185 -7z m200 -37 c30 -18 38 -39 8 -22 -38
20 -131 12 -178 -15 -48 -29 -54 -42 -21 -47 12 -2 29 -15 37 -30 14 -24 14
-28 -3 -47 -23 -25 -53 -27 -77 -5 -16 14 -18 14 -24 -5 -3 -11 -1 -37 4 -58
14 -50 5 -55 -15 -7 -43 104 19 228 129 255 41 10 104 1 140 -19z m29 -58 c50
-32 88 -99 88 -154 0 -78 -59 -164 -127 -184 -15 -5 -10 5 22 36 49 49 70 109
60 170 l-7 39 -23 -26 c-28 -29 -46 -32 -67 -7 -26 30 -29 51 -8 72 11 11 25
20 30 20 6 0 10 4 10 8 0 10 -65 42 -85 42 -8 0 -15 5 -15 11 0 17 79 0 122
-27z m-94 -18 c2 -2 -1 -13 -7 -24 -6 -12 -11 -32 -11 -46 0 -33 45 -84 78
-88 45 -5 38 -33 -15 -58 -92 -45 -208 -22 -201 38 2 20 11 28 35 34 62 16 86
76 58 142 -8 17 -5 19 25 12 18 -3 35 -8 38 -10z m-238 -118 c0 -13 9 -42 19
-65 47 -103 200 -133 291 -57 43 37 37 15 -7 -28 -68 -64 -162 -74 -236 -24
-34 23 -35 23 -51 5 -19 -23 -49 -24 -70 -3 -31 30 -14 84 26 84 16 0 17 6 12
55 -5 38 -3 55 5 55 6 0 11 -10 11 -22z"/>
</g>
</svg>
