<?xml version="1.0" standalone="no"?>
<!DOCTYPE svg PUBLIC "-//W3C//DTD SVG 20010904//EN"
 "http://www.w3.org/TR/2001/REC-SVG-20010904/DTD/svg10.dtd">
<svg version="1.0" xmlns="http://www.w3.org/2000/svg"
 width="99.000000pt" height="100.000000pt" viewBox="0 0 99.000000 100.000000"
 preserveAspectRatio="xMidYMid meet">
<metadata>
Created by potrace 1.10, written by Peter Selinger 2001-2011
</metadata>
<g transform="translate(0.000000,100.000000) scale(0.100000,-0.100000)"
fill="#000000" stroke="none">
<path d="M363 965 c-137 -28 -193 -54 -258 -120 -75 -74 -90 -112 -89 -220 0
-75 5 -101 27 -153 28 -65 89 -166 107 -177 13 -8 12 -47 -4 -122 -7 -35 -12
-63 -11 -63 2 0 44 25 95 56 l93 56 161 3 c237 4 364 43 437 135 39 49 63 172
57 295 -3 81 -8 101 -38 161 -62 122 -172 175 -365 173 -64 0 -141 -9 -212
-24z m227 -170 c17 -9 30 -17 30 -18 0 -1 -33 -1 -72 1 -66 3 -77 1 -115 -25
-47 -30 -54 -43 -23 -43 11 0 27 -11 36 -25 15 -23 15 -27 0 -50 -19 -28 -57
-33 -76 -10 -17 20 -29 3 -30 -40 -1 -26 -2 -28 -11 -11 -6 10 -9 42 -7 71 5
60 39 113 92 146 39 24 134 26 176 4z m42 -64 c52 -33 88 -96 88 -154 0 -49
-35 -122 -72 -148 -33 -24 -49 -19 -24 6 38 39 62 115 51 166 -6 28 -8 29 -24
15 -21 -19 -62 -21 -79 -4 -25 25 -9 75 30 92 10 4 8 9 -5 18 -53 37 -54 37
-31 38 11 0 41 -13 66 -29z m-329 -158 c9 -45 49 -95 97 -121 52 -27 123 -27
179 1 19 9 36 15 38 13 9 -8 -61 -56 -98 -68 -47 -14 -113 0 -159 32 -27 19
-28 19 -45 0 -33 -37 -85 -15 -85 37 0 18 8 28 31 36 29 11 30 14 24 54 -7 47
9 60 18 16z"/>
</g>
</svg>
